<svg xmlns="http://www.w3.org/2000/svg" xmlns:xlink="http://www.w3.org/1999/xlink" width="794" zoomAndPan="magnify" viewBox="0 0 595.5 842.249979" height="1123" preserveAspectRatio="xMidYMid meet" version="1.0"><defs><g/><clipPath id="6da71dfc99"><path d="M 0.015625 57 L 594.984375 57 L 594.984375 628 L 0.015625 628 Z M 0.015625 57 " clip-rule="nonzero"/></clipPath><clipPath id="7ff02dca43"><path d="M 16 349 L 532 349 L 532 569.382812 L 16 569.382812 Z M 16 349 " clip-rule="nonzero"/></clipPath><clipPath id="67a6cedfa4"><path d="M 479 312.265625 L 581 312.265625 L 581 443 L 479 443 Z M 479 312.265625 " clip-rule="nonzero"/></clipPath><clipPath id="4050a0206b"><rect x="0" width="595" y="0" height="571"/></clipPath></defs><g clip-path="url(#6da71dfc99)"><g transform="matrix(1, 0, 0, 1, -0.000000000000000002, 57)"><g clip-path="url(#4050a0206b)"><path fill="#000000" d="M 593.582031 352.230469 C 593.332031 351.363281 592.980469 350.535156 592.527344 349.75 C 592.074219 348.964844 591.53125 348.25 590.898438 347.597656 C 590.269531 346.949219 589.570312 346.382812 588.800781 345.90625 C 588.027344 345.429688 587.210938 345.050781 586.347656 344.773438 C 580.132812 342.761719 574.199219 340.117188 568.546875 336.835938 C 562.898438 333.558594 557.65625 329.722656 552.824219 325.324219 C 551.808594 324.394531 550.65625 323.679688 549.371094 323.179688 C 548.085938 322.679688 546.753906 322.429688 545.375 322.429688 L 544.617188 322.429688 C 543.113281 322.53125 541.6875 322.925781 540.34375 323.609375 C 539 324.296875 537.847656 325.21875 536.882812 326.378906 C 530.546875 334.050781 524.828125 342.152344 519.71875 350.6875 C 514.609375 359.222656 510.167969 368.089844 506.398438 377.292969 C 502.632812 386.5 499.574219 395.933594 497.234375 405.597656 C 494.890625 415.261719 493.289062 425.046875 492.425781 434.953125 C 492.316406 436.230469 492.429688 437.488281 492.765625 438.726562 C 493.097656 439.964844 493.628906 441.109375 494.363281 442.160156 L 494.835938 442.851562 C 495.34375 443.582031 495.933594 444.242188 496.601562 444.828125 C 497.269531 445.417969 498 445.917969 498.792969 446.328125 C 499.582031 446.738281 500.410156 447.050781 501.273438 447.261719 C 502.140625 447.472656 503.019531 447.574219 503.910156 447.574219 C 504.472656 447.570312 505.035156 447.527344 505.59375 447.449219 C 506.640625 447.285156 507.6875 447.199219 508.746094 447.195312 C 511.925781 447.203125 514.957031 447.886719 517.835938 449.242188 C 518.882812 450.40625 520.117188 451.308594 521.546875 451.949219 C 522.980469 452.585938 524.476562 452.90625 526.042969 452.90625 C 526.441406 452.933594 526.84375 452.933594 527.242188 452.90625 C 528.164062 452.808594 529.058594 452.59375 529.925781 452.269531 C 530.792969 451.945312 531.609375 451.515625 532.367188 450.984375 C 533.128906 450.453125 533.8125 449.835938 534.414062 449.132812 C 535.019531 448.429688 535.527344 447.664062 535.9375 446.832031 C 550.957031 416.382812 569.453125 388.203125 591.421875 362.304688 C 592 361.613281 592.484375 360.867188 592.878906 360.0625 C 593.273438 359.253906 593.5625 358.414062 593.753906 357.535156 C 593.941406 356.65625 594.019531 355.769531 593.992188 354.875 C 593.960938 353.976562 593.824219 353.097656 593.582031 352.230469 Z M 593.582031 352.230469 " fill-opacity="1" fill-rule="nonzero"/><g clip-path="url(#7ff02dca43)"><path fill="#000000" d="M 513.960938 450.71875 C 510.617188 449.578125 507.175781 449 503.640625 448.988281 C 499.699219 448.964844 495.925781 449.742188 492.316406 451.320312 C 488.964844 452.816406 486.007812 454.878906 483.445312 457.503906 C 482.984375 456.609375 482.410156 455.796875 481.722656 455.066406 C 481.035156 454.332031 480.261719 453.707031 479.398438 453.1875 C 478.539062 452.667969 477.625 452.273438 476.65625 452.007812 C 475.6875 451.742188 474.699219 451.609375 473.695312 451.617188 C 472.914062 451.617188 472.140625 451.695312 471.378906 451.855469 C 467.597656 452.671875 463.769531 453.316406 459.925781 453.804688 C 473.710938 425.804688 484.789062 396.773438 493.148438 366.707031 C 493.285156 366.246094 493.386719 365.773438 493.449219 365.292969 L 493.683594 363.59375 C 493.742188 363.203125 493.777344 362.8125 493.792969 362.417969 C 493.804688 362.023438 493.796875 361.632812 493.769531 361.238281 C 493.742188 360.847656 493.695312 360.457031 493.625 360.066406 C 493.554688 359.679688 493.464844 359.296875 493.351562 358.921875 C 493.242188 358.542969 493.109375 358.171875 492.960938 357.808594 C 492.808594 357.445312 492.640625 357.089844 492.449219 356.742188 C 492.261719 356.398438 492.054688 356.0625 491.832031 355.738281 C 491.605469 355.414062 491.363281 355.105469 491.105469 354.808594 C 490.847656 354.511719 490.574219 354.226562 490.285156 353.957031 C 489.996094 353.691406 489.695312 353.4375 489.378906 353.203125 C 489.0625 352.964844 488.738281 352.746094 488.398438 352.546875 C 488.058594 352.34375 487.710938 352.164062 487.351562 352 C 486.992188 351.835938 486.625 351.691406 486.253906 351.566406 C 485.878906 351.445312 485.5 351.339844 485.113281 351.257812 C 484.726562 351.171875 484.339844 351.109375 483.945312 351.066406 C 483.554688 351.027344 483.160156 351.003906 482.769531 351.003906 L 481.757812 351.003906 C 477.554688 351.382812 473.269531 351.585938 469.046875 351.585938 C 461.320312 351.582031 453.648438 350.949219 446.03125 349.683594 C 445.425781 349.574219 444.816406 349.523438 444.203125 349.527344 C 443.480469 349.527344 442.769531 349.59375 442.0625 349.734375 C 441.355469 349.875 440.667969 350.082031 440.003906 350.355469 C 439.335938 350.628906 438.703125 350.964844 438.105469 351.363281 C 437.503906 351.761719 436.949219 352.210938 436.4375 352.71875 C 435.925781 353.226562 435.46875 353.777344 435.066406 354.371094 C 434.664062 354.96875 434.320312 355.597656 434.039062 356.261719 C 433.761719 356.921875 433.546875 357.605469 433.402344 358.308594 C 433.257812 359.015625 433.179688 359.726562 433.175781 360.445312 C 428.449219 376.445312 423.34375 392.378906 417.863281 408.25 L 423.660156 378.714844 C 423.75 378.257812 423.808594 377.796875 423.839844 377.332031 C 423.871094 376.867188 423.871094 376.402344 423.84375 375.9375 C 423.816406 375.472656 423.757812 375.011719 423.671875 374.554688 C 423.582031 374.097656 423.46875 373.648438 423.324219 373.203125 C 423.179688 372.761719 423.007812 372.328125 422.808594 371.90625 C 422.613281 371.488281 422.386719 371.078125 422.136719 370.6875 C 421.886719 370.292969 421.613281 369.917969 421.3125 369.5625 C 421.015625 369.203125 420.695312 368.867188 420.355469 368.546875 C 420.011719 368.230469 419.652344 367.9375 419.277344 367.664062 C 418.898438 367.390625 418.503906 367.144531 418.09375 366.921875 C 417.683594 366.699219 417.261719 366.503906 416.828125 366.335938 C 416.390625 366.167969 415.949219 366.027344 415.496094 365.914062 C 415.042969 365.804688 414.585938 365.71875 414.121094 365.664062 C 413.660156 365.613281 413.195312 365.585938 412.730469 365.589844 C 412.261719 365.59375 411.800781 365.628906 411.335938 365.691406 C 410.875 365.757812 410.417969 365.847656 409.96875 365.96875 L 409.890625 365.96875 L 354.375 364.820312 C 353.671875 364.820312 352.976562 364.886719 352.289062 365.015625 C 351.601562 365.148438 350.929688 365.34375 350.28125 365.601562 C 349.628906 365.859375 349.007812 366.179688 348.417969 366.554688 C 347.828125 366.933594 347.277344 367.363281 346.769531 367.84375 C 346.261719 368.324219 345.804688 368.851562 345.394531 369.421875 C 344.988281 369.988281 344.636719 370.589844 344.34375 371.226562 C 344.050781 371.863281 343.820312 372.519531 343.652344 373.199219 C 343.484375 373.878906 343.382812 374.570312 343.347656 375.269531 C 337.125 394.878906 329.679688 414.011719 321.007812 432.671875 C 322.789062 424.625 323.429688 416.492188 322.929688 408.265625 C 321.683594 391.492188 314.21875 376.890625 302.449219 368.203125 C 300.277344 366.660156 298 365.300781 295.617188 364.117188 C 293.230469 362.933594 290.769531 361.945312 288.226562 361.152344 C 285.683594 360.359375 283.097656 359.769531 280.460938 359.386719 C 277.828125 359 275.179688 358.824219 272.515625 358.855469 C 270.71875 358.855469 268.925781 358.933594 267.144531 359.109375 C 261.453125 359.757812 255.910156 361.035156 250.511719 362.941406 C 245.113281 364.851562 239.996094 367.339844 235.164062 370.40625 C 219.046875 380.210938 204.601562 395.03125 192.234375 414.464844 C 183.835938 428.121094 176.480469 442.320312 170.179688 457.0625 C 168.910156 456.316406 167.542969 455.84375 166.082031 455.644531 L 119.214844 449.351562 C 117.691406 449.125 116.15625 449.003906 114.617188 448.988281 C 112.714844 448.976562 110.847656 449.234375 109.023438 449.761719 C 110.894531 446.433594 113.140625 443.378906 115.765625 440.601562 C 116.636719 439.65625 117.644531 438.890625 118.792969 438.308594 C 119.9375 437.722656 121.152344 437.355469 122.429688 437.203125 C 123.167969 437.207031 123.824219 437.445312 124.398438 437.910156 C 124.628906 438.523438 124.914062 439.105469 125.25 439.664062 C 125.585938 440.222656 125.96875 440.75 126.398438 441.242188 C 126.828125 441.734375 127.296875 442.183594 127.804688 442.589844 C 128.316406 443 128.855469 443.359375 129.429688 443.671875 C 130.003906 443.984375 130.597656 444.242188 131.21875 444.449219 C 131.839844 444.65625 132.472656 444.804688 133.117188 444.898438 C 133.761719 444.992188 134.414062 445.027344 135.066406 445.007812 C 135.71875 444.988281 136.363281 444.910156 137 444.773438 L 138.671875 444.410156 C 140.320312 444.058594 141.804688 443.359375 143.128906 442.316406 L 174.9375 417.441406 C 175.617188 416.90625 176.226562 416.300781 176.761719 415.625 C 177.300781 414.945312 177.75 414.214844 178.117188 413.433594 C 178.480469 412.648438 178.75 411.835938 178.925781 410.988281 C 179.097656 410.140625 179.171875 409.285156 179.144531 408.421875 C 178.496094 386.851562 161.5625 367.164062 138.890625 361.640625 C 134.207031 360.511719 129.453125 359.949219 124.632812 359.957031 C 120.699219 360.03125 116.789062 360.40625 112.910156 361.089844 C 109.035156 361.773438 105.230469 362.75 101.507812 364.027344 C 97.78125 365.300781 94.179688 366.859375 90.699219 368.695312 C 87.214844 370.535156 83.898438 372.628906 80.746094 374.984375 C 67.210938 384.820312 55.804688 398.589844 44.839844 418.367188 C 33.332031 439.105469 24.972656 461.042969 19.761719 484.175781 C 16.5 498.621094 13.726562 517.4375 21.226562 534.8125 C 30.144531 555.425781 52.890625 569.273438 77.84375 569.273438 C 80.519531 569.277344 83.179688 569.113281 85.832031 568.785156 C 108.3125 565.953125 129.675781 552.578125 145.964844 531.128906 C 149.96875 525.804688 153.589844 520.234375 156.835938 514.417969 C 158.269531 527.871094 164.289062 539.4375 173.785156 546.613281 C 176.648438 548.710938 179.660156 550.570312 182.8125 552.195312 C 185.96875 553.824219 189.230469 555.191406 192.601562 556.308594 C 195.96875 557.421875 199.40625 558.269531 202.90625 558.847656 C 206.410156 559.425781 209.9375 559.726562 213.488281 559.75 C 214.464844 559.75 215.441406 559.75 216.417969 559.671875 C 228.042969 559.105469 240.660156 554.953125 255 546.992188 C 266.640625 540.523438 273.636719 531.398438 280.363281 521.8125 C 281.9375 519.5 283.511719 517.09375 285.089844 514.765625 C 286.605469 515.957031 288.316406 516.695312 290.222656 516.984375 C 305.171875 519.261719 320.132812 519.359375 335.105469 517.28125 C 336.125 517.152344 337.101562 516.878906 338.035156 516.464844 C 337.5625 517.753906 337.089844 519.027344 336.585938 520.304688 C 336.425781 520.71875 336.289062 521.144531 336.179688 521.574219 C 336.066406 522.007812 335.984375 522.445312 335.925781 522.886719 C 335.871094 523.328125 335.839844 523.773438 335.835938 524.21875 C 335.832031 524.664062 335.855469 525.109375 335.90625 525.554688 C 335.957031 525.996094 336.035156 526.4375 336.140625 526.871094 C 336.246094 527.304688 336.375 527.730469 336.53125 528.148438 C 336.6875 528.566406 336.867188 528.972656 337.074219 529.367188 C 337.277344 529.765625 337.507812 530.148438 337.757812 530.515625 C 338.011719 530.882812 338.285156 531.234375 338.578125 531.570312 C 338.875 531.90625 339.1875 532.222656 339.519531 532.519531 C 339.855469 532.816406 340.203125 533.089844 340.570312 533.347656 C 340.9375 533.601562 341.320312 533.832031 341.714844 534.039062 C 342.109375 534.25 342.515625 534.433594 342.933594 534.589844 C 343.351562 534.75 343.773438 534.882812 344.207031 534.992188 C 344.640625 535.097656 345.082031 535.179688 345.523438 535.234375 C 345.96875 535.289062 346.414062 535.316406 346.859375 535.316406 L 347.597656 535.316406 L 384.589844 532.84375 C 386.90625 532.683594 388.96875 531.875 390.78125 530.421875 L 391.347656 530.042969 C 392.355469 529.230469 393.195312 528.269531 393.859375 527.160156 C 394.527344 526.050781 394.980469 524.863281 395.222656 523.589844 L 399.226562 503.671875 C 401.488281 504.714844 403.808594 505.609375 406.1875 506.359375 C 417.5625 510.03125 429.207031 512.390625 441.113281 513.441406 C 443.652344 513.679688 445.839844 513.773438 447.792969 513.773438 C 451.136719 513.902344 454.433594 513.550781 457.671875 512.722656 C 460.914062 511.890625 463.972656 510.617188 466.839844 508.894531 L 467.691406 508.453125 C 469.019531 507.777344 470.164062 506.867188 471.125 505.726562 C 472.082031 504.585938 472.78125 503.300781 473.222656 501.875 L 477.742188 487.179688 C 478.785156 489.425781 480.171875 491.433594 481.902344 493.207031 C 484.039062 495.296875 486.472656 496.957031 489.199219 498.1875 C 491.925781 499.417969 494.78125 500.144531 497.765625 500.367188 C 498.703125 500.457031 499.644531 500.496094 500.585938 500.492188 C 502.085938 500.492188 503.578125 500.386719 505.0625 500.175781 C 506.546875 499.960938 508.007812 499.644531 509.449219 499.222656 C 510.886719 498.804688 512.289062 498.28125 513.652344 497.660156 C 515.019531 497.039062 516.332031 496.328125 517.59375 495.519531 C 518.859375 494.710938 520.058594 493.816406 521.191406 492.835938 C 522.328125 491.859375 523.386719 490.804688 524.371094 489.671875 C 525.355469 488.542969 526.253906 487.347656 527.066406 486.089844 C 527.878906 484.832031 528.601562 483.519531 529.226562 482.160156 C 532.015625 475.789062 532.265625 469.902344 529.949219 464.644531 C 526.625 457.234375 519.523438 452.59375 513.960938 450.71875 Z M 256.746094 447.320312 C 254.28125 454.503906 250.757812 461.125 246.175781 467.179688 C 245.179688 468.796875 243.886719 470.128906 242.300781 471.175781 C 240.058594 472.511719 237.644531 473.332031 235.054688 473.632812 L 234.722656 473.632812 C 232.953125 473.613281 231.304688 473.15625 229.777344 472.261719 C 229.6875 472.011719 229.644531 471.757812 229.648438 471.492188 C 229.804688 469.320312 230.28125 467.222656 231.082031 465.199219 L 231.683594 463.734375 C 233.917969 458.578125 236.542969 453.625 239.558594 448.878906 C 242.171875 444.816406 245.542969 441.527344 249.671875 439.011719 C 251.246094 438.066406 252.941406 437.46875 254.761719 437.21875 L 255.3125 437.21875 C 255.996094 437.183594 256.640625 437.320312 257.25 437.628906 C 257.824219 438.261719 258.113281 439.007812 258.117188 439.863281 C 258.132812 442.4375 257.675781 444.921875 256.746094 447.320312 Z M 256.746094 447.320312 " fill-opacity="1" fill-rule="nonzero"/></g><path fill="#ed702e" d="M 64.722656 559.183594 C 39.769531 559.183594 17.019531 545.339844 8.117188 524.726562 C 0.605469 507.414062 3.394531 488.53125 6.636719 474.070312 C 11.855469 450.945312 20.214844 429.015625 31.71875 408.28125 C 42.746094 388.519531 54.089844 374.734375 67.621094 364.898438 C 70.773438 362.542969 74.09375 360.449219 77.574219 358.609375 C 81.054688 356.773438 84.660156 355.214844 88.382812 353.941406 C 92.109375 352.664062 95.910156 351.6875 99.789062 351.003906 C 103.667969 350.320312 107.574219 349.945312 111.511719 349.871094 C 116.304688 349.871094 121.03125 350.429688 125.691406 351.554688 C 148.375 357.078125 165.296875 376.730469 165.957031 398.335938 C 165.984375 399.195312 165.914062 400.042969 165.742188 400.882812 C 165.574219 401.722656 165.308594 402.53125 164.949219 403.3125 C 164.589844 404.089844 164.144531 404.816406 163.613281 405.492188 C 163.085938 406.167969 162.484375 406.773438 161.8125 407.304688 L 130.023438 432.199219 C 128.695312 433.234375 127.207031 433.929688 125.5625 434.292969 L 123.878906 434.65625 C 123.238281 434.789062 122.59375 434.867188 121.941406 434.890625 C 121.289062 434.910156 120.640625 434.875 119.992188 434.78125 C 119.347656 434.6875 118.714844 434.535156 118.09375 434.332031 C 117.476562 434.125 116.878906 433.863281 116.304688 433.550781 C 115.734375 433.242188 115.191406 432.878906 114.683594 432.472656 C 114.171875 432.0625 113.703125 431.613281 113.273438 431.125 C 112.84375 430.632812 112.464844 430.105469 112.128906 429.546875 C 111.792969 428.988281 111.507812 428.402344 111.277344 427.792969 C 110.703125 427.328125 110.046875 427.089844 109.304688 427.085938 C 108.046875 427.246094 106.851562 427.617188 105.726562 428.199219 C 104.597656 428.785156 103.605469 429.546875 102.753906 430.484375 C 100.125 433.261719 97.871094 436.3125 95.996094 439.644531 C 97.820312 439.109375 99.683594 438.847656 101.585938 438.855469 C 103.132812 438.875 104.671875 439 106.203125 439.234375 L 153.054688 445.527344 C 154.386719 445.703125 155.644531 446.109375 156.824219 446.742188 C 158.007812 447.375 159.042969 448.199219 159.921875 449.210938 L 160.523438 449.902344 C 161.164062 450.640625 161.695312 451.449219 162.121094 452.332031 C 162.546875 453.210938 162.851562 454.132812 163.03125 455.09375 C 163.210938 456.054688 163.261719 457.023438 163.183594 457.996094 C 163.105469 458.972656 162.902344 459.917969 162.570312 460.839844 C 155.308594 481.105469 147.019531 502.457031 132.890625 521.058594 C 116.601562 542.523438 95.238281 555.898438 72.757812 558.714844 C 70.105469 559.046875 67.441406 559.214844 64.769531 559.21875 Z M 64.722656 559.183594 " fill-opacity="1" fill-rule="nonzero"/><path fill="#f7ce46" d="M 104.628906 450.167969 C 104.085938 449.992188 103.535156 449.863281 102.972656 449.792969 C 102.40625 449.722656 101.839844 449.703125 101.273438 449.742188 C 100.707031 449.78125 100.148438 449.871094 99.597656 450.019531 C 99.046875 450.167969 98.519531 450.363281 98.007812 450.613281 C 97.496094 450.863281 97.015625 451.160156 96.5625 451.503906 C 96.109375 451.847656 95.695312 452.234375 95.316406 452.65625 C 94.9375 453.082031 94.605469 453.539062 94.316406 454.027344 C 94.027344 454.519531 93.789062 455.03125 93.597656 455.566406 C 89.398438 462.542969 85.230469 469.507812 81.089844 476.464844 L 106.878906 481.859375 L 105.699219 482.066406 C 101.578125 486.210938 97.03125 489.820312 92.054688 492.890625 C 89.550781 494.425781 86.863281 495.488281 83.984375 496.074219 C 81.105469 496.660156 78.214844 496.738281 75.308594 496.304688 C 69.589844 495.1875 64.28125 490.910156 63.132812 485.210938 C 62.140625 480.492188 64.03125 475.582031 66.046875 471.144531 C 71.886719 458.78125 78.445312 446.8125 85.722656 435.238281 C 88.28125 430.644531 91.378906 426.445312 95.015625 422.648438 C 96.859375 420.734375 98.988281 419.222656 101.398438 418.101562 C 103.808594 416.984375 106.339844 416.339844 108.992188 416.164062 C 114.253906 416.070312 119.71875 419.0625 121.59375 424.03125 L 123.265625 423.671875 L 155.039062 398.667969 C 154.519531 381.359375 140.027344 366.363281 123.183594 362.253906 C 106.34375 358.148438 88.164062 363.609375 74.144531 373.804688 C 60.121094 384.003906 49.773438 398.480469 41.359375 413.601562 C 30.367188 433.441406 22.378906 454.421875 17.398438 476.542969 C 14.136719 491.050781 12.339844 506.753906 18.234375 520.398438 C 26.707031 540.003906 50.132812 550.46875 71.339844 547.808594 C 92.542969 545.148438 111.148438 531.429688 124.050781 514.417969 C 136.953125 497.40625 144.941406 477.234375 152.140625 457.140625 L 151.558594 456.449219 Z M 104.628906 450.167969 " fill-opacity="1" fill-rule="nonzero"/><path fill="#ed702e" d="M 200.363281 549.664062 C 196.816406 549.640625 193.289062 549.335938 189.789062 548.757812 C 186.289062 548.179688 182.855469 547.332031 179.484375 546.21875 C 176.117188 545.101562 172.855469 543.734375 169.703125 542.109375 C 166.550781 540.484375 163.542969 538.621094 160.679688 536.527344 C 150.03125 528.484375 143.726562 514.953125 143.351562 499.40625 C 143.082031 487.085938 146.296875 475.691406 149.902344 464.144531 C 149.984375 463.921875 150.046875 463.703125 150.140625 463.480469 L 152.550781 457.1875 C 152.609375 457.019531 152.675781 456.859375 152.753906 456.699219 C 160.441406 439.1875 168.382812 421.089844 179.0625 404.300781 C 191.445312 384.851562 205.847656 370.011719 222.007812 360.242188 C 226.839844 357.171875 231.949219 354.679688 237.347656 352.773438 C 242.742188 350.867188 248.285156 349.589844 253.972656 348.945312 C 255.753906 348.769531 257.566406 348.691406 259.347656 348.691406 C 262.007812 348.660156 264.65625 348.835938 267.292969 349.21875 C 269.925781 349.605469 272.515625 350.195312 275.054688 350.988281 C 277.597656 351.78125 280.0625 352.769531 282.445312 353.953125 C 284.832031 355.132812 287.109375 356.496094 289.277344 358.039062 C 301.046875 366.722656 308.515625 381.3125 309.757812 398.085938 C 310.878906 413.066406 307.015625 427.542969 303.457031 438.476562 C 299.316406 451.535156 294.210938 464.203125 288.136719 476.480469 C 282.0625 488.761719 275.089844 500.507812 267.222656 511.726562 C 260.511719 521.292969 253.515625 530.421875 241.859375 536.902344 C 227.539062 544.867188 214.90625 549.019531 203.277344 549.585938 C 202.300781 549.632812 201.355469 549.664062 200.363281 549.664062 Z M 216.605469 462.128906 C 218.132812 463.027344 219.78125 463.484375 221.550781 463.496094 L 221.882812 463.496094 C 224.476562 463.179688 226.898438 462.359375 229.144531 461.027344 C 230.730469 459.992188 232.019531 458.664062 233.003906 457.046875 C 237.59375 450.996094 241.117188 444.382812 243.578125 437.203125 C 244.527344 434.828125 245.015625 432.363281 245.042969 429.808594 C 245.035156 428.945312 244.742188 428.195312 244.160156 427.558594 C 243.550781 427.246094 242.90625 427.109375 242.222656 427.148438 L 241.671875 427.148438 C 239.847656 427.390625 238.152344 427.988281 236.582031 428.941406 C 232.453125 431.457031 229.082031 434.746094 226.46875 438.808594 C 223.425781 443.550781 220.773438 448.503906 218.511719 453.664062 L 217.914062 455.109375 C 217.121094 457.136719 216.644531 459.234375 216.480469 461.40625 C 216.492188 461.652344 216.535156 461.894531 216.605469 462.128906 Z M 216.605469 462.128906 " fill-opacity="1" fill-rule="nonzero"/><path fill="#f7ce46" d="M 298.777344 398.902344 C 297.863281 386.628906 292.664062 374.214844 282.742188 366.898438 C 280.738281 365.503906 278.628906 364.300781 276.410156 363.289062 C 274.191406 362.277344 271.898438 361.472656 269.53125 360.875 C 267.167969 360.28125 264.765625 359.898438 262.332031 359.738281 C 259.898438 359.574219 257.46875 359.632812 255.046875 359.910156 C 250.1875 360.488281 245.457031 361.597656 240.851562 363.242188 C 236.246094 364.886719 231.882812 367.023438 227.757812 369.652344 C 211.515625 379.535156 198.597656 394.199219 188.375 410.234375 C 178.152344 426.269531 170.496094 443.734375 162.855469 461.136719 L 160.425781 467.433594 C 157.277344 477.753906 154.125 488.34375 154.378906 499.15625 C 154.628906 509.964844 158.664062 521.183594 167.296875 527.746094 C 169.839844 529.605469 172.523438 531.242188 175.34375 532.652344 C 178.164062 534.066406 181.078125 535.230469 184.09375 536.15625 C 187.109375 537.078125 190.183594 537.742188 193.308594 538.152344 C 196.4375 538.558594 199.574219 538.703125 202.726562 538.585938 C 214.382812 538.003906 226.359375 532.953125 236.488281 527.273438 C 246.269531 521.84375 252.242188 513.882812 258.179688 505.402344 C 265.734375 494.640625 272.429688 483.371094 278.265625 471.59375 C 284.105469 459.816406 289.019531 447.664062 293.011719 435.140625 C 296.824219 423.417969 299.691406 411.175781 298.777344 398.902344 Z M 254.019531 440.730469 C 251.171875 449.019531 247.109375 456.667969 241.828125 463.671875 C 239.859375 466.65625 237.324219 469.039062 234.21875 470.816406 C 230.535156 472.875 226.589844 474.101562 222.386719 474.496094 C 220.183594 474.582031 218.019531 474.320312 215.898438 473.714844 C 213.777344 473.109375 211.800781 472.191406 209.972656 470.957031 C 209.261719 470.40625 208.621094 469.78125 208.054688 469.082031 C 207.484375 468.386719 207.007812 467.632812 206.613281 466.820312 C 206.222656 466.011719 205.925781 465.167969 205.730469 464.289062 C 205.535156 463.414062 205.441406 462.523438 205.453125 461.625 C 205.558594 458.050781 206.269531 454.597656 207.578125 451.269531 L 208.429688 449.226562 C 210.957031 443.445312 213.933594 437.90625 217.363281 432.609375 C 220.933594 427.128906 225.527344 422.710938 231.148438 419.359375 C 234.105469 417.621094 237.292969 416.574219 240.710938 416.210938 C 242.410156 416.027344 244.09375 416.128906 245.757812 416.519531 C 247.421875 416.914062 248.976562 417.570312 250.414062 418.496094 C 251.238281 419.105469 251.984375 419.796875 252.65625 420.574219 C 253.328125 421.347656 253.90625 422.1875 254.394531 423.089844 C 254.878906 423.996094 255.261719 424.9375 255.539062 425.925781 C 255.816406 426.914062 255.984375 427.917969 256.039062 428.941406 C 256.171875 433.007812 255.5 436.9375 254.019531 440.730469 Z M 254.019531 440.730469 " fill-opacity="1" fill-rule="nonzero"/><path fill="#ed702e" d="M 434.578125 503.640625 C 432.542969 503.640625 430.417969 503.527344 427.898438 503.308594 C 415.984375 502.25 404.335938 499.890625 392.953125 496.226562 C 387.363281 494.417969 381.550781 492.074219 376.902344 487.148438 C 376.171875 486.375 375.566406 485.515625 375.085938 484.566406 C 374.605469 483.617188 374.269531 482.621094 374.078125 481.574219 C 373.886719 480.527344 373.847656 479.476562 373.960938 478.421875 C 374.074219 477.363281 374.335938 476.34375 374.742188 475.363281 L 375.074219 474.558594 C 392.5625 434.082031 407.546875 392.695312 420.019531 350.40625 C 420.027344 349.6875 420.101562 348.976562 420.246094 348.269531 C 420.394531 347.566406 420.605469 346.882812 420.886719 346.21875 C 421.167969 345.558594 421.507812 344.929688 421.910156 344.332031 C 422.316406 343.738281 422.773438 343.1875 423.285156 342.679688 C 423.792969 342.171875 424.351562 341.71875 424.949219 341.324219 C 425.550781 340.925781 426.183594 340.589844 426.847656 340.316406 C 427.515625 340.042969 428.203125 339.835938 428.90625 339.695312 C 429.613281 339.554688 430.328125 339.488281 431.046875 339.488281 C 431.65625 339.488281 432.257812 339.535156 432.859375 339.628906 C 440.5 340.90625 448.191406 341.539062 455.9375 341.53125 C 460.175781 341.53125 464.445312 341.34375 468.667969 340.949219 L 469.675781 340.949219 C 470.070312 340.949219 470.464844 340.96875 470.855469 341.011719 C 471.246094 341.054688 471.636719 341.117188 472.023438 341.203125 C 472.40625 341.285156 472.785156 341.390625 473.160156 341.511719 C 473.535156 341.636719 473.902344 341.78125 474.257812 341.945312 C 474.617188 342.109375 474.96875 342.289062 475.304688 342.492188 C 475.644531 342.691406 475.972656 342.910156 476.289062 343.148438 C 476.605469 343.382812 476.90625 343.636719 477.195312 343.902344 C 477.484375 344.171875 477.757812 344.453125 478.015625 344.753906 C 478.273438 345.050781 478.515625 345.359375 478.738281 345.683594 C 478.964844 346.007812 479.171875 346.34375 479.359375 346.6875 C 479.546875 347.035156 479.71875 347.386719 479.867188 347.753906 C 480.019531 348.117188 480.148438 348.488281 480.261719 348.863281 C 480.371094 349.242188 480.460938 349.625 480.53125 350.011719 C 480.601562 350.402344 480.652344 350.792969 480.679688 351.183594 C 480.707031 351.578125 480.714844 351.96875 480.699219 352.363281 C 480.683594 352.757812 480.648438 353.148438 480.59375 353.539062 L 480.355469 355.238281 C 480.28125 355.710938 480.183594 356.175781 480.058594 356.636719 C 471.6875 386.703125 460.613281 415.742188 446.832031 443.75 C 450.675781 443.257812 454.488281 442.605469 458.269531 441.796875 C 459.035156 441.636719 459.804688 441.554688 460.585938 441.546875 C 461.015625 441.546875 461.445312 441.570312 461.871094 441.621094 C 462.300781 441.671875 462.722656 441.746094 463.140625 441.847656 C 463.558594 441.945312 463.96875 442.070312 464.375 442.214844 C 464.777344 442.363281 465.171875 442.535156 465.554688 442.726562 C 465.9375 442.921875 466.308594 443.136719 466.667969 443.375 C 467.027344 443.609375 467.371094 443.867188 467.699219 444.144531 C 468.027344 444.421875 468.339844 444.71875 468.632812 445.03125 C 468.925781 445.34375 469.203125 445.671875 469.457031 446.019531 C 469.714844 446.363281 469.949219 446.722656 470.160156 447.097656 C 470.375 447.46875 470.566406 447.851562 470.734375 448.25 C 470.902344 448.644531 471.046875 449.046875 471.167969 449.460938 C 471.289062 449.871094 471.386719 450.289062 471.457031 450.710938 C 471.53125 451.136719 471.578125 451.5625 471.597656 451.992188 C 471.621094 452.421875 471.617188 452.847656 471.589844 453.277344 C 471.5625 453.707031 471.511719 454.132812 471.433594 454.554688 C 471.355469 454.976562 471.253906 455.394531 471.125 455.804688 L 460.097656 491.820312 C 459.660156 493.246094 458.960938 494.53125 458 495.671875 C 457.042969 496.8125 455.898438 497.722656 454.566406 498.398438 L 453.703125 498.839844 C 450.816406 500.550781 447.746094 501.816406 444.488281 502.632812 C 441.234375 503.449219 437.929688 503.785156 434.578125 503.640625 Z M 434.578125 503.640625 " fill-opacity="1" fill-rule="nonzero"/><path fill="#f7ce46" d="M 431.046875 350.5 L 431.410156 350.738281 C 418.679688 394.378906 403.292969 437.0625 385.25 478.792969 L 384.921875 479.578125 C 387.929688 482.726562 392.183594 484.394531 396.359375 485.746094 C 406.945312 489.140625 417.78125 491.316406 428.859375 492.277344 C 435.457031 492.859375 442.578125 492.859375 448.0625 489.132812 L 449.464844 488.40625 L 460.492188 452.386719 C 449.988281 454.644531 439.363281 455.726562 428.621094 455.628906 L 428.371094 455.140625 C 445.832031 422.800781 459.484375 388.925781 469.328125 353.523438 L 469.566406 351.839844 C 456.667969 353.039062 443.828125 352.59375 431.046875 350.5 Z M 431.046875 350.5 " fill-opacity="1" fill-rule="nonzero"/><g clip-path="url(#67a6cedfa4)"><path fill="#ed702e" d="M 512.875 442.695312 C 511.308594 442.695312 509.808594 442.375 508.378906 441.734375 C 506.949219 441.097656 505.710938 440.195312 504.664062 439.027344 C 501.78125 437.675781 498.746094 436.992188 495.558594 436.984375 C 494.503906 436.980469 493.453125 437.058594 492.410156 437.21875 C 491.847656 437.3125 491.277344 437.359375 490.707031 437.359375 C 489.816406 437.363281 488.941406 437.257812 488.078125 437.046875 C 487.214844 436.835938 486.386719 436.523438 485.597656 436.113281 C 484.808594 435.699219 484.082031 435.203125 483.414062 434.613281 C 482.746094 434.027344 482.15625 433.371094 481.648438 432.640625 L 481.160156 431.949219 C 480.429688 430.894531 479.902344 429.75 479.570312 428.511719 C 479.242188 427.273438 479.128906 426.015625 479.238281 424.742188 C 480.097656 414.835938 481.699219 405.046875 484.039062 395.382812 C 486.378906 385.714844 489.433594 376.28125 493.203125 367.078125 C 496.972656 357.871094 501.410156 349.003906 506.523438 340.46875 C 511.632812 331.9375 517.359375 323.835938 523.695312 316.167969 C 524.660156 315.007812 525.808594 314.085938 527.152344 313.402344 C 528.492188 312.714844 529.914062 312.320312 531.414062 312.214844 C 531.667969 312.199219 531.921875 312.199219 532.171875 312.214844 C 533.550781 312.214844 534.882812 312.460938 536.167969 312.957031 C 537.453125 313.457031 538.605469 314.167969 539.625 315.097656 C 544.449219 319.5 549.6875 323.339844 555.339844 326.617188 C 560.992188 329.894531 566.929688 332.539062 573.148438 334.546875 C 573.578125 334.683594 573.996094 334.847656 574.40625 335.035156 C 574.816406 335.226562 575.214844 335.441406 575.597656 335.679688 C 575.980469 335.914062 576.347656 336.175781 576.699219 336.460938 C 577.050781 336.742188 577.382812 337.046875 577.699219 337.371094 C 578.011719 337.695312 578.304688 338.035156 578.578125 338.394531 C 578.847656 338.757812 579.097656 339.132812 579.324219 339.523438 C 579.550781 339.914062 579.75 340.316406 579.925781 340.730469 C 580.105469 341.144531 580.253906 341.570312 580.378906 342.003906 C 580.503906 342.4375 580.597656 342.878906 580.667969 343.324219 C 580.738281 343.769531 580.78125 344.214844 580.796875 344.667969 C 580.8125 345.117188 580.800781 345.566406 580.757812 346.015625 C 580.71875 346.464844 580.652344 346.910156 580.554688 347.351562 C 580.460938 347.792969 580.339844 348.226562 580.191406 348.652344 C 580.042969 349.078125 579.867188 349.496094 579.667969 349.898438 C 579.46875 350.304688 579.246094 350.695312 579 351.070312 C 578.75 351.449219 578.480469 351.808594 578.1875 352.152344 C 556.238281 378.015625 537.753906 406.152344 522.734375 436.558594 C 522.324219 437.390625 521.816406 438.15625 521.214844 438.859375 C 520.609375 439.5625 519.925781 440.179688 519.167969 440.710938 C 518.40625 441.238281 517.59375 441.667969 516.722656 441.992188 C 515.855469 442.320312 514.960938 442.53125 514.039062 442.632812 C 513.660156 442.664062 513.265625 442.695312 512.875 442.695312 Z M 512.875 442.695312 " fill-opacity="1" fill-rule="nonzero"/></g><path fill="#f7ce46" d="M 532.203125 323.230469 C 526.222656 330.464844 520.820312 338.105469 515.996094 346.15625 C 511.171875 354.207031 506.984375 362.574219 503.425781 371.253906 C 499.871094 379.9375 496.988281 388.839844 494.78125 397.957031 C 492.570312 407.074219 491.0625 416.308594 490.25 425.652344 L 490.738281 426.347656 C 494.378906 425.789062 498.007812 425.851562 501.625 426.539062 C 505.242188 427.230469 508.640625 428.503906 511.816406 430.359375 L 512.875 431.679688 C 528.296875 400.46875 547.273438 371.589844 569.808594 345.039062 C 562.832031 342.792969 556.171875 339.828125 549.832031 336.152344 C 543.492188 332.476562 537.617188 328.167969 532.203125 323.230469 Z M 532.203125 323.230469 " fill-opacity="1" fill-rule="nonzero"/><path fill="#ed702e" d="M 487.351562 490.359375 C 486.40625 490.359375 485.460938 490.359375 484.53125 490.234375 C 481.550781 490.007812 478.695312 489.277344 475.96875 488.046875 C 473.242188 486.816406 470.808594 485.160156 468.667969 483.074219 C 467.890625 482.226562 467.171875 481.328125 466.519531 480.378906 C 465.867188 479.429688 465.285156 478.441406 464.769531 477.410156 C 464.257812 476.378906 463.816406 475.316406 463.453125 474.226562 C 463.089844 473.132812 462.800781 472.019531 462.59375 470.890625 C 462.386719 469.757812 462.257812 468.617188 462.210938 467.464844 C 462.164062 466.316406 462.195312 465.167969 462.3125 464.023438 C 462.425781 462.875 462.617188 461.746094 462.890625 460.625 C 463.164062 459.507812 463.515625 458.414062 463.941406 457.34375 C 464.613281 455.5625 465.453125 453.859375 466.464844 452.242188 C 467.472656 450.625 468.632812 449.121094 469.941406 447.734375 C 471.25 446.347656 472.683594 445.105469 474.242188 444 C 475.796875 442.898438 477.449219 441.960938 479.191406 441.183594 C 482.800781 439.609375 486.578125 438.832031 490.519531 438.855469 C 494.050781 438.867188 497.492188 439.441406 500.835938 440.570312 C 506.414062 442.445312 513.441406 447.085938 516.78125 454.496094 C 519.082031 459.753906 518.84375 465.652344 516.039062 472.011719 C 515.414062 473.371094 514.695312 474.683594 513.882812 475.941406 C 513.070312 477.203125 512.171875 478.398438 511.1875 479.527344 C 510.203125 480.660156 509.144531 481.714844 508.007812 482.695312 C 506.875 483.675781 505.675781 484.570312 504.414062 485.378906 C 503.148438 486.1875 501.835938 486.902344 500.46875 487.523438 C 499.105469 488.144531 497.703125 488.667969 496.265625 489.089844 C 494.824219 489.507812 493.363281 489.828125 491.878906 490.039062 C 490.390625 490.253906 488.898438 490.359375 487.398438 490.359375 Z M 487.351562 490.359375 " fill-opacity="1" fill-rule="nonzero"/><path fill="#f7ce46" d="M 497.277344 451.019531 C 495.0625 450.210938 492.777344 449.828125 490.417969 449.867188 C 488.058594 449.910156 485.789062 450.371094 483.601562 451.253906 C 481.441406 452.226562 479.546875 453.570312 477.921875 455.296875 C 476.300781 457.019531 475.066406 458.988281 474.230469 461.199219 C 472.464844 465.921875 473.015625 471.757812 476.5625 475.363281 C 477.789062 476.519531 479.175781 477.433594 480.722656 478.105469 C 482.269531 478.773438 483.886719 479.160156 485.570312 479.265625 C 486.609375 479.351562 487.648438 479.359375 488.6875 479.292969 C 489.726562 479.222656 490.753906 479.074219 491.769531 478.847656 C 492.785156 478.621094 493.78125 478.320312 494.75 477.945312 C 495.722656 477.566406 496.660156 477.121094 497.5625 476.601562 C 498.464844 476.082031 499.320312 475.5 500.136719 474.851562 C 500.949219 474.199219 501.710938 473.496094 502.417969 472.730469 C 503.125 471.964844 503.769531 471.152344 504.351562 470.292969 C 504.933594 469.429688 505.449219 468.527344 505.894531 467.589844 C 507.109375 464.804688 507.847656 461.703125 506.636719 458.933594 C 504.777344 454.765625 500.144531 451.980469 497.277344 451.019531 Z M 497.277344 451.019531 " fill-opacity="1" fill-rule="nonzero"/><path fill="#ed702e" d="M 333.800781 525.226562 C 333.351562 525.226562 332.90625 525.203125 332.460938 525.148438 C 332.019531 525.09375 331.578125 525.011719 331.144531 524.90625 C 330.710938 524.796875 330.285156 524.664062 329.867188 524.503906 C 329.449219 524.347656 329.042969 524.164062 328.648438 523.953125 C 328.253906 523.746094 327.871094 523.511719 327.503906 523.257812 C 327.136719 523.003906 326.785156 522.726562 326.453125 522.429688 C 326.121094 522.132812 325.804688 521.816406 325.511719 521.480469 C 325.214844 521.144531 324.941406 520.792969 324.691406 520.425781 C 324.4375 520.054688 324.207031 519.671875 324.003906 519.277344 C 323.796875 518.878906 323.617188 518.472656 323.460938 518.054688 C 323.304688 517.632812 323.175781 517.207031 323.070312 516.773438 C 322.96875 516.339844 322.890625 515.898438 322.839844 515.457031 C 322.789062 515.011719 322.765625 514.566406 322.769531 514.121094 C 322.773438 513.675781 322.804688 513.230469 322.863281 512.785156 C 322.921875 512.34375 323.003906 511.90625 323.117188 511.472656 C 323.226562 511.039062 323.363281 510.617188 323.527344 510.199219 C 324.015625 508.925781 324.503906 507.652344 324.960938 506.378906 C 324.023438 506.785156 323.046875 507.058594 322.03125 507.195312 C 307.0625 509.253906 292.105469 509.152344 277.164062 506.894531 C 276.707031 506.828125 276.253906 506.730469 275.804688 506.601562 C 275.359375 506.476562 274.921875 506.324219 274.496094 506.140625 C 274.070312 505.960938 273.65625 505.753906 273.253906 505.519531 C 272.851562 505.285156 272.46875 505.027344 272.101562 504.746094 C 271.730469 504.464844 271.382812 504.160156 271.054688 503.835938 C 270.722656 503.507812 270.414062 503.164062 270.128906 502.800781 C 269.84375 502.433594 269.582031 502.054688 269.34375 501.65625 C 269.105469 501.257812 268.890625 500.847656 268.707031 500.421875 C 268.519531 499.996094 268.363281 499.5625 268.230469 499.117188 C 268.097656 498.675781 267.996094 498.222656 267.921875 497.765625 C 267.847656 497.308594 267.804688 496.847656 267.789062 496.382812 C 267.769531 495.921875 267.785156 495.457031 267.828125 494.996094 C 267.871094 494.535156 267.941406 494.078125 268.039062 493.625 C 268.140625 493.171875 268.269531 492.730469 268.425781 492.292969 C 268.582031 491.855469 268.765625 491.433594 268.976562 491.019531 C 269.183594 490.605469 269.421875 490.207031 269.679688 489.824219 C 282.734375 470.605469 294.328125 450.546875 304.464844 429.648438 C 314.605469 408.75 323.179688 387.230469 330.191406 365.089844 C 330.226562 364.390625 330.332031 363.699219 330.5 363.023438 C 330.667969 362.34375 330.898438 361.6875 331.191406 361.050781 C 331.484375 360.417969 331.835938 359.816406 332.246094 359.246094 C 332.652344 358.679688 333.113281 358.152344 333.621094 357.671875 C 334.128906 357.191406 334.679688 356.761719 335.269531 356.386719 C 335.859375 356.011719 336.480469 355.691406 337.128906 355.433594 C 337.78125 355.175781 338.449219 354.980469 339.136719 354.851562 C 339.824219 354.71875 340.519531 354.65625 341.21875 354.65625 L 396.75 355.945312 L 396.832031 355.945312 C 397.769531 355.683594 398.722656 355.550781 399.699219 355.550781 C 400.101562 355.550781 400.507812 355.574219 400.910156 355.617188 C 401.316406 355.664062 401.714844 355.730469 402.109375 355.820312 C 402.507812 355.90625 402.898438 356.019531 403.28125 356.148438 C 403.664062 356.28125 404.039062 356.433594 404.40625 356.605469 C 404.773438 356.78125 405.132812 356.972656 405.476562 357.183594 C 405.824219 357.398438 406.15625 357.628906 406.476562 357.878906 C 406.796875 358.125 407.101562 358.390625 407.390625 358.675781 C 407.683594 358.957031 407.957031 359.253906 408.214844 359.570312 C 408.472656 359.882812 408.714844 360.207031 408.933594 360.546875 C 409.15625 360.886719 409.359375 361.238281 409.542969 361.601562 C 409.726562 361.960938 409.886719 362.332031 410.03125 362.710938 C 410.171875 363.09375 410.292969 363.480469 410.390625 363.871094 C 410.492188 364.265625 410.570312 364.664062 410.625 365.0625 C 410.679688 365.464844 410.710938 365.871094 410.722656 366.273438 C 410.734375 366.679688 410.722656 367.085938 410.6875 367.488281 C 410.65625 367.894531 410.597656 368.292969 410.519531 368.691406 L 382.164062 513.457031 C 381.914062 514.726562 381.457031 515.917969 380.789062 517.027344 C 380.117188 518.136719 379.28125 519.097656 378.273438 519.910156 L 377.800781 520.289062 C 375.988281 521.757812 373.921875 522.5625 371.59375 522.710938 L 334.617188 525.179688 Z M 333.800781 525.226562 " fill-opacity="1" fill-rule="nonzero"/><path fill="#f7ce46" d="M 398.074219 366.992188 L 341.203125 365.671875 L 341.359375 366.332031 C 334.171875 389.355469 325.335938 411.734375 314.855469 433.460938 C 304.375 455.191406 292.363281 476.039062 278.816406 496.007812 C 292.710938 498.109375 306.613281 498.207031 320.535156 496.289062 L 320.945312 496.039062 C 324.800781 486.683594 330.167969 478.289062 337.042969 470.863281 L 337.359375 470.957031 L 343.660156 471.523438 L 343.753906 471.523438 C 342.46875 486.277344 339.128906 500.554688 333.734375 514.355469 L 370.710938 511.882812 L 371.199219 511.492188 C 380.652344 463.234375 390.101562 414.980469 399.554688 366.722656 Z M 350.074219 450.296875 L 343.660156 450.296875 L 359.414062 415.238281 Z M 350.074219 450.296875 " fill-opacity="1" fill-rule="nonzero"/><g fill="#ffffff" fill-opacity="1"><g transform="translate(523.441688, 23.536218)"><g><path d="M 11.515625 -11.765625 L 11.515625 -10.640625 L 9.34375 -10.375 C 9.539062 -10.125 9.71875 -9.796875 9.875 -9.390625 C 10.03125 -8.992188 10.109375 -8.539062 10.109375 -8.03125 C 10.109375 -6.875 9.710938 -5.953125 8.921875 -5.265625 C 8.140625 -4.578125 7.0625 -4.234375 5.6875 -4.234375 C 5.332031 -4.234375 5.003906 -4.265625 4.703125 -4.328125 C 3.941406 -3.921875 3.5625 -3.414062 3.5625 -2.8125 C 3.5625 -2.488281 3.691406 -2.25 3.953125 -2.09375 C 4.222656 -1.945312 4.679688 -1.875 5.328125 -1.875 L 7.40625 -1.875 C 8.675781 -1.875 9.65625 -1.601562 10.34375 -1.0625 C 11.03125 -0.519531 11.375 0.257812 11.375 1.28125 C 11.375 2.582031 10.847656 3.570312 9.796875 4.25 C 8.753906 4.9375 7.234375 5.28125 5.234375 5.28125 C 3.691406 5.28125 2.503906 4.992188 1.671875 4.421875 C 0.835938 3.847656 0.421875 3.039062 0.421875 2 C 0.421875 1.28125 0.648438 0.660156 1.109375 0.140625 C 1.566406 -0.378906 2.207031 -0.734375 3.03125 -0.921875 C 2.738281 -1.054688 2.488281 -1.265625 2.28125 -1.546875 C 2.070312 -1.835938 1.96875 -2.175781 1.96875 -2.5625 C 1.96875 -2.988281 2.082031 -3.363281 2.3125 -3.6875 C 2.539062 -4.007812 2.90625 -4.316406 3.40625 -4.609375 C 2.789062 -4.859375 2.289062 -5.285156 1.90625 -5.890625 C 1.53125 -6.492188 1.34375 -7.179688 1.34375 -7.953125 C 1.34375 -9.242188 1.726562 -10.238281 2.5 -10.9375 C 3.269531 -11.632812 4.363281 -11.984375 5.78125 -11.984375 C 6.394531 -11.984375 6.953125 -11.910156 7.453125 -11.765625 Z M 2.140625 1.96875 C 2.140625 2.613281 2.40625 3.097656 2.9375 3.421875 C 3.476562 3.753906 4.25 3.921875 5.25 3.921875 C 6.75 3.921875 7.859375 3.695312 8.578125 3.25 C 9.296875 2.800781 9.65625 2.191406 9.65625 1.421875 C 9.65625 0.785156 9.457031 0.34375 9.0625 0.09375 C 8.664062 -0.144531 7.925781 -0.265625 6.84375 -0.265625 L 4.703125 -0.265625 C 3.890625 -0.265625 3.257812 -0.0703125 2.8125 0.3125 C 2.363281 0.695312 2.140625 1.25 2.140625 1.96875 Z M 3.109375 -8 C 3.109375 -7.175781 3.335938 -6.550781 3.796875 -6.125 C 4.265625 -5.707031 4.914062 -5.5 5.75 -5.5 C 7.476562 -5.5 8.34375 -6.34375 8.34375 -8.03125 C 8.34375 -9.800781 7.460938 -10.6875 5.703125 -10.6875 C 4.867188 -10.6875 4.226562 -10.457031 3.78125 -10 C 3.332031 -9.550781 3.109375 -8.882812 3.109375 -8 Z M 3.109375 -8 "/></g></g></g></g></g></g></svg>