<svg width="150" height="150" viewBox="0 0 150 150" fill="none" xmlns="http://www.w3.org/2000/svg">
<circle cx="75.0271" cy="83.0834" r="56.8912" fill="#FE6262"/>
<path d="M128.774 76.2422C128.774 106.134 104.668 130.366 74.9316 130.366C45.1951 130.366 21.0889 106.134 21.0889 76.2422C21.0889 46.3503 45.1951 22.1182 74.9316 22.1182C104.668 22.1182 128.774 46.3503 128.774 76.2422Z" fill="#CE391D"/>
<path d="M75.7629 19.8049C106.844 20.1989 131.918 45.5173 131.918 76.6917L131.913 77.427C131.519 108.508 106.202 133.582 75.0275 133.582L74.2922 133.577C43.4557 133.187 18.5316 108.263 18.1408 77.427L18.1359 76.6917C18.1362 45.2717 43.6076 19.8001 75.0275 19.8L75.7629 19.8049ZM75.0275 26.1926C47.1379 26.1927 24.5288 48.8021 24.5285 76.6917C24.5287 104.581 47.1379 127.191 75.0275 127.191C102.917 127.19 125.526 104.581 125.527 76.6917C125.526 48.8022 102.917 26.1928 75.0275 26.1926Z" fill="#FFA5A5"/>
<path d="M71.2187 82.192C69.4825 78.7691 71.0687 74.7146 74.1646 72.6119L122.348 39.8853C125.927 37.4546 130.478 39.0796 131.274 43.5462C133.436 55.6728 133.572 78.0824 109.255 89.6232C85.2591 101.012 75.141 89.9251 71.2187 82.192Z" fill="#57CC03"/>
<path d="M81.6231 80.9774C82.5167 76.7193 79.1458 73.1323 74.809 72.6886L11.1974 66.1805C6.23236 65.6726 2.10993 69.6486 3.23434 74.5273C6.22177 87.4895 15.4869 109.277 43.9738 108.071C71.9125 106.888 79.5624 90.7972 81.6231 80.9774Z" fill="#57CC03"/>
<path d="M111.824 37.5385C119.513 54.8199 121.067 73.0819 120.238 86.6314C119.41 100.181 112.379 123.509 87.5277 127.005C53.7856 131.751 40.1562 117.79 31.9561 89.2211C25.6889 67.386 17.6793 50.0174 27.6797 36.1395C35.0067 25.9715 47.9325 25.4639 63.7259 27.1088C68.8442 27.6418 71.0844 19.5391 80.475 17.6606C89.8655 15.7822 104.134 20.2572 111.824 37.5385Z" fill="#57CC03"/>
<path d="M90.1147 45.4883C85.1513 60.5605 73.2574 57.6938 61.2731 50.2605C59.448 49.1285 56.5089 46.718 54.3423 46.3789C51.2119 45.889 50.1028 51.0707 51.7222 54.7941C51.2581 54.481 50.8084 54.1036 50.3618 53.7287C49.0037 52.5889 47.6747 51.4734 46.0617 52.2675C43.9182 53.3229 44.1581 57.6838 46.4057 60.573C43.3341 63.0962 38.9841 66.7945 41.2894 78.7826C43.5948 90.7707 51.3954 103.755 63.2377 102.993C75.08 102.231 81.0478 93.8269 81.0127 87.8234L92.4958 85.0491C93.9836 87.6028 98.1993 92.0717 106.813 90.4692C115.426 88.8666 122.071 81.6936 119.007 65.1267C116.337 50.6921 110.961 48.2314 108.496 47.1035C108.132 46.9368 107.612 46.6565 107.612 46.6565C107.828 42.3859 104.848 38.9059 103.121 39.0376C101.394 39.1693 101.077 44.8733 101.077 44.8733C101.077 44.8733 97.8082 35.6016 93.7525 36.0261C91.5055 36.2149 91.5139 41.2391 90.1147 45.4883Z" fill="#87E202"/>
<path d="M88.0885 108.129C87.8149 106.967 79.6195 107.81 76.5854 108.74C73.7606 109.606 77.0331 113.582 81.9685 112.982C85.7974 112.517 88.2695 108.898 88.0885 108.129Z" fill="#87E202"/>
<path d="M95.7672 111.569C97.1711 110.86 97.9501 111.051 98.1496 111.898C98.4816 113.309 96.3404 116.2 92.658 117.03C89.2011 117.809 86.5583 116.511 86.3258 115.523C86.1396 114.732 86.755 114.266 87.2219 114.188C89.6986 113.776 94.5142 112.202 95.7672 111.569ZM93.5631 105.951C93.2896 104.789 100.967 100.766 104.084 99.8108C106.986 98.9211 104.649 106.041 100.009 107.464C95.6025 108.815 93.7442 106.72 93.5631 105.951Z" fill="#87E202"/>
<path d="M90.4534 70.11C88.1705 59.063 92.4902 53.3674 99.1694 51.9204C105.849 50.4734 112.027 53.2387 114.251 64.7694C116.475 76.3001 111.965 82.2071 105.286 83.6541C98.6064 85.1011 92.7363 81.157 90.4534 70.11Z" fill="white"/>
<path d="M75.8631 73.9026C72.5304 62.4145 64.172 59.5601 56.97 61.6178C49.768 63.6755 44.6965 69.8103 48.3406 81.716C51.9847 93.6217 59.9832 97.0753 67.4277 94.4471C74.8722 91.8189 79.1958 85.3907 75.8631 73.9026Z" fill="white"/>
<path d="M92.1954 82.7517C91.6927 79.5405 88.6293 77.3708 85.353 77.9055C82.0768 78.4403 79.8284 81.477 80.3311 84.6883L80.6464 86.7026C81.1491 89.9138 84.2126 92.0835 87.4888 91.5487C90.7651 91.0139 93.0135 87.9772 92.5108 84.766L92.1954 82.7517Z" fill="#F37202"/>
<path d="M80.2893 87.1367C79.3868 87.1125 78.6861 86.366 78.8432 85.475C79.2227 83.3223 80.3968 79.6174 84.0224 78.1464C88.3677 76.3833 91.8623 79.2953 93.3507 80.8792C93.8422 81.4022 93.8353 82.1908 93.4045 82.7694L90.4754 86.7033C90.1521 87.1374 89.6384 87.3874 89.0991 87.3729L80.2893 87.1367Z" fill="url(#paint0_linear_508_7982)"/>
<path fill-rule="evenodd" clip-rule="evenodd" d="M57.3321 63.4565C62.916 61.5087 69.5726 63.4792 72.5753 72.6184C75.5779 81.7575 72.4127 87.8837 66.4105 89.9784C60.4084 92.0731 54.4961 89.4845 51.2349 80.0208C47.974 70.5573 51.7484 65.4043 57.3321 63.4565Z" fill="#414141"/>
<path fill-rule="evenodd" clip-rule="evenodd" d="M96.0338 53.8739C101.675 52.6693 106.888 54.9451 108.749 64.4657C110.61 73.9858 106.794 78.8709 101.153 80.076C97.6654 80.8208 94.4437 79.8612 92.0387 76.866C91.1079 75.0186 90.3461 72.7914 89.7946 70.16C88.3334 63.1883 89.5585 58.3455 92.3786 55.3543C93.4513 54.6531 94.6852 54.1619 96.0338 53.8739Z" fill="#414141"/>
<path d="M64.6076 80.1463C65.3579 78.3128 67.4512 77.4327 69.2827 78.18C71.1143 78.9273 71.9914 81.0197 71.2411 82.8532C70.0596 85.7406 67.7625 87.4596 65.1695 87.9595C62.7316 88.4294 60.2454 87.7928 58.3446 86.515C56.7031 85.4116 56.2689 83.1843 57.3748 81.5403C58.4807 79.8963 60.7081 79.4581 62.3496 80.5615C62.8477 80.8964 63.4331 80.994 63.8253 80.9184C63.9953 80.8855 64.1155 80.8252 64.2104 80.7478C64.3011 80.6737 64.4583 80.5109 64.6076 80.1463Z" fill="#164F6C"/>
<path d="M100.305 70.2175C101.167 68.4355 103.312 67.6899 105.093 68.5519C106.875 69.414 107.62 71.558 106.757 73.3401C105.431 76.0798 103.124 77.3842 100.919 77.7705C98.8852 78.1267 96.9244 77.7265 95.5992 77.1559C93.7815 76.3732 92.9426 74.2648 93.7256 72.4466C94.5089 70.6283 96.6183 69.7886 98.4364 70.5714C98.5195 70.6071 98.7172 70.6732 98.9838 70.7103C99.2454 70.7467 99.4888 70.743 99.684 70.7089C99.8708 70.6762 99.9757 70.6232 100.034 70.5817C100.079 70.55 100.184 70.4664 100.305 70.2175Z" fill="#164F6C"/>
<path d="M55.0893 64.4775C57.2197 65.3656 58.719 67.4828 58.7192 69.9541C58.7192 73.2257 56.0919 75.8779 52.851 75.8779C51.861 75.8779 50.9289 75.6294 50.1108 75.1924C49.5512 69.8711 51.7437 66.4134 55.0893 64.4775Z" fill="white"/>
<path fill-rule="evenodd" clip-rule="evenodd" d="M94.0885 54.4648C95.7557 55.5097 96.8668 57.3733 96.8668 59.5C96.8667 62.7715 94.2395 65.4238 90.9986 65.4238C90.3641 65.4238 89.7536 65.3199 89.1812 65.1318C89.0827 60.7853 90.2952 57.5622 92.3805 55.3516C92.9119 55.0044 93.4834 54.7095 94.0885 54.4648Z" fill="white"/>
<path d="M83.825 81.218C84.8723 79.9685 86.4361 80.312 86.4361 80.312" stroke="#FFDE00" stroke-width="3.30873" stroke-linecap="round"/>
<path opacity="0.72" d="M77.4379 37.0133C78.5881 35.387 80.6225 34.8229 82.2337 35.984C85.0622 38.0036 83.3721 43.7837 79.2971 45.9815C74.6218 48.5031 68.4522 46.8084 68.5556 42.9085C68.5669 40.9102 70.1603 39.5237 72.1398 39.535C73.0826 39.5404 73.8659 39.488 74.7359 39.1878C75.5262 38.9152 76.4847 38.361 77.4379 37.0133Z" fill="#CE391D"/>
<path opacity="0.72" d="M72.8544 29.6111C77.6207 25.7911 84.9284 31.0992 82.9696 33.2067C81.6412 34.636 79.4488 33.389 77.669 34.6617C76.5054 35.4937 75.8698 36.7005 74.6584 37.4598C73.1236 38.4219 71.759 37.632 70.1059 38.3678C68.1101 39.2562 67.5817 42.0682 65.6586 42.3385C62.8233 42.7368 62.5893 33.6168 68.4303 31.8921C69.4307 31.5968 70.3323 31.5518 71.1418 31.6845C71.5023 30.9556 72.0535 30.253 72.8544 29.6111Z" fill="#CE391D"/>
<path d="M29.3594 64.6721C30.2663 64.782 30.9124 65.606 30.8027 66.5129C30.6928 67.4198 29.8688 68.066 28.9619 67.9563L25.6602 67.5559C25.3121 66.3895 24.9785 65.2384 24.6631 64.1028L29.3594 64.6721Z" fill="#379918"/>
<path d="M61.6981 74.2937C61.8094 73.544 62.7838 73.322 63.2033 73.9509L64.4507 75.8209C64.5844 76.0213 64.7991 76.153 65.0384 76.1813L67.239 76.442C68.0112 76.5334 68.2376 77.546 67.5791 77.9633L65.7026 79.1527C65.4985 79.282 65.3607 79.494 65.3252 79.733L64.9942 81.9625C64.8829 82.7123 63.9085 82.9342 63.489 82.3054L62.2416 80.4354C62.1079 80.2349 61.8933 80.1033 61.654 80.0749L59.4533 79.8143C58.6811 79.7228 58.4548 78.7103 59.1132 78.2929L60.9897 77.1036C61.1938 76.9742 61.3317 76.7623 61.3671 76.5233L61.6981 74.2937Z" fill="white"/>
<path d="M97.851 64.4455C97.9862 63.6765 99.0116 63.5022 99.3888 64.1841L100.429 66.0635C100.545 66.2744 100.748 66.4236 100.984 66.4718L103.126 66.9099C103.866 67.0611 104.03 68.0441 103.38 68.4314L101.498 69.5536C101.291 69.6773 101.148 69.8853 101.106 70.1232L100.733 72.2427C100.598 73.0117 99.5727 73.186 99.1955 72.5041L98.1558 70.6247C98.0391 70.4138 97.8361 70.2646 97.6 70.2163L95.4579 69.7783C94.7186 69.6271 94.5546 68.644 95.2041 68.2567L97.0859 67.1346C97.2933 67.0109 97.4367 66.8029 97.4785 66.565L97.851 64.4455Z" fill="white"/>
<path fill-rule="evenodd" clip-rule="evenodd" d="M122.067 108.699H114.089C104.828 119.988 90.769 127.19 75.028 127.19C59.2867 127.19 45.2277 119.988 35.9664 108.699H27.9881C38.1003 123.531 55.0447 133.333 74.2926 133.577L75.028 133.582C94.579 133.582 111.826 123.72 122.067 108.699Z" fill="#FFA5A5"/>
<defs>
<linearGradient id="paint0_linear_508_7982" x1="85.3722" y1="77.2442" x2="79.7969" y2="87.4047" gradientUnits="userSpaceOnUse">
<stop stop-color="#FFC535"/>
<stop offset="1" stop-color="#FF9C27"/>
</linearGradient>
</defs>
</svg>
