<svg width="150" height="150" viewBox="0 0 150 150" fill="none" xmlns="http://www.w3.org/2000/svg">
<circle cx="74.5982" cy="82.8883" r="53.6951" stroke="#FDAD02" stroke-width="6.39227"/>
<path d="M128.346 76.0459C128.346 105.938 104.239 130.17 74.5029 130.17C44.7664 130.17 20.6602 105.938 20.6602 76.0459C20.6602 46.154 44.7664 21.9219 74.5029 21.9219C104.239 21.9219 128.346 46.154 128.346 76.0459Z" fill="#FEF1CB"/>
<path d="M75.334 19.6094C106.415 20.0033 131.489 45.3216 131.489 76.4961L131.484 77.2314C131.09 108.312 105.773 133.387 74.5986 133.387L73.8633 133.382C43.0267 132.991 18.1027 108.068 17.7119 77.2314L17.707 76.4961C17.707 45.0759 43.1785 19.6045 74.5986 19.6045L75.334 19.6094ZM74.5986 25.9971C46.7088 25.9971 24.0996 48.6063 24.0996 76.4961C24.0998 104.386 46.709 126.995 74.5986 126.995C102.488 126.995 125.097 104.386 125.098 76.4961C125.098 48.6064 102.488 25.9973 74.5986 25.9971Z" fill="#FBE56D"/>
<path d="M62.6338 107.294H85.5141V118.202L62.6338 118.202V107.294Z" fill="#FDB02A"/>
<path d="M77.8989 114.481C85.9326 114.481 92.4996 120.757 92.9653 128.674H55.1235C55.5892 120.758 62.1554 114.481 70.189 114.481H77.8989Z" fill="#FDB02A"/>
<path d="M53.4574 76.3799C52.7988 80.0644 49.278 82.5174 45.5934 81.8587C41.9089 81.2001 39.4559 77.6792 40.1145 73.9947C40.7732 70.3102 44.294 67.8572 47.9786 68.5158C51.6631 69.1745 54.1161 72.6953 53.4574 76.3799Z" fill="#A46648"/>
<path d="M112.533 86.9399C111.874 90.6245 108.354 93.0774 104.669 92.4188C100.985 91.7601 98.5316 88.2393 99.1902 84.5547C99.8489 80.8702 103.37 78.4172 107.054 79.0759C110.739 79.7345 113.192 83.2554 112.533 86.9399Z" fill="#A46648"/>
<path d="M67.1919 56.0303C60.3595 60.5549 51.1528 58.6839 46.6282 51.8515L42.7037 45.925C38.1791 39.0926 40.05 29.8859 46.8825 25.3613L53.5093 20.973C60.3418 16.4484 69.5485 18.3193 74.073 25.1518L77.9976 31.0782C82.5221 37.9107 80.6512 47.1174 73.8187 51.6419L67.1919 56.0303Z" fill="#3D3D3D"/>
<path d="M95.1703 61.0341C100.012 67.6455 109.297 69.0801 115.908 64.2383L121.643 60.0385C128.254 55.1967 129.689 45.912 124.847 39.3006L120.151 32.8881C115.309 26.2767 106.025 24.8421 99.4132 29.6839L93.6784 33.8837C87.067 38.7255 85.6324 48.0102 90.4742 54.6216L95.1703 61.0341Z" fill="#3D3D3D"/>
<path d="M67.18 22.107C68.622 14.0401 76.3306 8.6695 84.3975 10.1115L94.9315 11.9946C102.998 13.4366 108.369 21.1452 106.927 29.2122L102.297 55.115C100.855 63.1819 93.146 68.5525 85.079 67.1105L74.5451 65.2274C66.4781 63.7854 61.1076 56.0768 62.5496 48.0098L67.18 22.107Z" fill="#3D3D3D"/>
<path d="M98.7583 60.7948C104.938 61.8994 109.052 67.8043 107.947 73.9838L102.966 101.849C101.668 109.11 94.7297 113.944 87.4688 112.646L54.9371 106.831C47.6762 105.533 42.8423 98.5943 44.1403 91.3335L49.1215 63.4682C50.2261 57.2887 56.131 53.1748 62.3105 54.2794L98.7583 60.7948Z" fill="#A46648"/>
<path d="M71.0271 86.3288C71.2756 84.9386 72.6041 84.013 73.9944 84.2615L76.1142 84.6405C77.5045 84.889 78.43 86.2175 78.1815 87.6078C77.933 88.998 76.6045 89.9236 75.2142 89.6751L73.0944 89.2961C71.7041 89.0476 70.7785 87.7191 71.0271 86.3288Z" fill="#86401F"/>
<path d="M72.5761 85.9904C72.2171 87.3144 72.9993 88.6788 74.3233 89.0378C75.6474 89.3969 77.0118 88.6147 77.3708 87.2906C77.7299 85.9666 76.2653 82.2724 76.1654 82.2454C76.0655 82.2183 72.9352 84.6663 72.5761 85.9904Z" fill="#86401F"/>
<path d="M71.192 89.5673C69.3808 84.811 63.379 82.0967 57.1308 82.6212L57.6524 87.1469C63.1391 89.3316 72.6343 93.3549 71.192 89.5673Z" fill="#A46648"/>
<path d="M58.2231 78.4302C61.1335 72.2359 72.5671 73.7845 72.6188 81.2459" stroke="#86401F" stroke-width="2.54133" stroke-linecap="round"/>
<path d="M93.9288 83.3537C92.8516 76.3926 81.4082 74.8608 79.2794 82.2886" stroke="#86401F" stroke-width="2.54133" stroke-linecap="round"/>
<path d="M91.216 72.7347C91.0543 68.3871 85.8436 66.7905 83.2451 70.4733" stroke="#86401F" stroke-width="2.54133" stroke-linecap="round"/>
<path d="M65.1632 68.1995C66.9712 64.7088 72.3925 65.0535 73.3872 68.8742" stroke="#86401F" stroke-width="2.54133" stroke-linecap="round"/>
<path d="M76.08 97.5622C80.4574 98.1269 83.9875 96.2912 85.7983 92.6901" stroke="white" stroke-width="11.436" stroke-linecap="round"/>
<path d="M78.0542 95.0908L78.7898 99.5118" stroke="#E5E5E5" stroke-width="1.906" stroke-linecap="round"/>
<path d="M83.0874 92.8936L85.9615 96.0801" stroke="#E5E5E5" stroke-width="1.906" stroke-linecap="round"/>
<rect x="95.0669" y="40.3335" width="9.31753" height="15.9861" rx="4.65877" transform="rotate(40.0609 95.0669 40.3335)" fill="#FE9B02"/>
<rect x="103.677" y="55.0127" width="9.31753" height="15.9861" rx="4.65877" transform="rotate(124.343 103.677 55.0127)" fill="#FE9B02"/>
<rect width="9.31753" height="15.9861" rx="4.65877" transform="matrix(0.999555 -0.0298171 -0.0298171 -0.999555 85.478 66.4004)" fill="#FE9B02"/>
<rect width="9.31753" height="15.9861" rx="4.65877" transform="matrix(-0.71665 0.697433 0.697433 0.71665 85.6714 39.8706)" fill="#FE9B02"/>
<rect x="77.7129" y="59.5889" width="9.31753" height="15.9861" rx="4.65877" transform="rotate(-98.1695 77.7129 59.5889)" fill="#FE9B02"/>
<circle cx="90.4683" cy="52.9001" r="3.97855" transform="rotate(40.0609 90.4683 52.9001)" fill="#FE9B02"/>
<rect x="60.4775" y="37.4507" width="9.31753" height="15.9861" rx="4.65877" transform="rotate(14.4151 60.4775 37.4507)" fill="#FE9B02"/>
<rect x="74.5942" y="46.9561" width="9.31753" height="15.9861" rx="4.65877" transform="rotate(98.6975 74.5942 46.9561)" fill="#FE9B02"/>
<rect width="9.31753" height="15.9861" rx="4.65877" transform="matrix(0.888181 -0.459494 -0.459494 -0.888181 63.1157 65.1011)" fill="#FE9B02"/>
<rect width="9.31753" height="15.9861" rx="4.65877" transform="matrix(-0.344197 0.938897 0.938897 0.344197 51.8071 41.0996)" fill="#FE9B02"/>
<rect x="53.1665" y="62.3193" width="9.31753" height="15.9861" rx="4.65877" transform="rotate(-123.815 53.1665 62.3193)" fill="#FE9B02"/>
<circle cx="61.773" cy="50.7685" r="3.97855" transform="rotate(14.4151 61.773 50.7685)" fill="#FE9B02"/>
<rect x="61.2422" y="41.6504" width="10.0638" height="17.2664" rx="5.03188" transform="rotate(-41.4131 61.2422 41.6504)" fill="#FDD002"/>
<rect x="78.3002" y="34.8022" width="10.0638" height="17.2664" rx="5.03188" transform="rotate(42.8693 78.3002 34.8022)" fill="#FDD002"/>
<rect width="10.0638" height="17.2664" rx="5.03189" transform="matrix(0.118705 -0.99293 -0.99293 -0.118705 87.5508 56.0659)" fill="#FDD002"/>
<rect width="10.0638" height="17.2664" rx="5.03189" transform="matrix(0.583476 0.812131 0.812131 -0.583476 59.2441 51.6113)" fill="#FDD002"/>
<rect x="79.0312" y="63.27" width="10.0638" height="17.2664" rx="5.03188" transform="rotate(-179.643 79.0312 63.27)" fill="#FDD002"/>
<circle cx="73.93" cy="48.5711" r="4.29719" transform="rotate(-41.4131 73.93 48.5711)" fill="#B86400"/>
<rect x="38.0676" y="54.7078" width="9.25357" height="15.8764" rx="4.62679" transform="rotate(-41.4131 38.0676 54.7078)" fill="#FDD002"/>
<rect x="53.7513" y="48.4121" width="9.25357" height="15.8764" rx="4.62678" transform="rotate(42.8693 53.7513 48.4121)" fill="#FDD002"/>
<rect width="9.25357" height="15.8764" rx="4.62679" transform="matrix(0.118705 -0.99293 -0.99293 -0.118705 62.2577 67.9648)" fill="#FDD002"/>
<rect width="9.25357" height="15.8764" rx="4.62679" transform="matrix(0.583476 0.812131 0.812131 -0.583476 36.2291 63.8677)" fill="#FDD002"/>
<rect x="54.4236" y="74.5874" width="9.25357" height="15.8764" rx="4.62678" transform="rotate(-179.643 54.4236 74.5874)" fill="#FDD002"/>
<circle cx="49.7331" cy="61.0735" r="3.95124" transform="rotate(-41.4131 49.7331 61.0735)" fill="#B86400"/>
<rect x="101.681" y="64.6074" width="8.64687" height="14.8354" rx="4.32343" transform="rotate(-15.652 101.681 64.6074)" fill="#FDD002"/>
<rect x="117.437" y="65.6782" width="8.64687" height="14.8354" rx="4.32343" transform="rotate(68.6303 117.437 65.6782)" fill="#FDD002"/>
<rect width="8.64687" height="14.8354" rx="4.32343" transform="matrix(0.538453 -0.842655 -0.842655 -0.538453 116.654 85.5872)" fill="#FDD002"/>
<rect width="8.64687" height="14.8354" rx="4.32343" transform="matrix(0.172519 0.985006 0.985006 -0.172519 96.4131 71.5684)" fill="#FDD002"/>
<rect x="107.372" y="87.9805" width="8.64686" height="14.8354" rx="4.32343" transform="rotate(-153.882 107.372 87.9805)" fill="#FDD002"/>
<circle cx="109.231" cy="74.6497" r="2.85" transform="rotate(-15.652 109.231 74.6497)" fill="#B86400"/>
<rect x="110.951" y="101.128" width="6.24209" height="10.7096" rx="3.12105" transform="rotate(-41.4131 110.951 101.128)" fill="#FDD002"/>
<rect x="121.53" y="96.8816" width="6.24209" height="10.7096" rx="3.12105" transform="rotate(42.8693 121.53 96.8816)" fill="#FDD002"/>
<rect width="6.24209" height="10.7096" rx="3.12105" transform="matrix(0.118705 -0.99293 -0.99293 -0.118705 127.269 110.071)" fill="#FDD002"/>
<rect width="6.24209" height="10.7096" rx="3.12105" transform="matrix(0.583476 0.812131 0.812131 -0.583476 109.71 107.308)" fill="#FDD002"/>
<rect x="121.984" y="114.539" width="6.24209" height="10.7096" rx="3.12105" transform="rotate(-179.643 121.984 114.539)" fill="#FDD002"/>
<circle cx="118.82" cy="105.424" r="2.66535" transform="rotate(-41.4131 118.82 105.424)" fill="#B86400"/>
<rect x="15.5505" y="57.8245" width="6.24209" height="10.7096" rx="3.12105" transform="rotate(-17.8077 15.5505 57.8245)" fill="#FDD002"/>
<rect x="26.947" y="58.1702" width="6.24209" height="10.7096" rx="3.12105" transform="rotate(66.4746 26.947 58.1702)" fill="#FDD002"/>
<rect width="6.24209" height="10.7096" rx="3.12105" transform="matrix(0.506376 -0.862313 -0.862313 -0.506376 26.9221 72.5535)" fill="#FDD002"/>
<rect width="6.24209" height="10.7096" rx="3.12105" transform="matrix(0.209448 0.97782 0.97782 -0.209448 11.9397 62.991)" fill="#FDD002"/>
<rect x="20.2908" y="74.531" width="6.24209" height="10.7096" rx="3.12105" transform="rotate(-156.038 20.2908 74.531)" fill="#FDD002"/>
<circle cx="21.0422" cy="64.9105" r="2.66535" transform="rotate(-17.8077 21.0422 64.9105)" fill="#B86400"/>
<rect x="96.3428" y="47.7192" width="10.4503" height="17.9295" rx="5.22513" transform="rotate(-17.1547 96.3428 47.7192)" fill="#FFE467"/>
<rect x="115.412" y="48.5132" width="10.4503" height="17.9295" rx="5.22513" transform="rotate(67.1276 115.412 48.5132)" fill="#FFE467"/>
<rect width="10.4503" height="17.9295" rx="5.22513" transform="matrix(0.51617 -0.856486 -0.856486 -0.51617 115.099 72.5908)" fill="#FFE467"/>
<rect width="10.4503" height="17.9295" rx="5.22513" transform="matrix(0.198291 0.980143 0.980143 -0.198291 90.1992 56.2959)" fill="#FFE467"/>
<rect x="103.958" y="75.7754" width="10.4503" height="17.9295" rx="5.22513" transform="rotate(-155.385 103.958 75.7754)" fill="#FFE467"/>
<circle cx="105.331" cy="59.8192" r="3.82803" transform="rotate(-17.1547 105.331 59.8192)" fill="#B86400"/>
<path fill-rule="evenodd" clip-rule="evenodd" d="M115.733 115.796H106.313C97.6444 122.8 86.6113 126.995 74.5986 126.995C62.5858 126.995 51.5527 122.801 42.8839 115.796H33.4634C43.6648 126.471 57.9797 133.181 73.8633 133.382L74.5986 133.387C90.7752 133.387 105.375 126.635 115.733 115.796ZM128.834 59.2686C130.419 64.2634 131.334 69.5569 131.471 75.0432C130.599 69.7818 129.713 64.4792 128.834 59.2686Z" fill="#FBE56D"/>
<rect x="24.999" y="79.5913" width="8.95361" height="15.3617" rx="4.47681" transform="rotate(9.46171 24.999 79.5913)" fill="#FDAD02"/>
<rect x="39.3003" y="87.5205" width="8.95361" height="15.3617" rx="4.4768" transform="rotate(93.744 39.3003 87.5205)" fill="#FDAD02"/>
<rect width="8.95361" height="15.3617" rx="4.47681" transform="matrix(0.845188 -0.534469 -0.534469 -0.845188 29.8184 105.841)" fill="#FDAD02"/>
<rect width="8.95361" height="15.3617" rx="4.4768" transform="matrix(-0.261842 0.965111 0.965111 0.261842 17.001 83.8027)" fill="#FDAD02"/>
<rect x="20.0625" y="104.006" width="8.95361" height="15.3617" rx="4.4768" transform="rotate(-128.769 20.0625 104.006)" fill="#FDAD02"/>
<circle cx="27.3419" cy="92.2351" r="3.82316" transform="rotate(9.46171 27.3419 92.2351)" fill="#B86400"/>
</svg>
