<svg width="150" height="150" viewBox="0 0 150 150" fill="none" xmlns="http://www.w3.org/2000/svg">
<path d="M125.377 83.3536C125.377 55.3934 102.711 32.7272 74.7503 32.7272C46.7902 32.7273 24.124 55.3935 24.1239 83.3536C24.1239 111.314 46.7902 133.98 74.7503 133.98V140.389L74.0132 140.384C42.8535 139.989 17.7156 114.607 17.7156 83.3536C17.7156 51.8542 43.2509 26.3189 74.7503 26.3188C106.25 26.3188 131.785 51.8542 131.785 83.3536L131.781 84.0908C131.386 115.251 106.004 140.389 74.7503 140.389V133.98C102.711 133.98 125.377 111.314 125.377 83.3536Z" fill="#44B8FC"/>
<path d="M131.78 77.87C131.78 109.703 106.309 135.509 74.89 135.509C43.4705 135.509 18 109.703 18 77.87C18 46.0371 43.4705 20.2314 74.89 20.2314C106.309 20.2314 131.78 46.0371 131.78 77.87Z" fill="#44B8FC"/>
<path d="M125.377 76.9454C125.377 49.1434 102.839 26.6052 75.037 26.6051C47.2349 26.6051 24.6967 49.1434 24.6967 76.9454C24.6968 104.748 47.2349 127.285 75.037 127.285V133.694L74.3036 133.689C43.5443 133.3 18.6827 108.438 18.2931 77.6789L18.2883 76.9454C18.2883 45.6041 43.6956 20.1968 75.037 20.1968L75.7704 20.2015C106.774 20.5942 131.785 45.8489 131.785 76.9454L131.781 77.6789C131.388 108.682 106.133 133.694 75.037 133.694V127.285C102.839 127.285 125.377 104.747 125.377 76.9454Z" fill="#81D6FF"/>
<path d="M125.763 76.4932C125.763 104.602 103.095 127.388 75.1328 127.388C47.1706 127.388 24.5027 104.602 24.5027 76.4932C24.5027 48.3849 47.1706 25.5986 75.1328 25.5986C103.095 25.5986 125.763 48.3849 125.763 76.4932Z" fill="#CFEFFF"/>
<path d="M77.8719 90.4674C87.9516 87.3854 105.121 93.6202 105.142 93.628C110.288 95.7866 114.875 98.7163 118.824 102.224C110.03 117.28 93.7558 127.388 75.1324 127.388C62.895 127.388 51.6718 123.023 42.9187 115.759C50.1193 101.995 63.2666 92.9526 77.8719 90.4674Z" fill="#C86902"/>
<path d="M51.9226 83.2314H69.4308V100.475H51.9226V83.2314Z" fill="#744007"/>
<path d="M54.8108 86.9736C60.0632 108.585 71.67 109.324 71.67 109.324C71.67 109.324 30.2625 111.17 27.8763 84.0325C26.2429 65.4554 35.6359 35.0615 44.1298 23.3516C53.2358 10.7976 69.6713 14.9917 69.6713 14.9917C69.6713 14.9917 46.6803 53.52 54.8108 86.9736Z" fill="#C86902"/>
<path d="M89.9888 93.9729C88.9364 89.3563 90.9238 87.2469 89.7908 82.6494L65.1941 83.8456L67.464 97.2905C69.8981 106.375 81.9315 101.338 89.9888 93.9729Z" fill="#FFCBA3"/>
<path d="M95.5729 33.2936C92.8698 21.5056 81.3011 15.4436 66.4036 14.2618C55.0328 13.3598 42.1012 14.9226 32.2467 19.2564L22.5027 46.1156L95.5729 33.2936Z" fill="#3D3D3D"/>
<path d="M31.8726 63.9736C31.1924 50.8993 40.5127 39.4296 53.4496 37.4207L82.055 32.9786C97.0038 30.6572 110.681 41.7712 111.467 56.8788C112.147 69.9531 102.827 81.4228 89.8897 83.4317L61.2844 87.8738C46.3356 90.1952 32.6586 79.0812 31.8726 63.9736Z" fill="#FFCBA3"/>
<path d="M86.4965 89.9648C84.5895 108.079 71.552 109.322 71.552 109.322C71.552 109.322 118.928 111.202 123.21 84.0644C126.142 65.4873 113.585 36.0876 98.3409 24.3777C81.9981 11.8237 61.2039 14.0495 61.2039 14.0495C61.2039 14.0495 80.5769 17.5089 84.6736 45.281C86.2737 56.1286 87.5926 79.5531 86.4965 89.9648Z" fill="#C86902"/>
<path d="M58.4105 46.2808C58.0722 42.337 60.5166 38.6867 64.2921 37.4976C69.4521 35.8724 74.7892 39.4463 75.2515 44.8364L76.0076 53.6519C76.3459 57.5957 73.9015 61.246 70.1261 62.4351C64.9661 64.0604 59.6289 60.4864 59.1666 55.0963L58.4105 46.2808Z" fill="white"/>
<path d="M38.4252 52.0005C38.0441 48.3535 40.2829 44.9422 43.7804 43.8406C48.4346 42.3746 53.2636 45.5438 53.7708 50.3971L54.6248 58.5702C55.0058 62.2172 52.7671 65.6285 49.2696 66.7301C44.6153 68.196 39.7863 65.0269 39.2792 60.1736L38.4252 52.0005Z" fill="white"/>
<path d="M46.8514 43.5217C50.3624 43.8654 53.3769 46.6197 53.7747 50.3964L53.9905 52.4463C53.7616 53.7164 52.8712 54.7919 51.6116 55.1999C49.4945 55.8855 47.2612 54.4301 46.9676 52.1732L46.1837 46.1456C46.0584 45.1824 46.3172 44.2496 46.8514 43.5217Z" fill="#3D3D3D"/>
<path d="M64.3314 44.405C64.1701 42.5408 65.3251 40.8147 67.1098 40.2525C69.5465 39.4851 72.0671 41.1716 72.2873 43.7168L72.6199 47.5616C72.7812 49.4258 71.6262 51.152 69.8415 51.7141C67.4048 52.4816 64.8842 50.795 64.664 48.2499L64.3314 44.405Z" fill="#3D3D3D"/>
<path fill-rule="evenodd" clip-rule="evenodd" d="M68.9929 67.2201C68.3751 67.1674 67.8316 67.6255 67.779 68.2433C67.6831 69.3687 67.1711 70.6109 66.0615 71.6266C64.9544 72.6399 63.1858 73.4868 60.4861 73.6911C59.8679 73.7379 59.4046 74.2771 59.4514 74.8953C59.4982 75.5135 60.0374 75.9768 60.6556 75.93C63.754 75.6954 66.03 74.6992 67.5775 73.2828C69.1223 71.8687 69.8746 70.0944 70.0161 68.4339C70.0688 67.8162 69.6106 67.2727 68.9929 67.2201Z" fill="#E99B5F"/>
<path d="M53.0566 64.7174C52.4695 66.5972 53.4927 68.5894 55.3422 69.167C57.1916 69.7447 59.1668 68.689 59.7539 66.8091C60.3411 64.9292 58.4938 59.5665 58.3543 59.5229C58.2148 59.4793 53.6437 62.8375 53.0566 64.7174Z" fill="#E99B5F"/>
<path d="M43.7857 43.8453C48.1168 42.4811 52.599 45.1303 53.61 49.4162L39.7219 52.3171L39.7933 46.8105L39.7965 46.7606C40.7442 45.4153 42.1225 44.3692 43.7857 43.8453Z" fill="#E99B5F"/>
<path d="M64.2934 37.5C69.4534 35.8748 74.7904 39.4487 75.2528 44.8387L75.2736 45.0842L58.5735 48.1674L58.4118 46.2833C58.0736 42.3395 60.5179 38.6892 64.2934 37.5Z" fill="#E99B5F"/>
<path d="M17.3448 40.2473C17.5319 28.4178 24.4844 18.9261 37.861 16.5484L48.8194 14.7852L47.0874 43.2342C46.6858 49.8311 41.9867 55.3751 35.5448 56.8523C26.1186 59.0139 17.1627 51.7627 17.3157 42.0931L17.3448 40.2473Z" fill="#3D3D3D"/>
<path d="M71.3052 109.121C67.4971 108.91 62.6404 105.186 58.8186 98.0535C58.8186 98.0535 61.1891 96.4431 62.7546 95.6246C64.3201 94.8062 66.8469 93.6411 66.8469 93.6411C66.8469 93.6411 67.6253 99.6811 71.8777 100.699C79.4073 102.502 85.5291 95.2257 85.5291 95.2257C84.0543 101.403 79.0016 109.548 71.3052 109.121Z" fill="white"/>
<path fill-rule="evenodd" clip-rule="evenodd" d="M112.782 90.6121C113.649 91.8866 113.726 93.4489 113.139 94.8189C113.269 94.8263 113.463 94.834 113.715 94.8352C114.326 94.8379 115.273 94.802 116.482 94.6309C118.899 94.2891 122.345 93.4105 126.258 91.232C128.656 89.8971 131.472 90.7881 132.55 93.2219C133.267 94.8422 133.032 96.7378 132.088 98.2179C132.281 98.8176 132.377 99.4609 132.355 100.123C132.026 109.878 124.411 113.876 118.316 114.63C115.138 115.023 111.786 114.686 108.849 113.628C106.049 112.619 102.83 110.645 101.158 107.103C101.066 106.907 100.985 106.708 100.917 106.507C99.7201 103.809 99.5477 100.88 100.055 98.2643C100.676 95.0643 102.494 91.5333 105.823 89.4529C108.214 87.9587 111.33 88.4777 112.782 90.6121Z" fill="#FFCBA3"/>
<path d="M129.273 97.7842C130.251 97.7507 131.211 97.8557 132.086 98.211C132.085 98.2129 132.084 98.2149 132.083 98.2167C132.277 98.8165 132.372 99.4598 132.35 100.122C132.339 100.45 132.319 100.772 132.292 101.087C132.169 100.936 132.043 100.809 131.914 100.702C131.331 100.221 130.527 99.9989 129.351 100.039C128.159 100.08 126.73 100.385 125.023 100.817C123.355 101.24 121.424 101.784 119.383 102.227C118.774 102.359 118.174 101.972 118.041 101.363C117.909 100.755 118.296 100.154 118.905 100.022C120.897 99.5896 122.724 99.0725 124.469 98.6303C126.174 98.1982 127.813 97.8343 129.273 97.7842Z" fill="#F8AC72"/>
<path d="M128.299 103.253C129.527 103.207 130.726 103.408 131.754 104.101C131.528 104.896 131.244 105.639 130.912 106.332C130.863 106.28 130.814 106.231 130.764 106.186C130.22 105.692 129.481 105.467 128.384 105.508C127.261 105.55 125.906 105.867 124.27 106.322C122.677 106.766 120.82 107.34 118.862 107.807C118.256 107.952 117.647 107.577 117.503 106.971C117.358 106.365 117.733 105.757 118.339 105.613C120.244 105.158 121.988 104.616 123.665 104.149C125.298 103.694 126.882 103.307 128.299 103.253Z" fill="#F8AC72"/>
<path d="M107.249 25.3709C107.249 28.5522 104.909 31.131 102.023 31.131C99.1376 31.131 96.798 28.5522 96.798 25.3709C96.798 22.1897 99.1376 17.3486 102.023 17.3486C104.909 17.3486 107.249 22.1897 107.249 25.3709Z" fill="url(#paint0_linear_1058_46253)"/>
<path d="M135.063 52.3944C135.063 55.5757 132.724 58.1545 129.838 58.1545C126.952 58.1545 124.613 55.5757 124.613 52.3944C124.613 49.2132 126.952 44.3721 129.838 44.3721C132.724 44.3721 135.063 49.2132 135.063 52.3944Z" fill="url(#paint1_linear_1058_46253)"/>
<path d="M22.9404 81.2808C22.9404 84.462 20.6009 87.0408 17.7149 87.0408C14.829 87.0408 12.4895 84.462 12.4895 81.2808C12.4895 78.0995 14.829 73.2584 17.7149 73.2584C20.6009 73.2584 22.9404 78.0995 22.9404 81.2808Z" fill="url(#paint2_linear_1058_46253)"/>
<defs>
<linearGradient id="paint0_linear_1058_46253" x1="16.616" y1="87.0408" x2="16.9914" y2="73.2603" gradientUnits="userSpaceOnUse">
<stop offset="0.153044" stop-color="#C4FEFF"/>
<stop offset="0.57743" stop-color="#BAFEFF"/>
</linearGradient>
<linearGradient id="paint1_linear_1058_46253" x1="16.616" y1="87.0408" x2="16.9914" y2="73.2603" gradientUnits="userSpaceOnUse">
<stop offset="0.153044" stop-color="#C4FEFF"/>
<stop offset="0.57743" stop-color="#BAFEFF"/>
</linearGradient>
<linearGradient id="paint2_linear_1058_46253" x1="16.616" y1="87.0408" x2="16.9914" y2="73.2603" gradientUnits="userSpaceOnUse">
<stop offset="0.153044" stop-color="#C4FEFF"/>
<stop offset="0.57743" stop-color="#BAFEFF"/>
</linearGradient>
</defs>
</svg>
