<svg xmlns="http://www.w3.org/2000/svg" xmlns:xlink="http://www.w3.org/1999/xlink" width="1080" zoomAndPan="magnify" viewBox="0 0 810 1012.49997" height="1350" preserveAspectRatio="xMidYMid meet" version="1.0"><defs><g/><clipPath id="22a03eec50"><path d="M 401 81.484375 L 486 81.484375 L 486 289 L 401 289 Z M 401 81.484375 " clip-rule="nonzero"/></clipPath></defs><path fill="#68bbff" d="M 680.363281 454.410156 C 700.621094 462.449219 707.664062 485.089844 713.175781 504.363281 C 732 570.183594 747.984375 636.847656 764.242188 703.351562 C 766.367188 712.039062 766.175781 721.53125 767.613281 730.359375 C 771.386719 753.535156 758.707031 765.238281 737.195312 762.492188 C 728.25 761.351562 719.621094 758.195312 710.632812 757.445312 C 605.261719 748.648438 502.046875 722.128906 396.757812 731.496094 C 390.644531 732.039062 298.683594 719.667969 159.941406 736.433594 C 117.339844 741.582031 73.496094 755.171875 30.445312 750.578125 C 14.570312 748.882812 5.640625 740.886719 4.21875 724.304688 C 1.71875 695.097656 30.269531 585.554688 38.714844 550.558594 C 42.8125 533.585938 51.175781 503.148438 63.042969 490.878906 C 67.792969 485.96875 75.5625 483.355469 81.664062 486.429688 " fill-opacity="1" fill-rule="nonzero"/><path fill="#ff5f6f" d="M 105.453125 446.925781 C 102.296875 441.371094 93.511719 441.753906 88.789062 446.054688 C 82.625 451.664062 82.535156 456.199219 69.992188 508.625 C 30.761719 672.632812 30.359375 670.554688 30.285156 686.570312 C 30.234375 698.691406 33.214844 711.21875 40.898438 720.597656 C 60.945312 745.054688 99.671875 731.804688 124.59375 724.078125 C 211.214844 697.222656 307.019531 698.457031 393.417969 724.914062 C 396.355469 725.8125 399.492188 725.582031 402.289062 724.308594 C 439.628906 707.359375 480.257812 702.015625 521.398438 703.113281 C 564.132812 704.25 606.328125 713.179688 647.398438 725.042969 C 665.71875 730.335938 684.503906 736.285156 703.460938 734.257812 C 722.117188 732.261719 738.679688 723.238281 741.113281 703.429688 C 744.4375 676.394531 718.847656 586.683594 710.976562 560.457031 C 699.394531 521.878906 684.230469 484.683594 674.859375 445.480469 C 672.628906 436.160156 661.128906 434.683594 651.546875 434.640625 " fill-opacity="1" fill-rule="nonzero"/><path fill="#ffffff" d="M 107.5 431.164062 C 111.609375 407.945312 118.765625 403.261719 144.574219 402.511719 C 232.796875 399.957031 266.804688 366.734375 315.242188 373.632812 C 343.992188 377.726562 370.542969 393.949219 385.96875 418.804688 C 454.554688 370.269531 539.910156 382.164062 621.023438 402.105469 C 629.953125 404.300781 642.5 404.867188 647.921875 413.324219 C 651.828125 419.410156 647.605469 405.808594 710.917969 658.453125 C 713.3125 667.996094 717.257812 676.476562 716.289062 686.566406 C 715.378906 696.03125 710.640625 702.945312 701.289062 706.132812 C 676.34375 714.628906 650.804688 701.699219 628.140625 693.644531 C 512.238281 652.453125 404.71875 708.28125 401.105469 708.375 C 397.101562 708.472656 392.664062 704.605469 389.097656 702.757812 C 295.046875 654.09375 180.316406 699.230469 90.265625 713.507812 C 83.53125 714.578125 76.347656 715.472656 70.121094 712.6875 C 61.394531 708.792969 57.015625 698.460938 57.257812 688.90625 C 57.503906 679.121094 61.640625 670.886719 65.480469 662.210938 C 69.527344 653.058594 70.191406 641.902344 71.949219 631.976562 C 82.9375 569.914062 96.554688 492.992188 107.5 431.164062 Z M 107.5 431.164062 " fill-opacity="1" fill-rule="nonzero"/><path fill="#000000" d="M 68.382812 716.574219 C 57.402344 711.671875 52.746094 699.09375 53.003906 688.796875 C 53.246094 679.117188 56.921875 670.921875 60.46875 663 C 61.445312 659.792969 63.523438 660.046875 66.527344 639.191406 C 67.925781 629.335938 65.257812 645.859375 103.308594 430.421875 C 104.605469 423.128906 106.21875 414.050781 112.535156 407.550781 C 120.890625 398.941406 133.355469 398.578125 144.363281 398.257812 C 231.558594 395.734375 266.292969 362.382812 315.839844 369.417969 C 344.871094 373.554688 371.195312 389.660156 387.140625 412.828125 C 421.625 389.726562 464.441406 378.921875 514.710938 380.636719 C 565.035156 382.378906 613.402344 396.382812 627.570312 399.132812 C 648.199219 403.121094 652.492188 407.894531 656.871094 425.339844 C 707.824219 628.203125 713.367188 652.300781 717.050781 664.449219 C 719.152344 671.433594 721.320312 678.65625 720.523438 686.976562 C 719.410156 698.539062 713.242188 706.558594 702.660156 710.160156 C 676.21875 719.183594 649.875 705.894531 626.722656 697.652344 C 558.527344 673.429688 484.148438 680.5 415.839844 706.90625 C 412.09375 708.351562 406.289062 712.496094 401.210938 712.628906 C 395.335938 712.519531 390.464844 708.253906 387.148438 706.535156 C 294.765625 658.757812 181.929688 703.28125 90.933594 717.710938 C 83.273438 718.933594 75.476562 719.746094 68.382812 716.574219 Z M 111.6875 431.910156 C 70.671875 664.144531 76.105469 632.34375 74.949219 640.40625 C 71.785156 662.347656 69.132812 663.546875 68.234375 666.480469 C 64.882812 673.964844 61.707031 681.035156 61.515625 689.007812 C 61.335938 696.242188 64.492188 705.511719 71.855469 708.800781 C 76.917969 711.0625 83.136719 710.328125 89.601562 709.308594 C 180.183594 694.929688 295.488281 649.542969 391.054688 698.976562 C 393.890625 700.445312 398.675781 704.117188 400.945312 704.117188 C 401.796875 703.808594 401.304688 704.707031 408.152344 701.171875 C 416.101562 697.058594 435.148438 690.949219 443.703125 688.433594 C 505.203125 670.347656 570.277344 668.566406 629.566406 689.632812 C 652.082031 697.636719 676.390625 710.082031 699.917969 702.105469 C 707.292969 699.589844 711.265625 694.375 712.046875 686.160156 C 712.921875 677.039062 709.144531 668.914062 706.792969 659.484375 L 648.609375 427.410156 C 645.027344 413.035156 643.027344 410.800781 625.957031 407.488281 C 582.039062 399.054688 472.144531 363.054688 388.425781 422.28125 C 386.46875 423.675781 383.65625 423.164062 382.351562 421.050781 C 368.054688 397.996094 342.734375 381.84375 314.640625 377.847656 C 268.371094 371.28125 232.472656 404.210938 144.695312 406.765625 C 119.511719 407.496094 115.238281 412 111.6875 431.910156 Z M 111.6875 431.910156 " fill-opacity="1" fill-rule="nonzero"/><path fill="#000000" d="M 395.136719 706.046875 C 372.402344 643.253906 373.4375 595.511719 376.167969 535.917969 L 381.695312 415.152344 C 381.792969 412.804688 383.871094 410.910156 386.132812 411.09375 C 388.484375 411.203125 390.296875 413.195312 390.1875 415.542969 L 384.660156 536.308594 C 381.957031 595.671875 380.898438 641.714844 403.132812 703.144531 C 403.9375 705.355469 402.789062 707.796875 400.578125 708.597656 C 398.433594 709.386719 395.945312 708.292969 395.136719 706.046875 Z M 395.136719 706.046875 " fill-opacity="1" fill-rule="nonzero"/><path fill="#000000" d="M 439.996094 463.292969 C 430.453125 461.976562 422.699219 456.515625 419.746094 449.035156 C 418.882812 446.847656 419.953125 444.375 422.140625 443.511719 C 424.316406 442.660156 426.796875 443.714844 427.660156 445.910156 C 429.84375 451.445312 436.296875 454.1875 441.160156 454.863281 C 447.617188 455.722656 454.335938 454.351562 461.140625 453.140625 C 504.910156 445.371094 549.222656 445.796875 592.84375 454.386719 C 595.144531 454.84375 596.652344 457.082031 596.191406 459.386719 C 595.734375 461.695312 593.433594 463.183594 591.199219 462.742188 C 548.625 454.359375 505.367188 453.953125 462.621094 461.519531 C 455.042969 462.867188 447.636719 464.351562 439.996094 463.292969 Z M 439.996094 463.292969 " fill-opacity="1" fill-rule="nonzero"/><path fill="#ffc502" d="M 421.789062 515.027344 C 440.003906 499.101562 481.386719 502.996094 502.183594 503.039062 C 522.015625 503.078125 541.855469 503.34375 561.675781 503.980469 C 574.230469 504.386719 586.789062 502.691406 599.269531 504.984375 C 614.28125 507.742188 628.019531 523.167969 606.832031 530.914062 C 596.675781 534.625 586.261719 533.988281 575.671875 534.167969 C 560.285156 534.433594 567.886719 536.019531 476.742188 541.585938 C 460.507812 542.574219 444.070312 543.554688 428.105469 540.453125 C 413.394531 537.59375 410.421875 524.96875 421.789062 515.027344 Z M 421.789062 515.027344 " fill-opacity="1" fill-rule="nonzero"/><path fill="#ffc502" d="M 427.824219 583.46875 C 436.183594 563.332031 489.539062 566.453125 509.175781 566.148438 C 538.3125 565.695312 567.464844 566.367188 596.546875 568.171875 C 600.867188 568.4375 605.292969 568.753906 609.253906 570.503906 C 620.121094 575.296875 621.425781 588.429688 603.707031 595.578125 C 571.914062 608.402344 493.933594 607.9375 459.640625 607.433594 C 451.753906 607.316406 443.5 607.0625 436.605469 603.226562 C 429.710938 599.390625 424.800781 590.757812 427.824219 583.46875 Z M 427.824219 583.46875 " fill-opacity="1" fill-rule="nonzero"/><path fill="#000000" d="M 430.542969 525.300781 C 428.550781 524.058594 427.933594 521.4375 429.171875 519.441406 C 430.417969 517.433594 433.0625 516.847656 435.03125 518.070312 C 458.503906 532.671875 489.800781 517.953125 515.714844 514.492188 C 530.894531 512.441406 540.390625 513.21875 606.824219 515.753906 C 609.175781 515.839844 611.003906 517.820312 610.921875 520.167969 C 610.832031 522.511719 608.792969 524.523438 606.507812 524.257812 C 542.652344 521.835938 531.785156 520.933594 516.847656 522.929688 C 491.132812 526.367188 457.5625 542.085938 430.542969 525.300781 Z M 430.542969 525.300781 " fill-opacity="1" fill-rule="nonzero"/><path fill="#000000" d="M 472.835938 598.402344 C 459.695312 598.402344 444.417969 592.386719 439.328125 578.382812 C 438.523438 576.171875 439.664062 573.734375 441.875 572.929688 C 444.101562 572.132812 446.527344 573.265625 447.324219 575.472656 C 451.125 585.902344 464.222656 590.578125 475.171875 589.808594 C 487.355469 588.953125 498.636719 583.363281 511.261719 578.6875 C 546.464844 565.71875 555.539062 579.304688 565.636719 581.46875 C 572.371094 582.886719 579.71875 579.683594 587.441406 577.445312 C 599.300781 574.011719 609.019531 575.574219 614.761719 581.890625 C 616.339844 583.632812 616.21875 586.328125 614.472656 587.90625 C 612.742188 589.484375 610.042969 589.367188 608.460938 587.621094 C 603.664062 582.347656 593.824219 584.472656 589.800781 585.625 C 581.515625 588.007812 573.0625 591.773438 563.859375 589.789062 C 551.507812 587.15625 546.121094 574.898438 514.203125 586.675781 C 502.023438 591.167969 487.269531 598.402344 472.835938 598.402344 Z M 472.835938 598.402344 " fill-opacity="1" fill-rule="nonzero"/><path fill="#000000" d="M 143.449219 445.75 C 143.050781 443.433594 144.613281 441.234375 146.921875 440.832031 C 149.257812 440.453125 151.445312 441.988281 151.84375 444.304688 C 152.125 445.988281 153.125 447.429688 154.785156 448.59375 C 164.410156 455.34375 175.589844 446.113281 186.910156 442.359375 C 198.390625 438.550781 211.148438 439.566406 221.894531 445.15625 C 223.972656 446.242188 224.789062 448.8125 223.699219 450.898438 C 222.613281 452.988281 220.042969 453.800781 217.957031 452.703125 C 209.378906 448.226562 198.789062 447.371094 189.585938 450.441406 C 182.136719 452.914062 175.664062 457.527344 167.105469 459.082031 C 160.953125 460.1875 145.210938 455.964844 143.449219 445.75 Z M 143.449219 445.75 " fill-opacity="1" fill-rule="nonzero"/><path fill="#000000" d="M 214.515625 503.046875 C 205.871094 503.046875 196.925781 500.839844 190.046875 493.957031 C 188.382812 492.296875 188.382812 489.601562 190.046875 487.9375 C 191.707031 486.277344 194.402344 486.277344 196.0625 487.9375 C 206.675781 498.554688 225.929688 493.667969 233.714844 491.078125 C 247.875 486.382812 262.699219 478.976562 278.632812 481.191406 C 297.070312 483.769531 309.457031 498.207031 335.40625 491.050781 C 337.699219 490.433594 340.019531 491.761719 340.640625 494.027344 C 341.265625 496.292969 339.925781 498.636719 337.664062 499.257812 C 308.921875 507.148438 293.378906 491.84375 277.453125 489.621094 C 256.539062 486.695312 239.1875 503.046875 214.515625 503.046875 Z M 214.515625 503.046875 " fill-opacity="1" fill-rule="nonzero"/><path fill="#000000" d="M 143.539062 559.175781 C 142.175781 557.265625 142.625 554.605469 144.535156 553.242188 C 146.449219 551.886719 149.109375 552.332031 150.472656 554.246094 C 160.988281 569.027344 180.675781 576.667969 198.433594 572.832031 C 217.199219 568.765625 234.53125 553.058594 255.578125 554.699219 C 263.929688 555.308594 271.890625 558.777344 279.414062 558.53125 C 286.851562 558.238281 294.050781 554.230469 302.03125 551.570312 C 313.453125 547.78125 323.59375 548.972656 329.925781 554.847656 C 331.648438 556.449219 331.738281 559.140625 330.144531 560.863281 C 328.546875 562.585938 325.855469 562.675781 324.125 561.082031 C 318.515625 555.847656 308.683594 558.328125 304.726562 559.652344 C 296.671875 562.324219 288.976562 566.675781 279.746094 567.035156 C 270.652344 567.410156 262.9375 563.773438 254.945312 563.1875 C 236.933594 561.792969 219.964844 576.878906 200.226562 581.152344 C 179.40625 585.675781 156.019531 576.746094 143.539062 559.175781 Z M 143.539062 559.175781 " fill-opacity="1" fill-rule="nonzero"/><path fill="#000000" d="M 99.4375 649.167969 C 91.871094 637.296875 91.824219 621.316406 99.328125 609.398438 C 100.582031 607.414062 103.21875 606.835938 105.195312 608.066406 C 107.183594 609.320312 107.78125 611.949219 106.527344 613.9375 C 100.832031 622.980469 100.875 635.585938 106.617188 644.597656 C 112.351562 653.609375 123.75 658.941406 134.363281 657.625 C 136.632812 657.378906 138.816406 658.976562 139.117188 661.316406 C 139.410156 663.648438 137.761719 665.777344 135.425781 666.074219 C 121.742188 667.8125 107.136719 661.261719 99.4375 649.167969 Z M 99.4375 649.167969 " fill-opacity="1" fill-rule="nonzero"/><path fill="#ffc502" d="M 564.433594 339.933594 C 615.640625 262.03125 671.441406 187.152344 731.445312 115.808594 C 749.636719 94.175781 759.296875 94.300781 778.394531 103.636719 C 787.132812 107.910156 796.277344 112.53125 801.683594 120.617188 C 807.851562 129.839844 807.921875 142.085938 804.574219 152.664062 C 801.226562 163.242188 794.855469 172.558594 788.65625 181.757812 C 740.261719 253.578125 697.089844 328.914062 659.582031 406.976562 C 652.183594 411.800781 642.292969 411.125 634.75 406.535156 C 627.203125 401.949219 621.191406 395.222656 613.980469 390.125 C 606.34375 384.722656 597.539062 381.269531 589.0625 377.3125 C 580.585938 373.355469 572.152344 368.6875 566.136719 361.523438 C 560.117188 354.363281 559.292969 347.75 564.433594 339.933594 Z M 564.433594 339.933594 " fill-opacity="1" fill-rule="nonzero"/><path fill="#ffc502" d="M 562.304688 479.367188 C 560.6875 482.238281 557.328125 488.664062 554.378906 490.136719 C 551.632812 491.503906 547.050781 487.835938 543.984375 487.707031 C 534.148438 487.289062 526.96875 490.410156 518.617188 494.390625 C 515.6875 495.785156 512.863281 492.246094 514.933594 489.753906 C 528.777344 473.070312 541.984375 454.585938 556.195312 438.945312 C 557.390625 437.628906 573.402344 452.355469 573.898438 455.785156 C 574.90625 462.726562 565.550781 473.605469 562.304688 479.367188 Z M 562.304688 479.367188 " fill-opacity="1" fill-rule="nonzero"/><path fill="#33e3ad" d="M 647.40625 420.261719 C 641.992188 423.003906 635.765625 423.542969 629.710938 423.953125 C 612.273438 425.128906 607.140625 426.980469 594.179688 442.976562 C 589.144531 449.191406 583.871094 455.640625 576.605469 458.972656 C 569.335938 462.308594 559.460938 461.441406 554.917969 454.859375 C 549.71875 447.328125 553.695312 437.207031 556.714844 428.566406 C 562.652344 411.578125 564.253906 393.09375 561.328125 375.332031 C 560.308594 369.148438 558.746094 362.886719 559.707031 356.695312 C 560.664062 350.5 565.003906 344.265625 571.226562 343.527344 C 580.179688 342.464844 594.71875 355.832031 602.03125 360.335938 C 613.496094 367.398438 624.578125 375.078125 635.214844 383.332031 C 646.074219 391.753906 670.292969 408.667969 647.40625 420.261719 Z M 647.40625 420.261719 " fill-opacity="1" fill-rule="nonzero"/><path fill="#000000" d="M 680.71875 292.074219 C 678.722656 290.835938 678.109375 288.210938 679.347656 286.214844 C 701.582031 250.363281 727.753906 216.816406 757.144531 186.507812 C 758.792969 184.832031 761.484375 184.777344 763.164062 186.417969 C 764.851562 188.054688 764.894531 190.746094 763.265625 192.433594 C 734.289062 222.308594 708.488281 255.367188 686.578125 290.703125 C 685.335938 292.699219 682.71875 293.3125 680.71875 292.074219 Z M 680.71875 292.074219 " fill-opacity="1" fill-rule="nonzero"/><path fill="#ffffff" d="M 575.386719 428.132812 C 573.5 426.730469 573.101562 424.066406 574.507812 422.179688 C 586.175781 406.425781 605.859375 397.085938 625.160156 397.777344 C 627.511719 397.859375 629.351562 399.832031 629.265625 402.183594 C 629.183594 404.53125 627.296875 406.625 624.859375 406.28125 C 608.121094 405.695312 591.363281 413.714844 581.339844 427.242188 C 579.949219 429.136719 577.277344 429.527344 575.386719 428.132812 Z M 575.386719 428.132812 " fill-opacity="1" fill-rule="nonzero"/><path fill="#febce2" d="M 218.664062 743.4375 C 215.328125 746.507812 214.953125 752.253906 217.863281 755.730469 C 220.769531 759.207031 226.496094 759.847656 230.101562 757.105469 C 233.707031 754.359375 234.617188 748.671875 232.046875 744.941406 C 229.472656 741.210938 223.835938 740.035156 219.988281 742.429688 " fill-opacity="1" fill-rule="nonzero"/><path fill="#febce2" d="M 246.46875 792.644531 C 252.386719 797.542969 261.855469 797.152344 267.664062 792.121094 C 273.46875 787.089844 275.285156 778.148438 272.339844 771.050781 C 269.667969 764.609375 262.898438 759.734375 255.957031 760.421875 C 242.054688 761.804688 236.007812 783.988281 246.46875 792.644531 Z M 246.46875 792.644531 " fill-opacity="1" fill-rule="nonzero"/><path fill="#ffc502" d="M 216.734375 262.9375 C 209.914062 264.554688 205.761719 269.234375 202.324219 274.804688 C 199.816406 278.828125 200.382812 289.292969 201.503906 297.34375 C 201.617188 298.160156 200.53125 298.484375 200.160156 297.746094 C 194.816406 287.125 183.722656 276.011719 173.453125 274.867188 C 172.734375 274.785156 172.652344 273.820312 173.3125 273.523438 C 177.996094 271.394531 181.792969 267.949219 184.367188 263.726562 C 186.796875 259.792969 186.988281 250.3125 186.320312 242.675781 C 186.25 241.839844 187.386719 241.570312 187.699219 242.347656 C 190.527344 249.472656 194.953125 257.859375 198.886719 260.289062 C 204.457031 263.726562 209.914062 264.554688 216.734375 262.9375 Z M 216.734375 262.9375 " fill-opacity="1" fill-rule="nonzero"/><path fill="#ffc502" d="M 180.589844 219.175781 C 171.246094 221.390625 165.5625 227.800781 160.855469 235.433594 C 157.421875 240.9375 158.195312 255.273438 159.726562 266.300781 C 159.882812 267.421875 158.398438 267.859375 157.890625 266.851562 C 150.574219 252.300781 135.375 237.078125 121.3125 235.515625 C 120.324219 235.402344 120.214844 234.082031 121.117188 233.671875 C 127.53125 230.757812 132.734375 226.039062 136.261719 220.257812 C 139.585938 214.871094 139.847656 201.882812 138.933594 191.421875 C 138.835938 190.277344 140.394531 189.90625 140.820312 190.976562 C 144.695312 200.734375 150.757812 212.222656 156.144531 215.546875 C 163.773438 220.253906 171.246094 221.390625 180.589844 219.175781 Z M 180.589844 219.175781 " fill-opacity="1" fill-rule="nonzero"/><g clip-path="url(#22a03eec50)"><path fill="#ff5f6f" d="M 411.851562 286.828125 C 410.394531 284.984375 410.710938 282.304688 412.558594 280.851562 C 445.472656 254.949219 465.363281 212.195312 464.472656 170.277344 C 431.484375 194.609375 385.679688 161.109375 406.515625 125.976562 C 422.210938 99.535156 462.257812 106.972656 470.941406 150.097656 C 482.4375 129.546875 475.597656 104.203125 459.769531 89.25 C 458.066406 87.636719 457.988281 84.945312 459.601562 83.238281 C 461.222656 81.53125 463.90625 81.449219 465.621094 83.066406 C 487.953125 104.171875 492.441406 139.371094 472.617188 162.664062 C 476.285156 210.210938 455.304688 258.046875 417.828125 287.542969 C 415.980469 288.988281 413.3125 288.6875 411.851562 286.828125 Z M 413.835938 130.316406 C 396.839844 158.953125 438.273438 185.148438 463.792969 159.597656 C 462.535156 148.203125 459.652344 139.332031 455.015625 132.554688 C 444.148438 116.65625 423.851562 113.4375 413.835938 130.316406 Z M 413.835938 130.316406 " fill-opacity="1" fill-rule="nonzero"/></g><g fill="#ffffff" fill-opacity="1"><g transform="translate(365.480439, 924.293205)"><g><path d="M 5 0 L 2.578125 0 L 2.578125 -22.78125 L 5 -22.78125 Z M 5 0 "/></g></g><g transform="translate(373.064584, 924.293205)"><g><path d="M 4.859375 -16.046875 L 4.859375 -5.640625 C 4.859375 -4.328125 5.15625 -3.347656 5.75 -2.703125 C 6.34375 -2.066406 7.273438 -1.75 8.546875 -1.75 C 10.222656 -1.75 11.445312 -2.207031 12.21875 -3.125 C 13 -4.039062 13.390625 -5.535156 13.390625 -7.609375 L 13.390625 -16.046875 L 15.828125 -16.046875 L 15.828125 0 L 13.828125 0 L 13.46875 -2.15625 L 13.34375 -2.15625 C 12.84375 -1.363281 12.148438 -0.753906 11.265625 -0.328125 C 10.378906 0.0859375 9.375 0.296875 8.25 0.296875 C 6.289062 0.296875 4.828125 -0.164062 3.859375 -1.09375 C 2.890625 -2.019531 2.40625 -3.503906 2.40625 -5.546875 L 2.40625 -16.046875 Z M 4.859375 -16.046875 "/></g></g><g transform="translate(391.46858, 924.293205)"><g><path d="M 8.984375 0.296875 C 6.660156 0.296875 4.863281 -0.414062 3.59375 -1.84375 C 2.320312 -3.28125 1.6875 -5.304688 1.6875 -7.921875 C 1.6875 -10.609375 2.332031 -12.679688 3.625 -14.140625 C 4.914062 -15.609375 6.757812 -16.34375 9.15625 -16.34375 C 9.925781 -16.34375 10.695312 -16.257812 11.46875 -16.09375 C 12.238281 -15.925781 12.84375 -15.726562 13.28125 -15.5 L 12.53125 -13.4375 C 12 -13.65625 11.414062 -13.832031 10.78125 -13.96875 C 10.144531 -14.113281 9.582031 -14.1875 9.09375 -14.1875 C 5.832031 -14.1875 4.203125 -12.109375 4.203125 -7.953125 C 4.203125 -5.984375 4.597656 -4.46875 5.390625 -3.40625 C 6.191406 -2.351562 7.375 -1.828125 8.9375 -1.828125 C 10.269531 -1.828125 11.640625 -2.113281 13.046875 -2.6875 L 13.046875 -0.546875 C 11.972656 0.0117188 10.617188 0.296875 8.984375 0.296875 Z M 8.984375 0.296875 "/></g></g><g transform="translate(405.743756, 924.293205)"><g><path d="M 12.4375 0 L 11.96875 -2.28125 L 11.84375 -2.28125 C 11.039062 -1.28125 10.238281 -0.597656 9.4375 -0.234375 C 8.644531 0.117188 7.65625 0.296875 6.46875 0.296875 C 4.875 0.296875 3.625 -0.113281 2.71875 -0.9375 C 1.820312 -1.757812 1.375 -2.925781 1.375 -4.4375 C 1.375 -7.675781 3.96875 -9.375 9.15625 -9.53125 L 11.875 -9.625 L 11.875 -10.609375 C 11.875 -11.867188 11.601562 -12.796875 11.0625 -13.390625 C 10.519531 -13.992188 9.65625 -14.296875 8.46875 -14.296875 C 7.125 -14.296875 5.609375 -13.890625 3.921875 -13.078125 L 3.171875 -14.9375 C 3.960938 -15.363281 4.828125 -15.695312 5.765625 -15.9375 C 6.710938 -16.1875 7.660156 -16.3125 8.609375 -16.3125 C 10.523438 -16.3125 11.941406 -15.882812 12.859375 -15.03125 C 13.785156 -14.1875 14.25 -12.828125 14.25 -10.953125 L 14.25 0 Z M 6.953125 -1.71875 C 8.460938 -1.71875 9.648438 -2.128906 10.515625 -2.953125 C 11.378906 -3.785156 11.8125 -4.945312 11.8125 -6.4375 L 11.8125 -7.890625 L 9.390625 -7.78125 C 7.453125 -7.71875 6.054688 -7.421875 5.203125 -6.890625 C 4.347656 -6.359375 3.921875 -5.53125 3.921875 -4.40625 C 3.921875 -3.53125 4.1875 -2.863281 4.71875 -2.40625 C 5.25 -1.945312 5.992188 -1.71875 6.953125 -1.71875 Z M 6.953125 -1.71875 "/></g></g><g transform="translate(422.42009, 924.293205)"><g><path d="M 12.921875 -4.375 C 12.921875 -2.882812 12.363281 -1.734375 11.25 -0.921875 C 10.144531 -0.109375 8.585938 0.296875 6.578125 0.296875 C 4.441406 0.296875 2.78125 -0.0390625 1.59375 -0.71875 L 1.59375 -2.96875 C 2.363281 -2.582031 3.191406 -2.273438 4.078125 -2.046875 C 4.960938 -1.828125 5.8125 -1.71875 6.625 -1.71875 C 7.894531 -1.71875 8.867188 -1.914062 9.546875 -2.3125 C 10.234375 -2.71875 10.578125 -3.335938 10.578125 -4.171875 C 10.578125 -4.796875 10.304688 -5.328125 9.765625 -5.765625 C 9.222656 -6.210938 8.171875 -6.738281 6.609375 -7.34375 C 5.109375 -7.90625 4.039062 -8.390625 3.40625 -8.796875 C 2.78125 -9.210938 2.3125 -9.6875 2 -10.21875 C 1.695312 -10.75 1.546875 -11.378906 1.546875 -12.109375 C 1.546875 -13.410156 2.078125 -14.441406 3.140625 -15.203125 C 4.210938 -15.960938 5.675781 -16.34375 7.53125 -16.34375 C 9.25 -16.34375 10.9375 -15.988281 12.59375 -15.28125 L 11.734375 -13.3125 C 10.117188 -13.96875 8.65625 -14.296875 7.34375 -14.296875 C 6.195312 -14.296875 5.328125 -14.113281 4.734375 -13.75 C 4.148438 -13.394531 3.859375 -12.898438 3.859375 -12.265625 C 3.859375 -11.835938 3.96875 -11.472656 4.1875 -11.171875 C 4.414062 -10.867188 4.769531 -10.578125 5.25 -10.296875 C 5.738281 -10.023438 6.675781 -9.632812 8.0625 -9.125 C 9.96875 -8.425781 11.253906 -7.722656 11.921875 -7.015625 C 12.585938 -6.316406 12.921875 -5.4375 12.921875 -4.375 Z M 12.921875 -4.375 "/></g></g></g><g fill="#ffffff" fill-opacity="1"><g transform="translate(436.730409, 924.293205)"><g/></g></g></svg>