<svg xmlns="http://www.w3.org/2000/svg" xmlns:xlink="http://www.w3.org/1999/xlink" width="1080" zoomAndPan="magnify" viewBox="0 0 810 1012.49997" height="1350" preserveAspectRatio="xMidYMid meet" version="1.0"><defs><g/><clipPath id="7dc18fd6cc"><path d="M 2 395 L 809.800781 395 L 809.800781 761.550781 L 2 761.550781 Z M 2 395 " clip-rule="nonzero"/></clipPath></defs><path fill="#ffffff" d="M 805.503906 436.847656 C 805.472656 436.503906 805.417969 436.160156 805.378906 435.8125 C 805.292969 435.054688 805.1875 434.296875 805.058594 433.542969 C 804.984375 433.121094 804.90625 432.699219 804.820312 432.28125 C 804.65625 431.484375 804.464844 430.695312 804.257812 429.90625 C 804.179688 429.613281 804.113281 429.320312 804.03125 429.03125 C 803.722656 427.976562 803.367188 426.9375 802.976562 425.90625 C 802.863281 425.605469 802.734375 425.308594 802.613281 425.011719 C 802.277344 424.183594 801.914062 423.367188 801.519531 422.558594 C 801.433594 422.375 801.371094 422.191406 801.277344 422.011719 C 801.230469 421.910156 801.167969 421.820312 801.117188 421.722656 C 800.617188 420.746094 800.089844 419.785156 799.511719 418.84375 C 799.488281 418.808594 799.460938 418.773438 799.4375 418.734375 C 799.3125 418.535156 799.175781 418.347656 799.050781 418.148438 C 798.554688 417.382812 798.035156 416.632812 797.496094 415.90625 C 797.269531 415.601562 797.039062 415.300781 796.804688 415 C 796.269531 414.320312 795.710938 413.65625 795.136719 413.011719 C 794.960938 412.816406 794.792969 412.609375 794.613281 412.417969 C 793.855469 411.597656 793.0625 410.816406 792.242188 410.0625 C 792.066406 409.902344 791.882812 409.753906 791.707031 409.59375 C 791.003906 408.972656 790.28125 408.375 789.539062 407.804688 C 789.347656 407.65625 789.15625 407.507812 788.964844 407.363281 C 787.105469 405.984375 785.140625 404.765625 783.078125 403.71875 C 782.949219 403.652344 782.820312 403.589844 782.6875 403.527344 C 781.753906 403.0625 780.808594 402.636719 779.839844 402.246094 C 779.699219 402.191406 779.558594 402.128906 779.414062 402.074219 C 777.300781 401.246094 775.113281 400.589844 772.867188 400.117188 C 772.574219 400.054688 772.277344 400.003906 771.976562 399.945312 C 771.164062 399.792969 770.34375 399.664062 769.515625 399.5625 C 769.179688 399.519531 768.847656 399.46875 768.511719 399.433594 C 767.445312 399.328125 766.375 399.25 765.296875 399.226562 C 765.015625 399.21875 764.734375 399.234375 764.457031 399.234375 C 763.824219 399.230469 763.191406 399.222656 762.554688 399.246094 C 761.789062 399.28125 685.230469 402.597656 608.84375 407.324219 C 563.714844 410.121094 527.367188 412.863281 500.820312 415.476562 C 451.847656 420.289062 429.679688 423.351562 417.398438 445.410156 C 414.339844 450.902344 411.714844 458.289062 411.699219 467.351562 C 410.308594 467.734375 408.933594 468.15625 407.574219 468.628906 C 402.636719 464.0625 396.789062 460.484375 390.359375 458.289062 C 375.238281 453.152344 359.207031 456.078125 346.941406 464.691406 C 340.199219 446.339844 322.804688 433.390625 302.328125 432.984375 C 286.746094 432.6875 273.019531 435.550781 260.851562 438.085938 L 256.152344 439.054688 C 253.707031 439.550781 251.347656 440.257812 249.035156 441.058594 C 242.550781 436.253906 234.820312 433.023438 226.359375 431.984375 C 220.578125 431.277344 214.871094 431.628906 209.460938 432.910156 C 201.449219 427.078125 191.578125 423.714844 180.996094 423.714844 C 180.875 423.714844 180.746094 423.714844 180.621094 423.714844 C 167.648438 423.8125 155.8125 428.949219 147.148438 437.429688 C 145.652344 437.351562 144.144531 437.328125 142.621094 437.390625 L 132.167969 437.820312 C 131.074219 437.828125 129.984375 437.875 128.910156 437.957031 L 118.070312 438.402344 C 115.578125 438.503906 113.117188 438.867188 110.6875 439.359375 C 106.570312 438.472656 102.296875 438.089844 97.921875 438.367188 C 85.519531 439.140625 74.734375 442.269531 66.070312 444.785156 L 64.726562 445.175781 C 62.167969 445.914062 60.011719 446.476562 58.042969 446.910156 L 57.855469 446.929688 C 57.269531 446.894531 56.691406 446.875 56.113281 446.867188 C 45.871094 446.539062 36.527344 449.042969 28.238281 454.367188 C 17.109375 461.511719 9.359375 472.96875 6.964844 485.832031 C 4.472656 499.300781 7.789062 513.324219 16.070312 524.308594 C 19.578125 528.957031 23.878906 532.863281 28.703125 535.878906 L 31.023438 572.671875 C 31.839844 585.605469 37.960938 597.890625 47.816406 606.386719 C 48.898438 607.320312 50.015625 608.199219 51.15625 609.023438 C 45.742188 617.875 42.824219 628.152344 43.121094 639.105469 C 43.40625 649.382812 46.4375 658.125 50.253906 665.210938 C 49.960938 666.257812 49.699219 667.324219 49.472656 668.40625 C 45.523438 687.066406 49.8125 706.945312 61.558594 724.378906 C 73.035156 741.410156 90.304688 753.074219 108.933594 756.378906 C 112.449219 757.003906 115.996094 757.304688 119.539062 757.304688 C 130.859375 757.304688 142.121094 754.191406 152.023438 748.566406 C 159.246094 752.796875 167.386719 755.027344 175.800781 755.027344 C 177.171875 755.027344 178.554688 754.96875 179.9375 754.851562 C 191.953125 753.808594 202.609375 748.34375 210.480469 740.265625 C 217.277344 745.195312 224.875 748.707031 232.96875 750.550781 C 237.535156 751.59375 242.148438 752.101562 246.71875 752.101562 C 256.265625 752.101562 265.636719 749.878906 274.074219 745.675781 C 279.542969 748.121094 285.558594 749.621094 291.9375 749.941406 C 293.296875 750.011719 294.652344 750.046875 296.015625 750.046875 C 310.375 750.046875 324.914062 746.285156 337.847656 739.253906 C 346.589844 744.585938 356.402344 747.253906 366.273438 747.253906 C 380.949219 747.253906 395.734375 741.414062 407.246094 729.914062 C 413.71875 723.453125 417.582031 716.570312 419.667969 712.84375 C 421.710938 709.207031 423.695312 705.324219 425.589844 701.285156 C 432.253906 687.03125 436.832031 672.976562 441.328125 658.613281 L 441.664062 657.546875 C 444.578125 648.253906 448.984375 634.210938 446.875 617.589844 C 446.875 617.578125 446.875 617.566406 446.871094 617.550781 C 446.671875 616 446.398438 614.480469 446.066406 612.984375 C 456.527344 610.742188 466.472656 605.988281 475.039062 598.878906 C 481.527344 593.496094 486.964844 586.941406 491.175781 579.691406 C 491.261719 580.535156 491.34375 581.375 491.433594 582.222656 C 492.609375 593.472656 493.761719 602.285156 494.96875 609.15625 C 499.742188 636.40625 512.851562 651.503906 533.894531 654.132812 C 534.238281 654.179688 534.578125 654.230469 534.925781 654.269531 C 535.160156 654.292969 535.386719 654.335938 535.625 654.359375 C 537.164062 654.496094 538.65625 654.566406 540.117188 654.566406 C 542.886719 654.566406 545.5 654.273438 548.027344 653.789062 L 579.875 650.019531 C 608.421875 676.976562 624.070312 681.40625 635.90625 681.40625 C 637.292969 681.40625 638.628906 681.347656 639.925781 681.253906 C 664.027344 679.550781 678.699219 660.480469 698.339844 631.578125 C 710.0625 614.324219 724.957031 590.59375 742.601562 561.050781 C 772.273438 511.375 800.1875 461.1875 800.464844 460.683594 C 800.851562 459.996094 801.199219 459.292969 801.539062 458.589844 C 801.621094 458.421875 801.710938 458.257812 801.789062 458.089844 C 802.238281 457.125 802.636719 456.148438 803.007812 455.164062 C 803.125 454.855469 803.226562 454.546875 803.335938 454.234375 C 803.609375 453.453125 803.859375 452.664062 804.085938 451.871094 C 804.171875 451.566406 804.261719 451.265625 804.339844 450.960938 C 804.617188 449.890625 804.863281 448.816406 805.054688 447.734375 C 805.066406 447.671875 805.070312 447.609375 805.082031 447.546875 C 805.253906 446.53125 805.382812 445.511719 805.476562 444.488281 C 805.511719 444.117188 805.535156 443.75 805.5625 443.378906 C 805.613281 442.621094 805.640625 441.863281 805.652344 441.105469 C 805.65625 440.722656 805.667969 440.34375 805.664062 439.960938 C 805.648438 438.921875 805.597656 437.882812 805.503906 436.847656 Z M 805.503906 436.847656 " fill-opacity="1" fill-rule="nonzero"/><g clip-path="url(#7dc18fd6cc)"><path fill="#ede6e2" d="M 119.539062 761.441406 C 115.71875 761.441406 111.90625 761.109375 108.210938 760.453125 C 88.488281 756.953125 70.234375 744.648438 58.132812 726.691406 C 45.753906 708.324219 41.242188 687.320312 45.425781 667.546875 C 45.558594 666.929688 45.699219 666.316406 45.847656 665.707031 C 41.546875 657.246094 39.242188 648.34375 38.992188 639.21875 C 38.710938 629.046875 41.054688 619.050781 45.792969 610.09375 C 45.5625 609.902344 45.339844 609.710938 45.113281 609.519531 C 34.421875 600.304688 27.785156 586.964844 26.898438 572.929688 L 24.707031 538.207031 C 20.132812 535.074219 16.125 531.242188 12.773438 526.796875 C 3.792969 514.890625 0.195312 499.683594 2.902344 485.074219 C 5.5 471.105469 13.921875 458.644531 26.003906 450.882812 C 34.984375 445.121094 45.167969 442.355469 56.246094 442.730469 C 56.667969 442.738281 57.121094 442.753906 57.585938 442.769531 C 59.351562 442.371094 61.269531 441.867188 63.578125 441.199219 L 64.914062 440.8125 C 73.773438 438.238281 84.796875 435.039062 97.667969 434.238281 C 101.941406 433.964844 106.316406 434.269531 110.707031 435.136719 C 113.320312 434.644531 115.675781 434.359375 117.894531 434.265625 L 128.742188 433.820312 C 129.769531 433.742188 130.953125 433.691406 132.140625 433.683594 L 142.449219 433.253906 C 143.464844 433.214844 144.496094 433.207031 145.570312 433.230469 C 155.113281 424.511719 167.476562 419.675781 180.589844 419.578125 L 180.996094 419.578125 C 191.597656 419.578125 201.707031 422.648438 210.347656 428.484375 C 215.78125 427.40625 221.324219 427.203125 226.863281 427.878906 C 235.03125 428.882812 242.886719 431.84375 249.714844 436.472656 C 251.714844 435.839844 253.535156 435.363281 255.332031 435 L 260.015625 434.035156 C 272.394531 431.457031 286.421875 428.5625 302.40625 428.847656 C 322.585938 429.25 340.308594 440.757812 348.851562 458.589844 C 361.894531 451.179688 377.558594 449.570312 391.6875 454.375 C 397.507812 456.359375 402.886719 459.351562 407.730469 463.292969 C 408.304688 456.273438 410.335938 449.597656 413.789062 443.394531 C 427.078125 419.519531 449.949219 416.320312 500.414062 411.355469 C 527.007812 408.742188 563.402344 405.992188 608.589844 403.195312 C 685.558594 398.429688 761.648438 395.144531 762.378906 395.113281 C 762.976562 395.089844 763.554688 395.089844 764.148438 395.09375 L 764.472656 395.097656 L 765.375 395.089844 C 766.578125 395.117188 767.753906 395.203125 768.925781 395.320312 C 769.195312 395.34375 769.480469 395.382812 769.765625 395.421875 L 770.042969 395.457031 C 770.933594 395.566406 771.832031 395.710938 772.730469 395.878906 L 773.71875 396.070312 C 776.171875 396.585938 778.59375 397.3125 780.921875 398.21875 L 781.335938 398.386719 C 782.453125 398.839844 783.496094 399.308594 784.523438 399.820312 L 784.988281 400.050781 C 787.203125 401.175781 789.382812 402.523438 791.425781 404.042969 L 792.070312 404.535156 C 792.875 405.152344 793.671875 405.8125 794.445312 406.496094 L 795.019531 407 C 795.9375 407.84375 796.8125 408.703125 797.652344 409.609375 C 797.777344 409.742188 797.929688 409.914062 798.078125 410.089844 C 798.847656 410.960938 799.457031 411.6875 800.050781 412.433594 C 800.320312 412.777344 800.578125 413.113281 800.828125 413.453125 C 801.410156 414.242188 801.980469 415.0625 802.519531 415.90625 C 802.738281 416.226562 802.855469 416.394531 802.960938 416.574219 C 803.667969 417.707031 804.25 418.765625 804.792969 419.832031 L 804.957031 420.121094 C 805.070312 420.351562 805.144531 420.523438 805.21875 420.691406 C 805.671875 421.644531 806.074219 422.542969 806.445312 423.453125 C 806.636719 423.921875 806.746094 424.183594 806.84375 424.453125 C 807.269531 425.574219 807.660156 426.714844 808 427.871094 L 808.246094 428.832031 C 808.480469 429.707031 808.6875 430.570312 808.867188 431.445312 C 808.960938 431.902344 809.046875 432.359375 809.128906 432.816406 C 809.277344 433.675781 809.390625 434.511719 809.484375 435.347656 L 809.527344 435.648438 C 809.5625 435.929688 809.597656 436.214844 809.625 436.492188 C 809.726562 437.628906 809.78125 438.761719 809.796875 439.898438 C 809.804688 440.222656 809.796875 440.53125 809.789062 440.847656 L 809.785156 441.164062 C 809.777344 441.988281 809.742188 442.824219 809.6875 443.65625 C 809.660156 444.058594 809.632812 444.46875 809.59375 444.878906 C 809.484375 446.007812 809.347656 447.128906 809.15625 448.25 C 808.917969 449.640625 808.644531 450.820312 808.34375 452 L 808.132812 452.753906 C 807.816406 453.871094 807.539062 454.742188 807.238281 455.605469 L 806.875 456.621094 C 806.472656 457.699219 806.03125 458.78125 805.53125 459.839844 L 805.332031 460.253906 C 804.886719 461.167969 804.5 461.933594 804.082031 462.691406 C 801.082031 468.082031 774.429688 515.824219 746.152344 563.171875 C 728.457031 592.800781 713.519531 616.59375 701.757812 633.90625 C 681.4375 663.808594 666.175781 683.542969 640.214844 685.378906 C 638.824219 685.480469 637.394531 685.542969 635.90625 685.542969 C 635.90625 685.542969 635.898438 685.542969 635.894531 685.542969 C 624.003906 685.542969 607.886719 681.796875 578.449219 654.351562 L 548.65625 657.878906 C 544.09375 658.742188 539.917969 658.894531 535.257812 658.480469 C 535.046875 658.460938 534.84375 658.433594 534.640625 658.402344 C 534.214844 658.351562 533.925781 658.3125 533.632812 658.273438 L 533.347656 658.234375 C 510.308594 655.355469 496.015625 639.082031 490.894531 609.867188 C 490.003906 604.78125 489.136719 598.640625 488.273438 591.257812 C 485.097656 595.230469 481.558594 598.847656 477.679688 602.0625 C 469.816406 608.589844 460.605469 613.386719 450.839844 616.074219 C 450.886719 616.378906 450.925781 616.691406 450.96875 616.996094 C 450.96875 617.019531 450.976562 617.046875 450.976562 617.070312 C 453.199219 634.585938 448.632812 649.148438 445.609375 658.78125 L 445.273438 659.847656 C 440.738281 674.34375 436.105469 688.554688 429.332031 703.039062 C 427.394531 707.175781 425.355469 711.15625 423.277344 714.871094 C 421.097656 718.746094 417.046875 725.972656 410.167969 732.839844 C 398.199219 744.800781 382.609375 751.386719 366.273438 751.386719 C 356.289062 751.386719 346.476562 748.832031 337.75 743.980469 C 323.394531 751.328125 307.398438 754.839844 291.734375 754.074219 C 285.65625 753.773438 279.757812 752.472656 274.179688 750.214844 C 261.160156 756.214844 246.105469 757.78125 232.050781 754.585938 C 224.578125 752.882812 217.480469 749.859375 210.914062 745.582031 C 202.382812 753.269531 191.632812 757.988281 180.292969 758.96875 C 170.449219 759.816406 160.660156 757.832031 152.011719 753.285156 C 141.863281 758.628906 130.6875 761.441406 119.539062 761.441406 Z M 54.410156 450.976562 C 45.605469 450.976562 37.578125 453.285156 30.472656 457.847656 C 20.300781 464.378906 13.214844 474.855469 11.03125 486.585938 C 8.75 498.914062 11.789062 511.753906 19.371094 521.816406 C 22.546875 526.023438 26.421875 529.574219 30.894531 532.371094 C 32.023438 533.078125 32.746094 534.289062 32.832031 535.617188 L 35.148438 572.410156 C 35.894531 584.234375 41.496094 595.476562 50.515625 603.253906 C 51.480469 604.085938 52.507812 604.898438 53.570312 605.664062 C 55.328125 606.929688 55.8125 609.335938 54.683594 611.183594 C 49.554688 619.566406 46.988281 629.183594 47.253906 638.992188 C 47.484375 647.339844 49.71875 655.496094 53.894531 663.246094 C 54.402344 664.1875 54.523438 665.292969 54.238281 666.324219 C 53.96875 667.289062 53.726562 668.269531 53.519531 669.261719 C 49.800781 686.820312 53.875 705.574219 64.988281 722.066406 C 75.84375 738.175781 92.125 749.195312 109.65625 752.304688 C 122.96875 754.664062 137.53125 752.042969 149.984375 744.96875 C 151.269531 744.242188 152.839844 744.25 154.113281 744.996094 C 161.789062 749.488281 170.664062 751.480469 179.585938 750.726562 C 190.097656 749.816406 200.019531 745.074219 207.519531 737.378906 C 208.949219 735.90625 211.238281 735.710938 212.902344 736.914062 C 219.347656 741.585938 226.40625 744.8125 233.886719 746.515625 C 246.730469 749.445312 260.527344 747.804688 272.230469 741.972656 C 273.34375 741.421875 274.636719 741.390625 275.761719 741.898438 C 280.929688 744.210938 286.441406 745.523438 292.140625 745.808594 C 307.0625 746.546875 322.316406 742.984375 335.875 735.617188 C 337.167969 734.914062 338.734375 734.953125 340 735.71875 C 347.929688 740.558594 357.015625 743.113281 366.273438 743.113281 C 380.402344 743.113281 393.917969 737.386719 404.328125 726.984375 C 410.398438 720.925781 414.085938 714.351562 416.0625 710.820312 C 418.050781 707.28125 419.992188 703.480469 421.84375 699.527344 C 428.398438 685.511719 432.933594 671.589844 437.382812 657.375 L 437.714844 656.308594 C 440.523438 647.363281 444.761719 633.851562 442.78125 618.144531 C 442.777344 618.121094 442.773438 618.101562 442.773438 618.078125 C 442.59375 616.714844 442.351562 615.339844 442.027344 613.878906 C 441.792969 612.800781 441.992188 611.675781 442.589844 610.75 C 443.183594 609.820312 444.121094 609.171875 445.203125 608.9375 C 455.113281 606.816406 464.515625 602.234375 472.402344 595.691406 C 478.417969 590.703125 483.53125 584.621094 487.601562 577.613281 C 488.5 576.066406 490.28125 575.273438 492.046875 575.644531 C 493.796875 576.027344 495.105469 577.488281 495.289062 579.273438 L 495.546875 581.789062 C 496.714844 592.96875 497.855469 601.683594 499.039062 608.441406 C 503.519531 634.011719 515.085938 647.613281 534.40625 650.027344 L 535.859375 650.21875 C 540.148438 650.621094 543.378906 650.464844 547.25 649.726562 C 547.34375 649.707031 547.441406 649.691406 547.542969 649.679688 L 579.390625 645.914062 C 580.601562 645.773438 581.820312 646.167969 582.710938 647.011719 C 610.941406 673.667969 625.441406 677.269531 635.898438 677.269531 C 635.898438 677.269531 635.902344 677.269531 635.90625 677.269531 C 637.195312 677.269531 638.433594 677.210938 639.636719 677.128906 C 661.875 675.554688 675.964844 657.148438 694.921875 629.25 C 706.589844 612.078125 721.441406 588.414062 739.054688 558.929688 C 767.269531 511.683594 793.863281 464.039062 796.804688 458.765625 C 797.195312 458.054688 797.511719 457.421875 797.820312 456.785156 C 797.832031 456.761719 797.945312 456.535156 797.957031 456.511719 C 798.445312 455.472656 798.804688 454.597656 799.132812 453.714844 L 799.367188 453.058594 C 799.679688 452.164062 799.902344 451.460938 800.101562 450.75 L 800.332031 449.9375 C 800.585938 448.957031 800.8125 447.988281 800.984375 447.011719 C 801.164062 445.933594 801.277344 445.015625 801.363281 444.097656 C 801.390625 443.769531 801.414062 443.4375 801.433594 443.109375 C 801.484375 442.417969 801.507812 441.742188 801.515625 441.0625 L 801.53125 440.019531 C 801.515625 439.089844 801.472656 438.15625 801.386719 437.222656 C 801.386719 437.21875 801.386719 437.210938 801.386719 437.203125 L 801.269531 436.296875 C 801.191406 435.597656 801.097656 434.921875 800.984375 434.246094 C 800.917969 433.882812 800.847656 433.5 800.769531 433.113281 C 800.621094 432.398438 800.449219 431.683594 800.261719 430.96875 L 800.058594 430.171875 C 799.785156 429.238281 799.460938 428.300781 799.109375 427.371094 L 798.886719 426.820312 C 798.484375 425.824219 798.152344 425.085938 797.800781 424.355469 L 797.4375 423.609375 C 796.984375 422.730469 796.511719 421.859375 795.992188 421.015625 L 795.578125 420.402344 C 795.128906 419.699219 794.660156 419.027344 794.175781 418.371094 C 793.96875 418.085938 793.761719 417.820312 793.550781 417.554688 C 793.078125 416.949219 792.578125 416.351562 792.058594 415.773438 L 791.609375 415.257812 C 790.898438 414.488281 790.183594 413.785156 789.445312 413.113281 L 789.167969 412.871094 C 788.335938 412.136719 787.6875 411.597656 787.019531 411.085938 L 786.492188 410.679688 C 784.832031 409.445312 783.046875 408.34375 781.207031 407.40625 L 782.6875 403.527344 L 780.851562 407.234375 C 780.011719 406.816406 779.160156 406.4375 778.292969 406.082031 L 777.890625 405.917969 C 776.007812 405.179688 774.023438 404.589844 772.011719 404.164062 L 771.445312 404.054688 C 770.492188 403.878906 769.753906 403.761719 769.007812 403.667969 L 768.117188 403.554688 C 767.136719 403.453125 766.171875 403.382812 765.203125 403.363281 L 764.457031 403.371094 L 764.09375 403.367188 C 763.628906 403.367188 763.183594 403.355469 762.730469 403.382812 C 762 403.410156 685.988281 406.691406 609.101562 411.453125 C 564.015625 414.246094 527.71875 416.984375 501.222656 419.59375 C 453.746094 424.261719 432.28125 427.175781 421.011719 447.421875 C 417.589844 453.570312 415.847656 460.273438 415.835938 467.359375 C 415.832031 469.21875 414.589844 470.847656 412.796875 471.339844 C 411.496094 471.699219 410.203125 472.09375 408.933594 472.535156 C 407.488281 473.035156 405.890625 472.703125 404.773438 471.664062 C 400.121094 467.367188 394.820312 464.183594 389.023438 462.207031 C 375.808594 457.714844 360.953125 459.90625 349.316406 468.074219 C 348.265625 468.8125 346.929688 469.023438 345.707031 468.636719 C 344.484375 468.253906 343.503906 467.324219 343.0625 466.117188 C 336.726562 448.867188 320.703125 437.488281 302.25 437.121094 C 287.136719 436.839844 273.648438 439.648438 261.734375 442.128906 L 256.988281 443.105469 C 254.957031 443.515625 252.867188 444.105469 250.390625 444.964844 C 249.097656 445.414062 247.671875 445.195312 246.574219 444.382812 C 240.496094 439.875 233.332031 437.011719 225.855469 436.09375 C 220.652344 435.453125 215.464844 435.738281 210.414062 436.9375 C 209.234375 437.207031 208.003906 436.96875 207.027344 436.257812 C 199.476562 430.757812 190.476562 427.851562 180.996094 427.851562 L 180.621094 427.851562 C 169.078125 427.9375 158.207031 432.390625 150.039062 440.386719 C 149.210938 441.195312 148.082031 441.589844 146.933594 441.558594 C 145.457031 441.484375 144.101562 441.472656 142.789062 441.523438 L 132.339844 441.957031 C 131.199219 441.964844 130.203125 442.007812 129.222656 442.082031 L 118.238281 442.535156 C 116.226562 442.617188 114.023438 442.90625 111.503906 443.414062 C 110.949219 443.527344 110.375 443.527344 109.820312 443.402344 C 105.886719 442.558594 101.976562 442.25 98.1875 442.496094 C 86.222656 443.238281 75.6875 446.296875 67.222656 448.753906 L 65.882812 449.144531 C 63.203125 449.921875 60.996094 450.492188 58.933594 450.949219 C 58.777344 450.984375 58.617188 451.007812 58.457031 451.023438 C 58.242188 451.046875 57.824219 451.054688 57.628906 451.058594 C 57.09375 451.027344 56.566406 451.011719 56.035156 451.003906 C 55.492188 450.984375 54.949219 450.976562 54.410156 450.976562 Z M 54.410156 450.976562 " fill-opacity="1" fill-rule="nonzero"/></g><path fill="#39bca7" d="M 101.046875 493.246094 C 99.929688 493.316406 98.820312 493.417969 97.710938 493.554688 C 97.25 493.609375 96.789062 493.675781 96.328125 493.746094 C 95.902344 493.808594 95.613281 493.835938 95.621094 493.828125 C 93.789062 494.089844 91.9375 494.644531 90.164062 495.101562 C 87.199219 495.859375 84.265625 496.734375 81.328125 497.59375 C 82.84375 521.566406 84.355469 545.539062 85.871094 569.511719 C 86.113281 573.316406 82.964844 576.28125 79.359375 576.589844 C 75.640625 576.910156 72.511719 573.621094 72.285156 570.074219 C 70.832031 547.015625 69.375 523.953125 67.917969 500.898438 C 67.214844 501.027344 66.511719 501.148438 65.804688 501.261719 C 61.40625 501.964844 57.132812 501.957031 52.707031 501.535156 C 48.921875 501.171875 47.019531 496.597656 47.617188 493.367188 C 47.921875 491.734375 49.195312 490.0625 50.570312 489.179688 C 52.253906 488.097656 53.871094 488.097656 55.777344 488.28125 C 54.109375 488.121094 55.800781 488.253906 56.179688 488.273438 C 56.734375 488.296875 57.285156 488.304688 57.839844 488.304688 C 58.757812 488.304688 59.675781 488.269531 60.59375 488.207031 C 61.507812 488.148438 62.421875 488.058594 63.332031 487.945312 C 63.882812 487.875 64.425781 487.792969 64.972656 487.714844 C 65.042969 487.703125 65.101562 487.695312 65.152344 487.691406 C 68.886719 486.929688 72.5625 485.972656 76.222656 484.914062 C 84.179688 482.609375 92.171875 480.175781 100.488281 479.65625 C 104.289062 479.421875 107.246094 482.5625 107.558594 486.171875 C 107.878906 489.890625 104.589844 493.027344 101.046875 493.246094 Z M 101.046875 493.246094 " fill-opacity="1" fill-rule="nonzero"/><path fill="#fcb4c4" d="M 153.140625 568.492188 C 146.328125 570.394531 139.515625 572.292969 132.703125 574.199219 C 129.03125 575.222656 125.472656 573.359375 124.152344 569.792969 C 122.914062 566.4375 125.125 562.195312 128.554688 561.238281 C 130.210938 560.777344 131.867188 560.3125 133.523438 559.851562 C 130.195312 537.695312 127.972656 515.414062 126.070312 493.09375 C 124.164062 493.171875 122.257812 493.25 120.347656 493.328125 C 116.542969 493.484375 113.59375 490.488281 113.277344 486.8125 C 112.964844 483.148438 116.238281 479.882812 119.789062 479.734375 C 123.753906 479.574219 127.71875 479.410156 131.683594 479.246094 C 131.792969 479.230469 131.90625 479.222656 132.015625 479.210938 C 132.292969 479.1875 132.570312 479.1875 132.839844 479.199219 C 136.671875 479.039062 140.503906 478.882812 144.332031 478.726562 C 148.140625 478.570312 151.085938 481.566406 151.40625 485.242188 C 151.71875 488.90625 148.445312 492.171875 144.890625 492.316406 C 143.144531 492.390625 141.402344 492.460938 139.65625 492.535156 C 141.46875 513.8125 143.574219 535.054688 146.648438 556.1875 C 147.429688 555.96875 148.210938 555.75 148.996094 555.535156 C 152.667969 554.507812 156.226562 556.371094 157.546875 559.9375 C 158.785156 563.292969 156.574219 567.535156 153.140625 568.492188 Z M 153.140625 568.492188 " fill-opacity="1" fill-rule="nonzero"/><path fill="#febe5b" d="M 242.917969 552.335938 C 239.664062 554.523438 235.703125 552.898438 233.578125 550.0625 C 224.792969 538.347656 219.996094 524.792969 217.238281 510.695312 C 214.957031 517.96875 212.789062 525.269531 210.742188 532.613281 C 209.179688 538.226562 201.457031 539.503906 198.351562 534.460938 C 192.105469 524.324219 187.101562 513.542969 183.007812 502.410156 C 182.785156 505.148438 182.601562 507.886719 182.476562 510.632812 C 182.199219 516.648438 182.164062 522.679688 182.363281 528.703125 C 182.5625 534.738281 183 540.769531 183.675781 546.777344 C 183.859375 548.398438 184.058594 550.019531 184.277344 551.636719 C 184.351562 552.191406 184.425781 552.75 184.507812 553.304688 C 184.566406 553.683594 184.679688 554.441406 184.71875 554.679688 C 185.195312 557.71875 185.734375 560.75 186.328125 563.769531 C 187.066406 567.515625 185.394531 570.925781 181.65625 572.171875 C 178.371094 573.269531 173.945312 570.996094 173.253906 567.496094 C 171.804688 560.113281 170.675781 552.660156 169.890625 545.175781 C 167.261719 520.132812 168.792969 494.621094 174.339844 470.0625 C 175.808594 463.566406 185.878906 463.339844 187.460938 469.886719 C 189.972656 480.257812 192.9375 490.53125 196.734375 500.507812 C 197.671875 502.964844 198.660156 505.402344 199.695312 507.820312 C 199.71875 507.878906 199.742188 507.933594 199.761719 507.980469 C 199.800781 508.0625 199.84375 508.160156 199.898438 508.285156 C 200.179688 508.902344 200.457031 509.523438 200.742188 510.136719 C 201.222656 511.191406 201.722656 512.238281 202.226562 513.28125 C 205.824219 501.441406 209.71875 489.691406 213.929688 478.050781 C 215.097656 474.824219 217.773438 472.613281 221.328125 473.046875 C 224.78125 473.46875 227.113281 476.277344 227.3125 479.6875 C 227.675781 485.886719 228.148438 492.085938 228.90625 498.253906 C 229.003906 499.019531 229.101562 499.789062 229.203125 500.554688 C 229.238281 500.808594 229.277344 501.058594 229.308594 501.308594 C 229.320312 501.390625 229.335938 501.484375 229.351562 501.601562 C 229.5625 502.914062 229.769531 504.226562 230.003906 505.53125 C 230.511719 508.375 231.105469 511.199219 231.800781 514.003906 C 232.484375 516.742188 233.269531 519.460938 234.179688 522.132812 C 234.582031 523.332031 235.011719 524.519531 235.464844 525.695312 C 235.726562 526.367188 235.992188 527.03125 236.269531 527.699219 C 236.34375 527.882812 236.421875 528.070312 236.5 528.253906 C 236.53125 528.320312 236.570312 528.398438 236.609375 528.5 C 239.023438 533.613281 241.796875 538.457031 245.195312 542.988281 C 247.480469 546.03125 245.734375 550.449219 242.917969 552.335938 Z M 242.917969 552.335938 " fill-opacity="1" fill-rule="nonzero"/><path fill="#f06063" d="M 311.523438 552.660156 C 307.851562 556.808594 302.613281 559.328125 297.679688 561.605469 C 293.113281 563.710938 288.363281 565.460938 283.539062 566.882812 C 281.3125 567.535156 279.046875 568.144531 276.738281 568.425781 C 272.429688 568.949219 268.179688 567.339844 265.59375 563.796875 C 263.753906 561.285156 262.953125 557.839844 262.140625 554.871094 C 261.320312 551.859375 260.671875 548.808594 260.125 545.738281 C 257.898438 533.238281 257.464844 520.597656 256.621094 507.957031 C 256.28125 502.851562 255.605469 497.804688 255.105469 492.71875 C 254.855469 490.164062 255.183594 487.414062 256.40625 485.125 C 258.054688 482.03125 261.007812 480.28125 264.347656 479.605469 C 276.550781 477.128906 288.980469 474.097656 301.511719 474.34375 C 305.324219 474.421875 308.25 477 308.578125 480.863281 C 308.882812 484.371094 305.628906 488.007812 302.070312 487.9375 C 295.847656 487.816406 289.648438 488.578125 283.527344 489.605469 C 283.230469 489.65625 282.9375 489.703125 282.644531 489.75 C 282.601562 489.761719 282.550781 489.769531 282.484375 489.78125 C 281.636719 489.945312 280.789062 490.09375 279.941406 490.257812 C 278.453125 490.542969 276.96875 490.835938 275.484375 491.136719 C 274.03125 491.425781 272.582031 491.722656 271.136719 492.019531 C 270.34375 492.183594 269.550781 492.347656 268.761719 492.507812 C 268.757812 492.507812 268.753906 492.507812 268.75 492.507812 C 268.871094 493.609375 269.039062 494.703125 269.171875 495.804688 C 269.816406 501.132812 270.167969 506.492188 270.484375 511.847656 C 270.566406 513.277344 270.648438 514.703125 270.730469 516.128906 C 277.703125 514.835938 284.671875 513.542969 291.640625 512.246094 C 295.398438 511.550781 298.78125 512.835938 300.191406 516.652344 C 301.351562 519.792969 299.300781 524.554688 295.792969 525.207031 C 288.046875 526.644531 280.300781 528.078125 272.558594 529.515625 C 272.253906 529.574219 271.953125 529.613281 271.65625 529.644531 C 271.871094 532.058594 272.117188 534.472656 272.421875 536.882812 C 272.601562 538.300781 272.796875 539.714844 273.019531 541.128906 C 273.078125 541.503906 273.136719 541.878906 273.199219 542.257812 C 273.203125 542.277344 273.210938 542.3125 273.21875 542.359375 C 273.253906 542.574219 273.3125 542.882812 273.328125 542.984375 C 273.378906 543.261719 273.433594 543.542969 273.488281 543.820312 C 274.03125 546.601562 274.683594 549.359375 275.476562 552.074219 C 275.734375 552.972656 276.007812 553.871094 276.300781 554.757812 C 276.835938 554.621094 277.375 554.492188 277.90625 554.34375 C 279.636719 553.871094 281.347656 553.339844 283.042969 552.773438 C 285.070312 552.09375 287.082031 551.355469 289.066406 550.5625 C 290.09375 550.152344 291.117188 549.726562 292.125 549.277344 C 292.347656 549.179688 293.34375 548.585938 293.519531 548.644531 C 293.574219 548.617188 293.636719 548.585938 293.695312 548.554688 C 295.449219 547.691406 297.171875 546.753906 298.808594 545.679688 C 299.472656 545.242188 300.089844 544.742188 300.730469 544.273438 C 300.757812 544.246094 300.785156 544.21875 300.820312 544.1875 C 301.0625 543.949219 301.292969 543.703125 301.519531 543.445312 C 304.039062 540.597656 308.359375 540.710938 311.125 543.046875 C 313.96875 545.453125 313.878906 549.996094 311.523438 552.660156 Z M 268.621094 490.960938 C 268.621094 490.964844 268.621094 490.96875 268.617188 490.976562 C 268.617188 490.992188 268.621094 491.003906 268.621094 491.019531 C 268.757812 490.710938 268.839844 490.515625 268.621094 490.960938 Z M 293.113281 548.84375 C 293.242188 548.78125 293.367188 548.71875 293.492188 548.65625 C 293.277344 548.734375 292.070312 549.355469 293.113281 548.84375 Z M 301.089844 544.015625 C 301.027344 544.058594 300.96875 544.101562 300.914062 544.144531 C 300.972656 544.101562 301.03125 544.058594 301.089844 544.015625 Z M 301.089844 544.015625 " fill-opacity="1" fill-rule="nonzero"/><path fill="#7fbae6" d="M 403.140625 565.972656 C 397.792969 571.855469 391.144531 576.472656 383.90625 579.320312 C 381.800781 580.148438 379.3125 580.996094 376.476562 580.578125 C 375.84375 580.484375 375.214844 580.332031 374.605469 580.125 C 372.597656 579.441406 370.773438 578.164062 369.191406 576.324219 C 366.960938 573.738281 365.292969 570.355469 364.101562 565.984375 C 362.074219 558.558594 361.574219 550.664062 361.367188 544.617188 C 361.339844 543.839844 361.320312 543.046875 361.3125 542.238281 C 360.785156 542.238281 360.265625 542.226562 359.753906 542.199219 C 359.046875 542.164062 358.363281 542.035156 357.730469 541.820312 C 354.503906 540.726562 352.660156 537.324219 353.34375 533.738281 C 354.03125 530.140625 356.921875 527.847656 360.539062 528.03125 C 361.097656 528.058594 361.578125 528.074219 362.019531 528.070312 C 363.023438 519.132812 365.0625 510.332031 368.089844 501.863281 C 369.398438 498.203125 373.425781 496.230469 377.066406 497.464844 C 378.835938 498.066406 380.324219 499.40625 381.160156 501.136719 C 381.992188 502.859375 382.109375 504.765625 381.484375 506.507812 C 379.242188 512.78125 377.628906 519.050781 376.691406 525.144531 C 380.222656 524.398438 384.089844 523.867188 388.078125 524.1875 C 388.671875 524.238281 389.257812 524.359375 389.820312 524.550781 C 392.871094 525.589844 394.875 528.523438 394.683594 531.683594 C 394.574219 533.558594 393.671875 535.359375 392.210938 536.632812 C 390.769531 537.886719 388.96875 538.496094 387.136719 538.347656 C 384.839844 538.160156 383.757812 538.257812 381.464844 538.65625 C 379.460938 539.003906 377.503906 539.488281 375.441406 540.003906 C 375.335938 547.394531 376.03125 554.507812 377.515625 561.179688 C 377.816406 562.539062 378.171875 563.789062 378.390625 564.289062 C 378.734375 565.078125 378.992188 565.609375 379.1875 565.96875 C 379.664062 565.753906 380.257812 565.472656 380.972656 565.125 C 385.683594 562.835938 389.636719 559.835938 393.414062 555.675781 C 395.078125 553.839844 397.871094 553.238281 400.523438 554.140625 C 401.769531 554.5625 402.84375 555.265625 403.632812 556.175781 C 406.046875 558.964844 405.84375 562.992188 403.140625 565.972656 Z M 403.140625 565.972656 " fill-opacity="1" fill-rule="nonzero"/><path fill="#39bca7" d="M 458.558594 551.414062 C 457.046875 557.445312 453.53125 562.984375 448.664062 567.019531 C 443.523438 571.28125 437.308594 573.433594 431.15625 573.078125 C 430.5 573.039062 429.839844 572.972656 429.1875 572.878906 C 427.824219 572.683594 426.539062 572.148438 425.484375 571.355469 C 425.175781 571.273438 424.882812 571.171875 424.597656 571.042969 C 415.097656 566.832031 408.984375 557.378906 407.386719 544.421875 C 406.886719 540.394531 406.703125 536.066406 406.839844 531.550781 C 407.023438 525.503906 407.539062 519.183594 411.617188 514.207031 C 415.976562 508.886719 423.050781 505.96875 430.539062 506.402344 C 430.640625 506.40625 430.742188 506.414062 430.839844 506.417969 C 437.550781 506.886719 444.039062 509.894531 449.113281 514.886719 C 458.042969 523.671875 461.839844 538.351562 458.558594 551.414062 Z M 432.273438 558.925781 C 432.535156 558.929688 432.789062 558.925781 433.027344 558.917969 L 433.054688 558.914062 C 434 558.796875 435.433594 558.460938 435.867188 558.304688 C 437.539062 557.699219 439.136719 556.691406 440.613281 555.3125 C 441.527344 554.453125 441.613281 554.363281 442.351562 553.316406 C 442.984375 552.410156 443.53125 551.453125 443.859375 550.683594 C 444.824219 548.421875 445.296875 546.515625 445.488281 544.085938 C 445.679688 541.667969 445.597656 539.902344 445.191406 537.574219 C 444.824219 535.5 444.273438 533.519531 443.644531 532.003906 C 443.199219 530.9375 442.695312 529.902344 442.144531 528.929688 C 441.5625 527.90625 441.316406 527.542969 440.816406 526.894531 C 440.125 526.003906 439.382812 525.167969 438.601562 524.417969 C 438.148438 523.988281 437.78125 523.675781 436.902344 523.074219 C 435.234375 521.929688 433.796875 521.308594 431.605469 520.78125 C 431.566406 520.773438 431.53125 520.765625 431.5 520.757812 L 431.484375 520.753906 C 431.230469 520.710938 430.949219 520.675781 430.621094 520.640625 C 430.328125 520.605469 430.03125 520.582031 429.75 520.566406 C 429.53125 520.554688 429.3125 520.542969 429.089844 520.542969 C 428.199219 520.527344 428.125 520.527344 427.078125 520.730469 C 425.875 520.96875 425.703125 521.023438 424.796875 521.464844 C 423.804688 521.949219 423.804688 521.949219 423.125 522.570312 C 422.429688 523.207031 421.769531 524.546875 421.484375 525.902344 C 420.875 528.804688 420.917969 532.109375 420.957031 535.308594 L 420.964844 535.9375 C 420.972656 536.828125 420.996094 537.691406 421.035156 538.511719 C 421.054688 538.921875 421.082031 539.335938 421.105469 539.75 L 421.117188 539.933594 C 421.121094 539.972656 421.128906 540.023438 421.132812 540.082031 C 421.296875 541.597656 421.496094 543.371094 421.824219 545.070312 C 422.105469 546.527344 422.480469 547.996094 422.945312 549.445312 C 422.984375 549.542969 423.03125 549.675781 423.105469 549.871094 C 423.167969 550.050781 423.238281 550.234375 423.273438 550.320312 C 423.417969 550.671875 423.574219 551.035156 423.738281 551.386719 C 424.070312 552.101562 424.433594 552.78125 424.808594 553.414062 C 424.910156 553.578125 425.011719 553.742188 425.117188 553.90625 C 425.304688 554.160156 425.503906 554.421875 425.703125 554.664062 C 426.09375 555.140625 426.550781 555.632812 427.109375 556.171875 L 427.117188 556.183594 C 427.167969 556.222656 427.207031 556.253906 427.242188 556.285156 C 427.277344 556.308594 427.308594 556.335938 427.34375 556.363281 L 427.496094 556.472656 C 427.777344 556.679688 428.042969 556.875 428.296875 557.042969 C 428.539062 557.199219 428.8125 557.359375 429.097656 557.523438 L 429.300781 557.640625 L 429.335938 557.660156 L 429.574219 557.769531 C 430.238281 558.066406 430.847656 558.433594 431.398438 558.871094 C 431.558594 558.886719 431.714844 558.898438 431.867188 558.90625 C 432 558.914062 432.136719 558.917969 432.273438 558.925781 Z M 432.273438 558.925781 " fill-opacity="1" fill-rule="nonzero"/><path fill="#f06063" d="M 134.183594 652.15625 C 134.261719 655.976562 131.933594 659.027344 128.0625 659.570312 C 124.609375 660.054688 120.722656 657.007812 120.652344 653.441406 C 120.613281 651.492188 120.453125 649.554688 120.121094 647.632812 C 120.035156 647.125 119.828125 646.546875 119.808594 646.027344 C 119.8125 646.136719 120.253906 647.730469 119.9375 646.625 C 119.882812 646.429688 119.835938 646.234375 119.78125 646.039062 C 119.53125 645.144531 119.246094 644.265625 118.917969 643.398438 C 118.574219 642.488281 118.167969 641.613281 117.753906 640.738281 C 117.238281 639.648438 118.5 641.960938 117.863281 640.953125 C 117.628906 640.582031 117.410156 640.207031 117.167969 639.839844 C 116.65625 639.066406 116.082031 638.359375 115.5 637.636719 C 114.800781 636.765625 116.707031 638.773438 115.570312 637.722656 C 115.257812 637.433594 114.953125 637.144531 114.632812 636.875 C 114.269531 636.566406 113.890625 636.269531 113.5 635.992188 C 113.355469 635.890625 113.191406 635.800781 113.054688 635.6875 C 112.539062 635.265625 113.792969 636.144531 113.765625 636.136719 C 113.007812 635.933594 112.230469 635.3125 111.488281 635.015625 C 111.230469 634.917969 110.152344 634.578125 111.28125 634.910156 C 112.3125 635.210938 111.625 635.003906 111.40625 634.953125 C 110.972656 634.855469 110.546875 634.738281 110.109375 634.652344 C 109.273438 634.492188 108.375 634.535156 107.554688 634.34375 C 109.136719 634.707031 108.570312 634.351562 107.925781 634.398438 C 107.714844 634.414062 107.5 634.410156 107.289062 634.421875 C 106.777344 634.445312 106.269531 634.492188 105.757812 634.554688 C 105.226562 634.617188 104.707031 634.714844 104.179688 634.796875 C 102.945312 634.992188 105.414062 634.453125 103.890625 634.851562 C 102.117188 635.3125 100.464844 635.957031 98.792969 636.695312 C 98.050781 637.023438 100.234375 635.777344 99.367188 636.398438 C 99.242188 636.484375 99.109375 636.550781 98.984375 636.632812 C 98.703125 636.816406 98.425781 637.007812 98.164062 637.207031 C 97.898438 637.414062 97.019531 638.207031 97.996094 637.304688 C 98.953125 636.425781 98.171875 637.167969 97.957031 637.429688 C 97.859375 637.550781 97.777344 637.691406 97.671875 637.804688 C 97.085938 638.425781 98.355469 636.949219 98.230469 636.902344 C 98.199219 636.890625 97.902344 637.566406 97.890625 637.585938 C 97.414062 638.433594 98.132812 636.457031 98.136719 636.710938 C 98.144531 636.90625 98.039062 637.234375 97.984375 637.4375 C 97.664062 638.667969 97.90625 635.988281 97.984375 636.675781 C 98.011719 636.929688 98.003906 637.1875 98.03125 637.441406 C 98.042969 637.539062 98.152344 638.21875 98.152344 638.21875 C 98.300781 638.175781 97.496094 636.070312 98 637.460938 C 98.21875 638.046875 98.4375 638.617188 98.683594 639.191406 C 99.113281 640.191406 98.570312 638.941406 98.328125 638.578125 C 98.503906 638.84375 98.644531 639.136719 98.808594 639.410156 C 99.558594 640.632812 100.414062 641.785156 101.332031 642.886719 C 101.808594 643.460938 102.324219 644 102.804688 644.566406 C 101.273438 642.753906 102.984375 644.734375 103.457031 645.207031 C 104.589844 646.332031 105.761719 647.414062 106.964844 648.464844 C 109.363281 650.566406 111.863281 652.550781 114.414062 654.460938 C 118.789062 657.742188 123.402344 660.664062 127.425781 664.394531 C 133.035156 669.59375 138.058594 675.628906 141.164062 682.679688 C 144.496094 690.253906 144.339844 698.65625 139.523438 705.53125 C 134.46875 712.761719 124.882812 717.195312 116.148438 715.644531 C 107.769531 714.160156 100.496094 708.164062 95.835938 701.25 C 91.148438 694.292969 88.136719 685.394531 89.917969 676.972656 C 90.703125 673.246094 94.035156 670.964844 97.792969 671.453125 C 101.347656 671.914062 104.042969 675.851562 103.308594 679.335938 C 103.125 680.195312 103.066406 681.050781 102.945312 681.914062 C 102.839844 682.625 102.964844 680.890625 102.976562 680.976562 C 103 681.148438 102.96875 681.335938 102.972656 681.511719 C 102.988281 681.925781 102.992188 682.347656 103.023438 682.765625 C 103.085938 683.683594 103.238281 684.582031 103.382812 685.488281 C 103.613281 686.960938 103.007812 684.203125 103.339844 685.351562 C 103.445312 685.71875 103.539062 686.082031 103.648438 686.445312 C 104.203125 688.257812 105 689.921875 105.792969 691.632812 C 106.148438 692.402344 105.054688 690.410156 105.523438 691.121094 C 105.667969 691.335938 105.785156 691.578125 105.921875 691.800781 C 106.15625 692.199219 106.402344 692.585938 106.65625 692.972656 C 107.125 693.691406 107.625 694.390625 108.152344 695.070312 C 108.472656 695.484375 108.800781 695.894531 109.144531 696.292969 C 109.3125 696.492188 109.5 696.679688 109.660156 696.886719 C 110.097656 697.453125 109.105469 696.316406 109.136719 696.339844 C 109.828125 696.90625 110.414062 697.632812 111.089844 698.226562 C 111.753906 698.816406 112.449219 699.378906 113.167969 699.898438 C 113.367188 700.042969 114.699219 700.910156 113.675781 700.277344 C 112.691406 699.671875 113.9375 700.425781 114.207031 700.578125 C 114.996094 701.015625 115.8125 701.410156 116.65625 701.75 C 117.03125 701.898438 117.453125 702 117.820312 702.175781 C 117.878906 702.203125 116.304688 701.785156 116.980469 701.898438 C 117.148438 701.925781 117.324219 701.992188 117.488281 702.03125 C 118.328125 702.234375 119.214844 702.246094 120.046875 702.4375 C 120.691406 702.59375 119.042969 702.417969 119.082031 702.410156 C 119.296875 702.382812 119.550781 702.417969 119.773438 702.410156 C 120.171875 702.398438 120.574219 702.371094 120.972656 702.324219 C 121.367188 702.28125 121.78125 702.15625 122.175781 702.140625 C 120.347656 702.207031 121.191406 702.390625 121.933594 702.152344 C 122.335938 702.027344 122.734375 701.882812 123.117188 701.71875 C 123.398438 701.601562 124.660156 700.957031 123.726562 701.464844 C 122.683594 702.035156 124.015625 701.285156 124.121094 701.21875 C 124.3125 701.105469 124.507812 700.984375 124.695312 700.863281 C 125.121094 700.59375 125.535156 700.3125 125.945312 700.019531 C 126.277344 699.777344 126.605469 699.527344 126.925781 699.269531 C 127.105469 699.125 128.351562 698.027344 127.457031 698.835938 C 126.589844 699.621094 127.773438 698.46875 127.976562 698.238281 C 128.246094 697.929688 128.503906 697.609375 128.75 697.28125 C 128.847656 697.144531 128.941406 696.996094 129.046875 696.867188 C 129.5625 696.234375 128.285156 698.210938 128.660156 697.496094 C 128.835938 697.15625 129.035156 696.835938 129.207031 696.496094 C 129.390625 696.117188 129.527344 695.714844 129.707031 695.332031 C 130.164062 694.363281 129.34375 696.871094 129.558594 695.832031 C 129.707031 695.125 129.855469 694.4375 129.957031 693.71875 C 130.179688 692.175781 130.035156 695.039062 129.96875 694.011719 C 129.945312 693.652344 129.957031 693.289062 129.933594 692.929688 C 129.890625 692.25 129.785156 691.578125 129.679688 690.90625 C 129.417969 689.269531 130.011719 692.03125 129.734375 691.117188 C 129.625 690.753906 129.53125 690.382812 129.414062 690.019531 C 129.171875 689.277344 128.894531 688.546875 128.589844 687.832031 C 128.273438 687.09375 127.910156 686.382812 127.5625 685.660156 C 127.195312 684.910156 128.332031 687.007812 127.898438 686.292969 C 127.804688 686.144531 127.722656 685.984375 127.636719 685.835938 C 127.429688 685.476562 127.214844 685.121094 126.996094 684.773438 C 126.109375 683.34375 125.132812 681.972656 124.09375 680.652344 C 123.539062 679.9375 122.960938 679.238281 122.367188 678.554688 C 122.089844 678.238281 121.804688 677.925781 121.53125 677.609375 C 120.558594 676.511719 122.386719 678.488281 121.621094 677.699219 C 113.367188 669.191406 102.664062 663.671875 94.320312 655.21875 C 89.800781 650.636719 84.636719 644.796875 84.449219 637.964844 C 84.210938 629.296875 91.378906 624.132812 99.054688 622.132812 C 103.824219 620.890625 108.921875 620.222656 113.765625 621.554688 C 117.960938 622.710938 121.820312 624.722656 124.863281 627.882812 C 131.097656 634.355469 134.003906 643.257812 134.183594 652.15625 Z M 134.183594 652.15625 " fill-opacity="1" fill-rule="nonzero"/><path fill="#febe5b" d="M 198.058594 630.289062 C 196.945312 630.359375 195.832031 630.460938 194.722656 630.597656 C 194.261719 630.652344 193.800781 630.71875 193.339844 630.789062 C 192.914062 630.851562 192.625 630.878906 192.632812 630.867188 C 190.800781 631.132812 188.953125 631.6875 187.175781 632.140625 C 184.210938 632.902344 181.28125 633.777344 178.339844 634.636719 C 179.855469 658.609375 181.367188 682.582031 182.882812 706.554688 C 183.125 710.359375 179.976562 713.324219 176.371094 713.632812 C 172.652344 713.953125 169.523438 710.664062 169.296875 707.113281 C 167.84375 684.058594 166.386719 660.996094 164.933594 637.941406 C 164.230469 638.070312 163.523438 638.191406 162.816406 638.304688 C 158.417969 639.007812 154.144531 639 149.71875 638.578125 C 145.933594 638.214844 144.035156 633.636719 144.632812 630.410156 C 144.933594 628.777344 146.207031 627.105469 147.582031 626.222656 C 149.265625 625.140625 150.886719 625.140625 152.789062 625.324219 C 151.121094 625.164062 152.816406 625.296875 153.191406 625.316406 C 153.746094 625.335938 154.296875 625.347656 154.851562 625.347656 C 155.769531 625.347656 156.6875 625.3125 157.601562 625.25 C 158.519531 625.191406 159.433594 625.101562 160.34375 624.988281 C 160.894531 624.917969 161.4375 624.835938 161.984375 624.753906 C 162.054688 624.746094 162.113281 624.738281 162.164062 624.730469 C 165.902344 623.972656 169.574219 623.015625 173.238281 621.957031 C 181.191406 619.652344 189.183594 617.21875 197.5 616.699219 C 201.300781 616.460938 204.261719 619.605469 204.570312 623.214844 C 204.890625 626.933594 201.601562 630.070312 198.058594 630.289062 Z M 198.058594 630.289062 " fill-opacity="1" fill-rule="nonzero"/><path fill="#7fbae6" d="M 269.402344 662.003906 C 269.949219 669.949219 269.957031 677.972656 268.820312 685.875 C 267.875 692.453125 265.808594 699.382812 261.257812 704.40625 C 256.492188 709.667969 249.058594 711.792969 242.171875 710.21875 C 235.652344 708.734375 230.546875 703.902344 227.125 698.347656 C 223.433594 692.359375 221.152344 685.5 219.503906 678.703125 C 217.613281 670.914062 216.421875 662.941406 215.582031 654.980469 C 214.410156 643.855469 214.113281 632.710938 213.8125 621.539062 C 213.710938 617.726562 216.609375 614.785156 220.328125 614.464844 C 223.953125 614.15625 227.304688 617.425781 227.398438 620.984375 C 227.417969 621.699219 227.433594 622.417969 227.445312 623.128906 C 227.6875 634.8125 228.171875 646.496094 229.585938 658.105469 C 229.804688 659.933594 230.050781 661.761719 230.324219 663.582031 C 230.457031 664.496094 230.605469 665.40625 230.75 666.316406 C 230.824219 666.742188 230.898438 667.167969 230.96875 667.59375 C 230.953125 667.5 230.941406 667.417969 230.929688 667.335938 C 230.933594 667.355469 230.933594 667.371094 230.9375 667.390625 C 231.574219 670.851562 232.328125 674.292969 233.265625 677.691406 C 234.128906 680.820312 235.144531 683.917969 236.417969 686.90625 C 236.554688 687.226562 236.699219 687.542969 236.839844 687.863281 C 237.132812 688.445312 237.429688 689.027344 237.746094 689.597656 C 238.421875 690.808594 239.160156 691.988281 239.984375 693.105469 C 240.121094 693.289062 240.261719 693.472656 240.40625 693.65625 C 240.75 694.023438 241.09375 694.398438 241.460938 694.75 C 241.859375 695.128906 242.285156 695.472656 242.707031 695.828125 C 242.789062 695.882812 242.871094 695.933594 242.953125 695.984375 C 243.425781 696.265625 243.910156 696.496094 244.398438 696.738281 C 244.480469 696.761719 244.5625 696.792969 244.648438 696.816406 C 245.132812 696.949219 245.617188 697.03125 246.109375 697.121094 C 246.257812 697.125 246.40625 697.132812 246.550781 697.128906 C 247.085938 697.125 247.609375 697.066406 248.132812 697.019531 C 248.277344 696.984375 248.414062 696.953125 248.554688 696.910156 C 248.855469 696.824219 249.144531 696.710938 249.441406 696.617188 C 249.519531 696.585938 249.601562 696.550781 249.675781 696.519531 C 249.914062 696.355469 250.125 696.203125 250.199219 696.152344 C 250.332031 696.0625 250.460938 695.96875 250.589844 695.871094 C 250.933594 695.515625 251.285156 695.171875 251.605469 694.796875 C 251.636719 694.757812 251.804688 694.535156 251.964844 694.328125 C 252.257812 693.867188 252.53125 693.390625 252.78125 692.902344 C 253.089844 692.3125 253.375 691.699219 253.632812 691.082031 C 253.652344 691.039062 253.683594 690.957031 253.722656 690.863281 C 253.753906 690.773438 253.78125 690.695312 253.796875 690.648438 C 254.257812 689.265625 254.628906 687.855469 254.933594 686.433594 C 255.269531 684.847656 255.527344 683.246094 255.730469 681.636719 C 255.785156 681.191406 255.828125 680.746094 255.882812 680.304688 C 255.941406 679.53125 255.996094 678.757812 256.035156 677.980469 C 256.429688 670.609375 256 663.199219 255.230469 655.867188 C 254.855469 652.296875 254.386719 648.738281 253.847656 645.1875 C 253.589844 643.5 253.3125 641.816406 253.023438 640.136719 C 253.023438 640.128906 253.023438 640.128906 253.023438 640.125 C 252.953125 639.746094 252.882812 639.371094 252.816406 639 C 252.683594 638.273438 252.546875 637.546875 252.40625 636.824219 C 251.546875 632.390625 250.621094 627.953125 249.402344 623.605469 C 248.371094 619.933594 250.242188 616.367188 253.800781 615.054688 C 257.160156 613.808594 261.386719 616.027344 262.351562 619.457031 C 262.570312 620.234375 262.773438 621.019531 262.972656 621.804688 C 266.277344 634.921875 268.46875 648.511719 269.402344 662.003906 Z M 249.554688 696.601562 C 249.175781 696.746094 248.714844 696.921875 248.792969 696.960938 C 248.894531 697.011719 249.230469 696.8125 249.554688 696.601562 Z M 252.265625 693.953125 C 252.261719 693.953125 252.253906 693.960938 252.246094 693.972656 C 252.253906 693.964844 252.265625 693.953125 252.265625 693.953125 Z M 252.265625 693.953125 " fill-opacity="1" fill-rule="nonzero"/><path fill="#39bca7" d="M 339.808594 677.511719 C 336.3125 687.257812 329.839844 695.535156 321.097656 701.140625 C 313.152344 706.234375 303.460938 709.097656 294.003906 708.625 C 290.1875 708.433594 287.273438 706.0625 286.933594 702.109375 C 286.640625 698.675781 289.882812 694.855469 293.445312 695.03125 C 293.960938 695.058594 294.472656 695.074219 294.988281 695.078125 C 294.078125 691.816406 293.207031 688.542969 292.390625 685.257812 C 287.15625 664.199219 283.71875 642.667969 282.160156 621.027344 C 282.148438 620.847656 282.144531 620.664062 282.148438 620.484375 C 282.140625 620.449219 282.136719 620.417969 282.132812 620.382812 C 281.832031 616.859375 285.085938 613.257812 288.644531 613.308594 C 299.539062 613.460938 310.558594 616.621094 319.683594 622.644531 C 328.476562 628.457031 335.480469 636.332031 339.359375 646.21875 C 343.195312 655.988281 343.351562 667.636719 339.808594 677.511719 Z M 328.511719 658.546875 C 328.460938 658.070312 328.398438 657.597656 328.332031 657.121094 C 328.265625 656.898438 328.214844 656.429688 328.207031 656.367188 C 327.996094 655.371094 327.746094 654.382812 327.457031 653.410156 C 327.132812 652.3125 326.753906 651.230469 326.332031 650.171875 C 326.15625 649.730469 325.933594 649.296875 325.773438 648.851562 C 325.746094 648.796875 325.722656 648.742188 325.695312 648.6875 C 324.722656 646.765625 323.585938 644.929688 322.3125 643.191406 C 321.949219 642.691406 321.558594 642.207031 321.179688 641.710938 C 321.175781 641.707031 321.167969 641.703125 321.164062 641.695312 C 321.144531 641.671875 321.121094 641.648438 321.097656 641.621094 C 320.449219 640.90625 319.796875 640.195312 319.113281 639.515625 C 317.597656 638.007812 315.972656 636.609375 314.261719 635.328125 C 314.238281 635.3125 314.214844 635.292969 314.191406 635.28125 C 314.140625 635.234375 314.082031 635.183594 313.996094 635.128906 C 313.886719 635.054688 313.777344 634.984375 313.671875 634.910156 C 313.644531 634.886719 313.613281 634.863281 313.59375 634.835938 C 313.609375 634.855469 313.625 634.871094 313.636719 634.890625 C 313.296875 634.660156 312.960938 634.433594 312.613281 634.214844 C 311.800781 633.695312 310.96875 633.203125 310.125 632.730469 C 308.320312 631.71875 306.457031 630.820312 304.546875 630.035156 C 304.253906 629.910156 303.777344 629.792969 303.476562 629.625 C 303.230469 629.535156 302.984375 629.445312 302.734375 629.363281 C 301.765625 629.039062 300.785156 628.746094 299.800781 628.476562 C 298.65625 628.167969 297.5 627.90625 296.335938 627.675781 C 296.660156 631.21875 297.027344 634.761719 297.453125 638.296875 C 298.082031 643.507812 298.820312 648.703125 299.671875 653.882812 C 299.789062 654.59375 299.910156 655.304688 300.03125 656.015625 C 300.070312 656.238281 300.152344 656.714844 300.195312 656.964844 C 300.410156 658.175781 300.632812 659.390625 300.859375 660.597656 C 301.335938 663.125 301.839844 665.648438 302.371094 668.167969 C 304.09375 676.351562 306.105469 684.46875 308.382812 692.515625 C 308.414062 692.503906 308.449219 692.492188 308.480469 692.480469 C 308.972656 692.28125 309.449219 692.0625 309.933594 691.859375 C 310.058594 691.796875 310.1875 691.734375 310.308594 691.667969 C 312.320312 690.636719 314.246094 689.445312 316.058594 688.101562 C 316.519531 687.757812 316.964844 687.402344 317.417969 687.046875 C 317.449219 687.015625 317.484375 686.984375 317.527344 686.945312 C 318.269531 686.269531 319.007812 685.582031 319.707031 684.859375 C 320.457031 684.085938 321.175781 683.277344 321.855469 682.445312 C 322.15625 682.078125 322.453125 681.707031 322.738281 681.328125 C 322.765625 681.289062 322.792969 681.253906 322.820312 681.214844 C 323.070312 680.347656 324.101562 679.265625 324.550781 678.476562 C 325.027344 677.632812 325.472656 676.773438 325.886719 675.894531 C 326.152344 675.324219 326.398438 674.746094 326.644531 674.164062 C 326.671875 674.101562 326.695312 674.046875 326.71875 673.996094 C 327.050781 672.988281 327.378906 671.980469 327.640625 670.953125 C 327.933594 669.820312 328.175781 668.671875 328.367188 667.515625 C 328.453125 667 328.523438 666.480469 328.589844 665.964844 C 328.605469 665.851562 328.613281 665.738281 328.625 665.621094 C 328.707031 663.253906 328.757812 660.917969 328.511719 658.546875 Z M 313.636719 634.886719 C 313.648438 634.894531 313.660156 634.902344 313.671875 634.910156 C 313.816406 635.046875 314.023438 635.167969 314.191406 635.28125 C 314.4375 635.515625 314.183594 635.550781 313.636719 634.886719 Z M 322.898438 681.113281 C 322.96875 681.019531 323.035156 680.929688 323.105469 680.835938 C 323.671875 680.089844 323.128906 680.78125 322.898438 681.113281 Z M 328.3125 656.972656 C 328.300781 656.902344 328.292969 656.828125 328.285156 656.757812 C 328.160156 655.8125 328.234375 656.539062 328.3125 656.972656 Z M 328.3125 656.972656 " fill-opacity="1" fill-rule="nonzero"/><path fill="#fcb4c4" d="M 405.859375 622.796875 C 406.882812 630.839844 404.234375 638.703125 401.871094 646.265625 C 397.898438 658.957031 393.78125 671.6875 388.140625 683.753906 C 386.734375 686.761719 385.226562 689.722656 383.605469 692.621094 C 382.03125 695.425781 380.339844 698.339844 378.050781 700.625 C 372.496094 706.171875 363.664062 707.980469 357.371094 702.496094 C 354.503906 700 354.648438 695.636719 356.976562 692.882812 C 359.300781 690.128906 363.5625 690.152344 366.269531 692.246094 C 366.375 692.261719 366.441406 692.269531 366.46875 692.273438 C 366.597656 692.246094 366.726562 692.222656 366.828125 692.1875 C 366.882812 692.171875 367 692.128906 367.128906 692.085938 C 367.171875 692.066406 367.207031 692.042969 367.234375 692.019531 C 367.25 692.011719 367.496094 691.847656 367.710938 691.703125 C 367.839844 691.59375 367.984375 691.472656 368.050781 691.410156 C 368.527344 690.9375 368.964844 690.425781 369.382812 689.898438 C 369.480469 689.773438 369.578125 689.648438 369.671875 689.515625 C 369.75 689.386719 369.816406 689.261719 369.832031 689.230469 C 370.242188 688.585938 370.632812 687.925781 371.011719 687.265625 C 373.882812 682.265625 376.382812 677.058594 378.625 671.753906 C 379.234375 670.3125 379.824219 668.863281 380.394531 667.40625 C 380.601562 666.882812 380.808594 666.355469 381.011719 665.828125 C 380.980469 665.820312 380.945312 665.8125 380.914062 665.796875 C 376.832031 664.273438 372.71875 662.789062 368.9375 660.585938 C 363.996094 657.707031 360.34375 653.894531 357.445312 648.960938 C 352 639.683594 351.191406 629.261719 349.535156 618.871094 C 348.9375 615.105469 352.730469 612.082031 356.046875 611.792969 C 360.003906 611.453125 362.5625 614.808594 363.117188 618.3125 C 363.511719 620.769531 363.855469 623.234375 364.210938 625.695312 C 364.367188 626.78125 364.53125 627.867188 364.703125 628.953125 C 364.71875 629.03125 364.730469 629.109375 364.742188 629.191406 C 364.949219 629.511719 364.949219 630.320312 365.027344 630.695312 C 365.4375 632.691406 365.941406 634.667969 366.601562 636.597656 C 366.9375 637.570312 367.339844 638.507812 367.722656 639.457031 C 367.769531 639.554688 367.816406 639.652344 367.863281 639.742188 C 368.113281 640.234375 368.378906 640.71875 368.648438 641.199219 C 369.269531 642.285156 369.941406 643.339844 370.660156 644.363281 C 370.96875 644.800781 371.296875 645.21875 371.601562 645.65625 C 371.628906 645.695312 371.652344 645.730469 371.675781 645.761719 C 371.730469 645.820312 371.796875 645.882812 371.875 645.960938 C 372.011719 646.101562 372.976562 646.996094 373.601562 647.515625 C 373.691406 647.570312 373.863281 647.679688 374.167969 647.875 C 374.667969 648.191406 375.179688 648.496094 375.699219 648.792969 C 377.445312 649.78125 379.265625 650.632812 381.117188 651.40625 C 381.90625 651.738281 382.703125 652.054688 383.503906 652.359375 C 383.363281 652.308594 383.203125 652.25 383.015625 652.183594 C 383.339844 652.300781 383.664062 652.421875 383.988281 652.542969 C 384.496094 652.734375 384.972656 652.957031 385.425781 653.207031 C 386.886719 648.757812 388.285156 644.289062 389.675781 639.816406 C 390.574219 636.925781 391.449219 634.023438 392.023438 631.050781 C 392.171875 630.261719 392.292969 629.472656 392.40625 628.679688 C 392.417969 628.613281 392.425781 628.558594 392.433594 628.5 C 392.457031 628.175781 392.476562 627.851562 392.488281 627.527344 C 392.53125 626.128906 392.453125 624.742188 392.277344 623.359375 C 391.796875 619.578125 395.375 616.574219 398.789062 616.28125 C 402.664062 615.949219 405.410156 619.277344 405.859375 622.796875 Z M 365.90625 692.261719 C 365.875 692.253906 365.847656 692.246094 365.828125 692.234375 C 365.703125 692.238281 365.605469 692.246094 365.578125 692.273438 C 365.589844 692.261719 365.738281 692.261719 365.90625 692.261719 Z M 366.285156 692.261719 C 366.292969 692.261719 366.292969 692.269531 366.300781 692.269531 C 366.398438 692.269531 366.464844 692.273438 366.453125 692.273438 C 366.453125 692.273438 366.457031 692.273438 366.460938 692.273438 C 366.425781 692.269531 366.363281 692.265625 366.285156 692.261719 Z M 369.648438 689.558594 C 369.585938 689.644531 369.511719 689.746094 369.417969 689.875 C 369.457031 689.871094 369.558594 689.714844 369.648438 689.558594 Z M 374.128906 647.886719 C 374.125 647.886719 373.914062 647.75 373.738281 647.632812 C 373.953125 647.804688 374.105469 647.90625 374.128906 647.886719 Z M 374.128906 647.886719 " fill-opacity="1" fill-rule="nonzero"/><path fill="#efd1bd" d="M 616.738281 604 L 539.34375 613.15625 L 563.3125 557.171875 Z M 616.738281 604 " fill-opacity="1" fill-rule="nonzero"/><path fill="#f4dcc9" d="M 524.410156 528.269531 L 524.410156 533.660156 C 524.410156 533.660156 534.3125 612.703125 539.34375 613.15625 C 544.378906 613.613281 567.230469 569.988281 567.230469 569.988281 L 764.332031 440.582031 Z M 524.410156 528.269531 " fill-opacity="1" fill-rule="nonzero"/><path fill="#ffefdf" d="M 524.410156 533.660156 C 505.613281 532.421875 447.011719 477.21875 453.507812 465.550781 C 460.117188 453.6875 764.332031 440.582031 764.332031 440.582031 C 764.332031 440.582031 654.1875 638.773438 637.011719 639.988281 C 624.179688 640.898438 565.984375 578.644531 567.230469 569.988281 C 568.472656 561.332031 753.6875 446.078125 753.6875 446.078125 C 753.6875 446.078125 542.796875 534.875 524.410156 533.660156 Z M 524.410156 533.660156 " fill-opacity="1" fill-rule="nonzero"/><g fill="#ffffff" fill-opacity="1"><g transform="translate(365.480439, 790.560719)"><g><path d="M 5 0 L 2.578125 0 L 2.578125 -22.78125 L 5 -22.78125 Z M 5 0 "/></g></g><g transform="translate(373.064584, 790.560719)"><g><path d="M 4.859375 -16.046875 L 4.859375 -5.640625 C 4.859375 -4.328125 5.15625 -3.347656 5.75 -2.703125 C 6.34375 -2.066406 7.273438 -1.75 8.546875 -1.75 C 10.222656 -1.75 11.445312 -2.207031 12.21875 -3.125 C 13 -4.039062 13.390625 -5.535156 13.390625 -7.609375 L 13.390625 -16.046875 L 15.828125 -16.046875 L 15.828125 0 L 13.828125 0 L 13.46875 -2.15625 L 13.34375 -2.15625 C 12.84375 -1.363281 12.148438 -0.753906 11.265625 -0.328125 C 10.378906 0.0859375 9.375 0.296875 8.25 0.296875 C 6.289062 0.296875 4.828125 -0.164062 3.859375 -1.09375 C 2.890625 -2.019531 2.40625 -3.503906 2.40625 -5.546875 L 2.40625 -16.046875 Z M 4.859375 -16.046875 "/></g></g><g transform="translate(391.46858, 790.560719)"><g><path d="M 8.984375 0.296875 C 6.660156 0.296875 4.863281 -0.414062 3.59375 -1.84375 C 2.320312 -3.28125 1.6875 -5.304688 1.6875 -7.921875 C 1.6875 -10.609375 2.332031 -12.679688 3.625 -14.140625 C 4.914062 -15.609375 6.757812 -16.34375 9.15625 -16.34375 C 9.925781 -16.34375 10.695312 -16.257812 11.46875 -16.09375 C 12.238281 -15.925781 12.84375 -15.726562 13.28125 -15.5 L 12.53125 -13.4375 C 12 -13.65625 11.414062 -13.832031 10.78125 -13.96875 C 10.144531 -14.113281 9.582031 -14.1875 9.09375 -14.1875 C 5.832031 -14.1875 4.203125 -12.109375 4.203125 -7.953125 C 4.203125 -5.984375 4.597656 -4.46875 5.390625 -3.40625 C 6.191406 -2.351562 7.375 -1.828125 8.9375 -1.828125 C 10.269531 -1.828125 11.640625 -2.113281 13.046875 -2.6875 L 13.046875 -0.546875 C 11.972656 0.015625 10.617188 0.296875 8.984375 0.296875 Z M 8.984375 0.296875 "/></g></g><g transform="translate(405.743756, 790.560719)"><g><path d="M 12.4375 0 L 11.96875 -2.28125 L 11.84375 -2.28125 C 11.039062 -1.28125 10.238281 -0.597656 9.4375 -0.234375 C 8.644531 0.117188 7.65625 0.296875 6.46875 0.296875 C 4.875 0.296875 3.625 -0.113281 2.71875 -0.9375 C 1.820312 -1.757812 1.375 -2.925781 1.375 -4.4375 C 1.375 -7.675781 3.96875 -9.375 9.15625 -9.53125 L 11.875 -9.625 L 11.875 -10.609375 C 11.875 -11.867188 11.601562 -12.796875 11.0625 -13.390625 C 10.519531 -13.992188 9.65625 -14.296875 8.46875 -14.296875 C 7.125 -14.296875 5.609375 -13.890625 3.921875 -13.078125 L 3.171875 -14.9375 C 3.960938 -15.363281 4.828125 -15.695312 5.765625 -15.9375 C 6.710938 -16.1875 7.660156 -16.3125 8.609375 -16.3125 C 10.523438 -16.3125 11.941406 -15.882812 12.859375 -15.03125 C 13.785156 -14.1875 14.25 -12.828125 14.25 -10.953125 L 14.25 0 Z M 6.953125 -1.71875 C 8.460938 -1.71875 9.648438 -2.128906 10.515625 -2.953125 C 11.378906 -3.785156 11.8125 -4.945312 11.8125 -6.4375 L 11.8125 -7.890625 L 9.390625 -7.78125 C 7.453125 -7.71875 6.054688 -7.421875 5.203125 -6.890625 C 4.347656 -6.359375 3.921875 -5.53125 3.921875 -4.40625 C 3.921875 -3.53125 4.1875 -2.863281 4.71875 -2.40625 C 5.25 -1.945312 5.992188 -1.71875 6.953125 -1.71875 Z M 6.953125 -1.71875 "/></g></g><g transform="translate(422.42009, 790.560719)"><g><path d="M 12.921875 -4.375 C 12.921875 -2.882812 12.363281 -1.734375 11.25 -0.921875 C 10.144531 -0.109375 8.585938 0.296875 6.578125 0.296875 C 4.441406 0.296875 2.78125 -0.0390625 1.59375 -0.71875 L 1.59375 -2.96875 C 2.363281 -2.582031 3.191406 -2.273438 4.078125 -2.046875 C 4.960938 -1.828125 5.8125 -1.71875 6.625 -1.71875 C 7.894531 -1.71875 8.867188 -1.914062 9.546875 -2.3125 C 10.234375 -2.71875 10.578125 -3.335938 10.578125 -4.171875 C 10.578125 -4.796875 10.304688 -5.328125 9.765625 -5.765625 C 9.222656 -6.210938 8.171875 -6.738281 6.609375 -7.34375 C 5.109375 -7.90625 4.039062 -8.390625 3.40625 -8.796875 C 2.78125 -9.210938 2.3125 -9.6875 2 -10.21875 C 1.695312 -10.75 1.546875 -11.378906 1.546875 -12.109375 C 1.546875 -13.410156 2.078125 -14.441406 3.140625 -15.203125 C 4.210938 -15.960938 5.675781 -16.34375 7.53125 -16.34375 C 9.25 -16.34375 10.9375 -15.988281 12.59375 -15.28125 L 11.734375 -13.3125 C 10.117188 -13.96875 8.65625 -14.296875 7.34375 -14.296875 C 6.195312 -14.296875 5.328125 -14.113281 4.734375 -13.75 C 4.148438 -13.394531 3.859375 -12.898438 3.859375 -12.265625 C 3.859375 -11.835938 3.96875 -11.472656 4.1875 -11.171875 C 4.414062 -10.867188 4.769531 -10.578125 5.25 -10.296875 C 5.738281 -10.023438 6.675781 -9.632812 8.0625 -9.125 C 9.96875 -8.425781 11.253906 -7.722656 11.921875 -7.015625 C 12.585938 -6.316406 12.921875 -5.4375 12.921875 -4.375 Z M 12.921875 -4.375 "/></g></g></g><g fill="#ffffff" fill-opacity="1"><g transform="translate(436.730409, 790.560719)"><g/></g></g></svg>