<svg xmlns="http://www.w3.org/2000/svg" xmlns:xlink="http://www.w3.org/1999/xlink" width="1080" zoomAndPan="magnify" viewBox="0 0 810 1012.49997" height="1350" preserveAspectRatio="xMidYMid meet" version="1.0"><path fill="#ff3333" d="M 652.765625 622.582031 C 651.179688 676.820312 651.539062 731.503906 647.898438 785.628906 C 646.425781 807.449219 643.640625 829.894531 636.265625 850.601562 C 634.269531 856.21875 630.824219 863.785156 627.542969 869.851562 C 623.710938 876.914062 619.457031 883.183594 616.113281 887.152344 C 611.484375 892.632812 606.367188 897.6875 600.839844 902.242188 C 597.40625 905.078125 595.933594 906.136719 594.75 906.910156 C 591.40625 909.109375 587.960938 911.15625 584.429688 913.039062 C 570.839844 920.292969 560.144531 923.789062 547.203125 926.722656 C 516.21875 933.738281 486.882812 934.25 456.945312 933.675781 C 423.972656 933.039062 391.042969 931.152344 358.074219 930.464844 C 318.226562 929.640625 278.382812 929.394531 238.550781 928.519531 C 221.402344 928.144531 204.257812 927.695312 187.125 926.769531 C 179.164062 926.421875 168.703125 925.296875 162.429688 923.726562 C 160.730469 923.300781 154.929688 921.464844 151.796875 920.28125 C 150.375 919.742188 148.964844 919.183594 147.566406 918.59375 C 146.304688 918.058594 145.058594 917.496094 143.820312 916.921875 C 140.289062 915.023438 136.859375 912.941406 133.550781 910.65625 C 132.355469 909.832031 131.207031 908.921875 130.007812 908.109375 C 129.496094 907.761719 129.234375 907.597656 128.933594 907.410156 C 128.695312 907.1875 128.535156 907.023438 128.160156 906.675781 C 125.476562 904.203125 122.832031 901.730469 120.335938 899.070312 C 119.339844 898.011719 118.351562 896.914062 117.390625 895.8125 C 116.867188 895.214844 113.0625 890.257812 113.546875 891.046875 C 103.75 877.214844 98.636719 866.429688 93.59375 851.875 C 87.730469 834.925781 84.210938 818.847656 81.839844 801.882812 C 76.472656 763.285156 77.984375 724.839844 79.230469 686.066406 C 80.265625 654.011719 80.441406 622.542969 83.175781 592.535156 C 84.609375 576.734375 86.679688 560.96875 89.988281 545.4375 C 93.40625 529.398438 96.4375 518.925781 102.742188 505.53125 C 105.6875 499.253906 109.128906 493.335938 112.898438 487.519531 C 113.347656 486.832031 113.847656 486.160156 114.320312 485.484375 C 114.671875 485.074219 116.441406 482.777344 116.617188 482.574219 C 119.136719 479.691406 121.683594 476.847656 124.453125 474.199219 C 126.777344 471.992188 129.222656 469.945312 131.71875 467.921875 C 132.367188 467.398438 133.050781 466.910156 133.738281 466.410156 C 134.164062 466.1875 136.769531 464.476562 136.957031 464.363281 C 143.308594 460.679688 149.9375 457.511719 156.925781 455.226562 C 157.699219 455.015625 159.296875 454.539062 159.683594 454.441406 C 161.503906 453.992188 163.328125 453.542969 165.160156 453.152344 C 168.992188 452.34375 172.871094 451.71875 176.765625 451.246094 C 181.582031 450.65625 186.414062 450.371094 191.253906 450.046875 C 200.625 449.410156 210.011719 448.835938 219.394531 448.261719 C 248.671875 446.464844 277.957031 444.804688 307.246094 443.191406 C 370.351562 439.722656 433.496094 436.226562 496.675781 434.394531 C 499.335938 434.316406 501.980469 434.242188 504.636719 434.179688 C 505.636719 434.15625 506.648438 434.128906 507.644531 434.105469 C 507.644531 434.105469 507.644531 434.105469 507.671875 434.105469 C 507.746094 434.105469 507.757812 434.105469 507.84375 434.105469 C 513 434.054688 518.140625 433.945312 523.292969 433.992188 C 541.625 434.167969 563.902344 436.164062 579.25 440.320312 C 586.574219 442.308594 593.777344 444.714844 600.765625 447.6875 C 602.4375 448.398438 604.082031 449.148438 605.71875 449.921875 C 606.328125 450.222656 607.054688 450.582031 607.414062 450.78125 C 610.484375 452.519531 613.542969 454.265625 616.5 456.210938 C 619.246094 458.023438 621.851562 459.980469 624.472656 461.953125 C 625.660156 463.101562 626.933594 464.164062 628.117188 465.3125 C 630.078125 467.195312 631.960938 469.15625 633.785156 471.191406 C 634.480469 471.976562 635.15625 472.800781 635.855469 473.589844 C 636.179688 473.949219 636.339844 474.125 636.566406 474.363281 C 636.628906 474.460938 636.628906 474.488281 636.714844 474.613281 C 639.347656 478.730469 642.121094 482.664062 644.429688 486.980469 C 645.1875 488.40625 647.546875 493.984375 646.363281 490.988281 C 647.074219 492.710938 647.808594 494.433594 648.445312 496.195312 C 649.820312 500.015625 650.992188 503.894531 651.976562 507.828125 C 652.402344 509.527344 653.550781 516.480469 652.300781 508.726562 C 652.625 510.75 653.027344 512.769531 653.300781 514.804688 C 654.375 522.507812 654.4375 530.148438 654.410156 537.910156 C 654.296875 566.148438 653.625 594.371094 652.800781 622.59375 Z M 652.765625 622.582031 " fill-opacity="1" fill-rule="nonzero"/><path fill="#ffffff" d="M 471.230469 723.179688 C 430.625 748.34375 346.617188 784.082031 338.742188 786.589844 C 292.285156 801.394531 287.144531 790.125 280.367188 771.363281 C 272.304688 749.066406 259.175781 642.515625 268.101562 595.804688 C 275.488281 557.097656 452.078125 671.375 472.441406 683.660156 C 486.28125 691.996094 506.808594 701.132812 471.246094 723.179688 Z M 471.230469 723.179688 " fill-opacity="1" fill-rule="nonzero"/><path fill="#000000" d="M 487.980469 652.9375 C 464.804688 637.761719 440.246094 624.605469 415.527344 612.144531 C 387.199219 597.867188 358.285156 584.320312 328.449219 573.472656 C 308.070312 566.058594 276.621094 553.503906 258.003906 571.453125 C 233.917969 589.652344 236.402344 629.558594 237.390625 656.257812 C 238.535156 687.304688 240.570312 719.183594 244.238281 750.054688 C 246.238281 766.804688 250.054688 784.394531 261.359375 797.511719 C 270.769531 808.421875 285.160156 812.605469 299.109375 812.828125 C 330.355469 813.304688 361.640625 797.113281 389.882812 785.53125 C 414.652344 775.367188 438.625 762.722656 461.898438 749.542969 C 474.875 742.191406 487.765625 734.414062 499.433594 725.089844 C 509.316406 717.199219 520.949219 707.589844 524.03125 694.667969 C 528.472656 676.019531 500.296875 661.003906 487.992188 652.9375 Z M 456.71875 716.789062 C 421.417969 738.671875 348.375 769.738281 341.511719 771.925781 C 301.117188 784.792969 296.652344 774.996094 290.75 758.679688 C 283.75 739.292969 272.332031 646.648438 280.078125 606.042969 C 286.507812 572.386719 440.035156 671.75 457.753906 682.421875 C 469.785156 689.675781 487.628906 697.613281 456.707031 716.789062 Z M 680.253906 544.089844 C 679.816406 527.960938 676.25 511.5 669.847656 496.695312 C 642.941406 434.46875 577.253906 410.738281 513.222656 410.125 C 455.695312 409.578125 397.882812 413.808594 340.464844 416.804688 C 288.691406 419.5 236.828125 421.859375 185.128906 425.816406 C 154.078125 428.203125 123.519531 440.371094 103.152344 464.664062 C 83 488.703125 72.777344 518.851562 67.175781 549.359375 C 61.125 582.363281 59.964844 616.179688 59.015625 649.644531 C 58.042969 684.121094 55.609375 718.773438 57.082031 753.261719 C 60.1875 825.351562 80.203125 910.082031 151.785156 943.347656 C 167.820312 950.800781 185.6875 954.421875 203.296875 955.207031 C 276.023438 959.089844 348.964844 957.652344 421.742188 960.5625 C 482.339844 962.972656 553.679688 967.988281 606.792969 932.875 C 683.175781 882.371094 674.300781 781.5 676.625 701.222656 C 678.132812 648.980469 681.640625 596.355469 680.230469 544.089844 Z M 637.765625 628.410156 C 636.277344 679.339844 636.617188 730.707031 633.183594 781.546875 C 631.800781 802.03125 629.191406 823.117188 622.265625 842.5625 C 620.394531 847.832031 617.148438 854.945312 614.066406 860.636719 C 610.472656 867.277344 606.46875 873.160156 603.335938 876.878906 C 598.992188 882.019531 594.1875 886.765625 588.984375 891.046875 C 585.75 893.703125 584.378906 894.703125 583.269531 895.425781 C 580.125 897.5 576.890625 899.410156 573.574219 901.183594 C 560.804688 907.996094 550.773438 911.269531 538.605469 914.027344 C 509.503906 920.617188 481.953125 921.089844 453.835938 920.554688 C 422.875 919.957031 391.941406 918.183594 360.96875 917.546875 C 323.554688 916.773438 286.121094 916.535156 248.707031 915.710938 C 232.609375 915.363281 216.5 914.9375 200.414062 914.078125 C 192.925781 913.738281 183.117188 912.691406 177.214844 911.21875 C 175.617188 910.820312 170.164062 909.097656 167.21875 907.984375 C 165.882812 907.484375 164.5625 906.960938 163.25 906.398438 C 162.066406 905.898438 160.894531 905.375 159.730469 904.828125 C 156.414062 903.054688 153.195312 901.082031 150.085938 898.949219 C 148.964844 898.171875 147.890625 897.324219 146.765625 896.550781 C 146.292969 896.226562 146.03125 896.0625 145.757812 895.890625 C 145.53125 895.675781 145.382812 895.527344 145.03125 895.203125 C 142.511719 892.882812 140.027344 890.558594 137.683594 888.0625 C 136.746094 887.0625 135.824219 886.039062 134.910156 885.003906 C 134.425781 884.441406 130.84375 879.785156 131.304688 880.535156 C 122.097656 867.554688 117.292969 857.417969 112.5625 843.75 C 107.046875 827.832031 103.738281 812.730469 101.53125 796.789062 C 96.488281 760.539062 97.910156 724.441406 99.085938 688.015625 C 100.058594 657.90625 100.21875 628.347656 102.789062 600.164062 C 104.136719 585.320312 106.085938 570.515625 109.191406 555.9375 C 112.398438 540.871094 115.257812 531.035156 121.171875 518.449219 C 123.941406 512.558594 127.164062 506.992188 130.707031 501.535156 C 131.128906 500.886719 131.59375 500.25 132.042969 499.628906 C 132.367188 499.242188 134.039062 497.082031 134.199219 496.894531 C 136.570312 494.183594 138.953125 491.511719 141.5625 489.03125 C 143.746094 486.957031 146.042969 485.035156 148.390625 483.136719 C 149 482.652344 149.648438 482.1875 150.285156 481.714844 C 150.683594 481.503906 153.132812 479.890625 153.304688 479.792969 C 159.269531 476.335938 165.496094 473.363281 172.050781 471.203125 C 172.773438 471.003906 174.28125 470.554688 174.632812 470.46875 C 176.34375 470.042969 178.050781 469.617188 179.773438 469.257812 C 183.378906 468.496094 187.011719 467.910156 190.667969 467.460938 C 195.183594 466.910156 199.726562 466.636719 204.269531 466.324219 C 213.078125 465.738281 221.890625 465.1875 230.699219 464.652344 C 258.191406 462.964844 285.695312 461.394531 313.210938 459.894531 C 372.484375 456.636719 431.785156 453.355469 491.125 451.632812 C 493.621094 451.554688 496.117188 451.492188 498.597656 451.433594 C 499.535156 451.40625 500.484375 451.394531 501.417969 451.371094 C 501.417969 451.371094 501.417969 451.371094 501.445312 451.371094 C 501.519531 451.371094 501.519531 451.371094 501.605469 451.371094 C 506.449219 451.320312 511.277344 451.21875 516.121094 451.269531 C 533.328125 451.433594 554.253906 453.304688 568.667969 457.222656 C 575.542969 459.097656 582.320312 461.355469 588.882812 464.140625 C 590.457031 464.800781 591.992188 465.511719 593.539062 466.234375 C 594.113281 466.523438 594.800781 466.859375 595.136719 467.046875 C 598.019531 468.683594 600.890625 470.316406 603.660156 472.152344 C 606.242188 473.851562 608.6875 475.699219 611.148438 477.546875 C 612.257812 478.617188 613.457031 479.617188 614.566406 480.691406 C 616.398438 482.464844 618.183594 484.3125 619.882812 486.222656 C 620.542969 486.957031 621.167969 487.730469 621.828125 488.480469 C 622.128906 488.816406 622.289062 488.980469 622.503906 489.214844 C 622.566406 489.316406 622.566406 489.328125 622.640625 489.453125 C 625.109375 493.324219 627.71875 497.007812 629.890625 501.074219 C 630.601562 502.421875 632.808594 507.652344 631.710938 504.832031 C 632.386719 506.457031 633.070312 508.066406 633.671875 509.726562 C 634.96875 513.308594 636.066406 516.964844 636.976562 520.660156 C 637.378906 522.257812 638.449219 528.773438 637.289062 521.496094 C 637.601562 523.40625 637.964844 525.292969 638.226562 527.203125 C 639.238281 534.441406 639.300781 541.605469 639.261719 548.910156 C 639.148438 575.421875 638.523438 601.933594 637.75 628.4375 Z M 567.546875 525.167969 C 569.230469 528.800781 569.753906 530.695312 570.117188 534.691406 C 570.179688 535.339844 570.164062 535.976562 570.117188 536.613281 C 569.953125 538.273438 569.828125 540.058594 569.355469 541.679688 C 567.84375 546.875 564.398438 551.417969 559.695312 554.140625 C 558.25 554.976562 556.613281 555.613281 555.054688 556.148438 C 554.59375 556.3125 554.128906 556.4375 553.644531 556.523438 C 551.507812 556.921875 549.238281 557.335938 547.042969 557.121094 C 542.363281 556.671875 538.320312 555.597656 534.140625 553.328125 C 533.628906 553.054688 533.128906 552.726562 532.652344 552.390625 C 531.34375 551.441406 529.957031 550.46875 528.785156 549.332031 C 527.601562 548.171875 526.589844 546.761719 525.652344 545.402344 C 525.355469 544.964844 525.105469 544.515625 524.878906 544.027344 C 523.417969 540.820312 522.347656 537.863281 522.484375 534.230469 C 522.546875 532.542969 522.820312 530.832031 523.144531 529.1875 C 523.246094 528.6875 523.382812 528.1875 523.554688 527.699219 C 524.28125 525.652344 525.117188 523.429688 526.351562 521.597656 C 527.550781 519.8125 528.898438 517.925781 530.558594 516.515625 C 531.582031 515.640625 533.191406 514.246094 534.613281 513.507812 C 536.011719 512.785156 537.53125 512.074219 539.054688 511.660156 C 540.414062 511.296875 541.902344 511.199219 543.285156 511.046875 C 543.535156 511.023438 543.773438 510.988281 544.023438 511 C 544.296875 511 544.570312 511.0625 544.871094 511.097656 C 545.46875 511.046875 546.054688 510.972656 546.65625 511 C 548.078125 511.046875 549.613281 511.3125 550.996094 511.5625 C 551.285156 511.609375 551.570312 511.671875 551.847656 511.761719 C 553.457031 512.257812 555.066406 512.957031 556.5625 513.746094 C 557.101562 514.03125 557.613281 514.371094 558.109375 514.730469 C 560.070312 516.179688 562.027344 517.601562 563.5625 519.488281 C 565 521.246094 566.558594 523.070312 567.519531 525.152344 Z M 567.546875 525.167969 " fill-opacity="1" fill-rule="nonzero"/><path fill="#ffde59" d="M 704.679688 368.355469 C 629.121094 337.625 710.371094 187.78125 766.433594 231.402344 C 805.320312 260.554688 747.425781 328.585938 698.140625 312.148438 C 694.625 335.292969 703.230469 342.847656 713.664062 347.089844 C 726.761719 352.824219 746.199219 348.203125 758.507812 324.789062 C 758.863281 324.117188 759.277344 323.492188 759.753906 322.902344 C 760.230469 322.316406 760.761719 321.777344 761.34375 321.296875 C 761.925781 320.8125 762.550781 320.390625 763.214844 320.027344 C 763.882812 319.667969 764.574219 319.375 765.300781 319.152344 C 766.023438 318.925781 766.761719 318.777344 767.511719 318.695312 C 768.265625 318.617188 769.019531 318.613281 769.773438 318.683594 C 770.527344 318.75 771.265625 318.894531 771.992188 319.109375 C 772.71875 319.324219 773.417969 319.605469 774.085938 319.957031 C 774.757812 320.3125 775.386719 320.726562 775.976562 321.199219 C 776.566406 321.675781 777.101562 322.207031 777.585938 322.789062 C 778.070312 323.371094 778.492188 323.992188 778.855469 324.65625 C 779.21875 325.324219 779.511719 326.015625 779.738281 326.738281 C 779.960938 327.460938 780.117188 328.199219 780.195312 328.953125 C 780.277344 329.707031 780.28125 330.457031 780.214844 331.214844 C 780.144531 331.96875 780.003906 332.707031 779.792969 333.433594 C 779.578125 334.160156 779.296875 334.859375 778.945312 335.527344 C 760.960938 369.746094 728.335938 378.695312 704.679688 368.355469 Z M 703.859375 289.660156 C 720.820312 296.648438 741.375 283.605469 750.609375 270.238281 C 762.457031 253.066406 751.085938 244.265625 739.84375 247.664062 C 726.738281 251.597656 710.601562 269.828125 704.605469 287.488281 C 704.34375 288.214844 704.101562 288.949219 703.859375 289.660156 Z M 703.859375 289.660156 " fill-opacity="1" fill-rule="nonzero"/><path fill="#38b6ff" d="M 65.113281 371.890625 C 22.820312 371.890625 5.160156 329.925781 18.363281 288.371094 C 41.941406 212.144531 101.097656 212.042969 114.398438 244.828125 C 121.023438 261.152344 116.296875 282.457031 102.632812 297.824219 C 102.128906 298.386719 101.574219 298.894531 100.96875 299.351562 C 100.363281 299.804688 99.722656 300.195312 99.039062 300.523438 C 98.359375 300.851562 97.652344 301.109375 96.921875 301.300781 C 96.1875 301.488281 95.445312 301.605469 94.691406 301.648438 C 93.9375 301.691406 93.183594 301.660156 92.433594 301.554688 C 91.6875 301.449219 90.957031 301.273438 90.242188 301.023438 C 89.527344 300.777344 88.84375 300.460938 88.191406 300.078125 C 87.539062 299.695312 86.933594 299.253906 86.367188 298.75 C 85.800781 298.25 85.289062 297.695312 84.835938 297.09375 C 84.378906 296.492188 83.984375 295.851562 83.652344 295.171875 C 83.324219 294.492188 83.0625 293.785156 82.871094 293.054688 C 82.675781 292.324219 82.558594 291.582031 82.511719 290.824219 C 82.464844 290.070312 82.496094 289.320312 82.597656 288.570312 C 82.699219 287.820312 82.871094 287.089844 83.117188 286.375 C 83.363281 285.660156 83.675781 284.976562 84.054688 284.320312 C 84.433594 283.667969 84.875 283.058594 85.375 282.488281 C 95.925781 270.625 98.710938 248.4375 84.507812 247.417969 C 49.125 243.378906 16.4375 332.488281 54.25 346.894531 C 92.082031 360.546875 137.894531 293.15625 151.398438 267.246094 C 156.734375 257.042969 176.0625 268.402344 169.464844 281.054688 C 167.335938 285.144531 121.527344 371.882812 65.113281 371.890625 Z M 65.113281 371.890625 " fill-opacity="1" fill-rule="nonzero"/><path fill="#00bf63" d="M 301.050781 232.421875 C 293.0625 251.855469 274.710938 278.652344 251.902344 278.953125 C 252.050781 245.984375 234.097656 227.496094 214.527344 225.589844 C 138.171875 216.933594 105.886719 370.988281 185.519531 370.988281 C 219.136719 370.988281 240.082031 334.011719 248.773438 301.875 C 283.015625 303.53125 309.171875 272.441406 321.835938 241.339844 C 322.128906 240.65625 322.351562 239.953125 322.507812 239.226562 C 322.660156 238.5 322.742188 237.765625 322.753906 237.023438 C 322.761719 236.28125 322.699219 235.542969 322.566406 234.8125 C 322.429688 234.082031 322.222656 233.371094 321.949219 232.683594 C 321.671875 231.992188 321.332031 231.335938 320.929688 230.714844 C 320.523438 230.089844 320.0625 229.511719 319.542969 228.980469 C 319.023438 228.449219 318.460938 227.972656 317.847656 227.550781 C 317.234375 227.132812 316.585938 226.773438 315.90625 226.484375 C 315.222656 226.191406 314.519531 225.964844 313.789062 225.8125 C 313.0625 225.65625 312.328125 225.578125 311.585938 225.566406 C 310.84375 225.558594 310.109375 225.621094 309.378906 225.757812 C 308.648438 225.894531 307.9375 226.097656 307.246094 226.375 C 306.558594 226.652344 305.902344 226.992188 305.277344 227.398438 C 304.65625 227.800781 304.078125 228.265625 303.546875 228.78125 C 303.015625 229.300781 302.539062 229.867188 302.121094 230.480469 C 301.699219 231.09375 301.34375 231.742188 301.050781 232.421875 Z M 167 336.308594 C 146.390625 297.875 193.226562 230.304688 219.351562 251.6875 C 218.746094 252.507812 218.183594 253.355469 217.664062 254.234375 C 217.144531 255.109375 216.671875 256.011719 216.246094 256.9375 C 215.816406 257.863281 215.433594 258.804688 215.101562 259.769531 C 214.769531 260.730469 214.484375 261.710938 214.25 262.703125 C 214.015625 263.691406 213.832031 264.695312 213.699219 265.703125 C 213.566406 266.714844 213.484375 267.730469 213.453125 268.75 C 213.421875 269.765625 213.441406 270.785156 213.515625 271.800781 C 213.585938 272.816406 213.707031 273.828125 213.882812 274.832031 C 214.054688 275.835938 214.28125 276.828125 214.554688 277.8125 C 214.828125 278.792969 215.148438 279.757812 215.519531 280.707031 C 215.894531 281.65625 216.3125 282.585938 216.777344 283.492188 C 217.242188 284.398438 217.75 285.28125 218.304688 286.136719 C 218.859375 286.992188 219.453125 287.816406 220.089844 288.613281 C 220.730469 289.40625 221.40625 290.167969 222.117188 290.894531 C 222.832031 291.621094 223.582031 292.3125 224.363281 292.964844 C 225.148438 293.613281 225.964844 294.226562 226.808594 294.792969 C 212.425781 352.25 178.582031 357.90625 167 336.308594 Z M 167 336.308594 " fill-opacity="1" fill-rule="nonzero"/><path fill="#ffde59" d="M 355.589844 339.050781 C 339.390625 360.558594 319.84375 375.09375 297.976562 368.773438 C 253.089844 356.128906 281.492188 273.875 301.289062 231.882812 C 301.609375 231.195312 302 230.546875 302.449219 229.9375 C 302.898438 229.328125 303.40625 228.769531 303.964844 228.257812 C 304.527344 227.75 305.132812 227.300781 305.78125 226.90625 C 306.429688 226.515625 307.113281 226.195312 307.824219 225.9375 C 308.539062 225.679688 309.269531 225.496094 310.019531 225.382812 C 310.769531 225.273438 311.523438 225.234375 312.28125 225.269531 C 313.039062 225.304688 313.785156 225.414062 314.519531 225.597656 C 315.253906 225.78125 315.964844 226.035156 316.652344 226.359375 C 317.335938 226.679688 317.984375 227.066406 318.59375 227.519531 C 319.203125 227.96875 319.765625 228.476562 320.273438 229.035156 C 320.785156 229.597656 321.234375 230.203125 321.625 230.851562 C 322.015625 231.5 322.339844 232.183594 322.59375 232.894531 C 322.851562 233.609375 323.035156 234.339844 323.148438 235.089844 C 323.261719 235.839844 323.296875 236.59375 323.261719 237.351562 C 323.226562 238.105469 323.117188 238.855469 322.933594 239.589844 C 322.75 240.324219 322.496094 241.035156 322.175781 241.722656 C 311.976562 263.394531 282.710938 340.503906 304.3125 346.574219 C 337.90625 356.328125 375.25 244.570312 381.070312 231.972656 C 381.378906 231.316406 381.742188 230.691406 382.167969 230.101562 C 382.589844 229.515625 383.066406 228.96875 383.589844 228.46875 C 384.117188 227.972656 384.683594 227.523438 385.296875 227.132812 C 385.90625 226.742188 386.546875 226.410156 387.21875 226.136719 C 387.894531 225.867188 388.585938 225.660156 389.296875 225.519531 C 390.007812 225.378906 390.726562 225.304688 391.453125 225.300781 C 392.175781 225.292969 392.898438 225.355469 393.609375 225.488281 C 394.324219 225.617188 395.019531 225.8125 395.695312 226.074219 C 396.371094 226.335938 397.019531 226.660156 397.636719 227.042969 C 398.25 227.425781 398.824219 227.863281 399.359375 228.355469 C 399.894531 228.847656 400.375 229.382812 400.808594 229.964844 C 401.238281 230.546875 401.613281 231.167969 401.929688 231.820312 C 402.246094 232.472656 402.496094 233.148438 402.683594 233.851562 C 402.875 234.550781 402.996094 235.261719 403.046875 235.984375 C 403.101562 236.710938 403.085938 237.429688 403.003906 238.152344 C 402.921875 238.875 402.773438 239.578125 402.558594 240.273438 C 391.929688 274.058594 377.964844 296.617188 377.964844 327.644531 C 377.964844 341 381.851562 347.933594 388.164062 347.933594 C 404.105469 347.933594 435.53125 303.683594 458.816406 207.140625 C 458.996094 206.402344 459.246094 205.691406 459.5625 205.003906 C 459.882812 204.316406 460.265625 203.667969 460.710938 203.054688 C 461.15625 202.445312 461.65625 201.882812 462.214844 201.367188 C 462.773438 200.855469 463.375 200.402344 464.019531 200.007812 C 464.667969 199.613281 465.34375 199.285156 466.054688 199.023438 C 466.765625 198.761719 467.496094 198.574219 468.242188 198.453125 C 468.992188 198.335938 469.746094 198.292969 470.5 198.324219 C 471.257812 198.355469 472.003906 198.457031 472.742188 198.636719 C 473.476562 198.8125 474.1875 199.0625 474.875 199.378906 C 475.5625 199.695312 476.214844 200.078125 476.828125 200.523438 C 477.4375 200.96875 478 201.46875 478.515625 202.023438 C 479.03125 202.582031 479.484375 203.183594 479.878906 203.828125 C 480.277344 204.472656 480.605469 205.152344 480.867188 205.863281 C 481.128906 206.574219 481.320312 207.300781 481.4375 208.050781 C 481.554688 208.796875 481.601562 209.550781 481.570312 210.308594 C 481.542969 211.0625 481.4375 211.808594 481.261719 212.546875 C 433.742188 409.6875 362.199219 384.476562 355.589844 339.050781 Z M 355.589844 339.050781 " fill-opacity="1" fill-rule="nonzero"/><path fill="#ff5757" d="M 502.765625 368.078125 C 457.421875 348 502.035156 285.714844 506.121094 264.738281 C 488.074219 255.734375 453.363281 237.546875 459.078125 203.25 C 459.214844 202.511719 459.421875 201.796875 459.695312 201.101562 C 459.972656 200.402344 460.3125 199.742188 460.71875 199.109375 C 461.125 198.480469 461.585938 197.894531 462.105469 197.355469 C 462.625 196.816406 463.191406 196.328125 463.804688 195.898438 C 464.417969 195.46875 465.066406 195.105469 465.75 194.800781 C 466.433594 194.496094 467.144531 194.261719 467.875 194.097656 C 468.605469 193.929688 469.34375 193.835938 470.09375 193.816406 C 470.839844 193.792969 471.585938 193.84375 472.324219 193.96875 C 473.0625 194.089844 473.78125 194.28125 474.484375 194.546875 C 475.183594 194.808594 475.855469 195.136719 476.492188 195.53125 C 477.128906 195.925781 477.722656 196.375 478.273438 196.886719 C 478.820312 197.394531 479.316406 197.953125 479.757812 198.558594 C 480.199219 199.164062 480.578125 199.804688 480.894531 200.484375 C 481.207031 201.164062 481.457031 201.867188 481.636719 202.59375 C 481.8125 203.320312 481.921875 204.058594 481.957031 204.808594 C 481.992188 205.554688 481.957031 206.300781 481.847656 207.039062 C 478.699219 225.949219 503.65625 237.128906 519.492188 245.605469 C 537.105469 254.683594 527.628906 276.066406 518.460938 296.746094 C 511.964844 311.386719 497.503906 340.492188 512.078125 346.957031 C 523.617188 352 542 333.628906 561.300781 297.785156 C 571.320312 278.304688 581.605469 253.488281 581.707031 253.246094 C 582.027344 252.570312 582.40625 251.929688 582.851562 251.324219 C 583.292969 250.722656 583.789062 250.167969 584.339844 249.660156 C 584.890625 249.152344 585.484375 248.703125 586.125 248.3125 C 586.761719 247.921875 587.433594 247.597656 588.132812 247.335938 C 588.835938 247.074219 589.554688 246.882812 590.292969 246.761719 C 591.03125 246.640625 591.777344 246.59375 592.523438 246.617188 C 593.273438 246.640625 594.011719 246.738281 594.742188 246.90625 C 595.46875 247.074219 596.175781 247.308594 596.859375 247.613281 C 597.542969 247.917969 598.191406 248.285156 598.804688 248.71875 C 599.414062 249.148438 599.980469 249.636719 600.496094 250.175781 C 601.015625 250.71875 601.476562 251.300781 601.878906 251.933594 C 602.28125 252.5625 602.621094 253.226562 602.894531 253.921875 C 603.167969 254.621094 603.375 255.335938 603.507812 256.074219 C 603.644531 256.808594 603.707031 257.550781 603.699219 258.300781 C 603.6875 259.046875 603.605469 259.789062 603.453125 260.519531 C 603.300781 261.253906 603.078125 261.964844 602.785156 262.652344 C 602.335938 263.664062 592.148438 288.289062 581.726562 308.542969 C 564.601562 340.347656 535.855469 382.628906 502.765625 368.078125 Z M 502.765625 368.078125 " fill-opacity="1" fill-rule="nonzero"/><path fill="#38b6ff" d="M 574.515625 360.28125 C 573.9375 359.792969 573.414062 359.25 572.941406 358.660156 C 572.46875 358.066406 572.058594 357.433594 571.710938 356.757812 C 571.363281 356.085938 571.085938 355.382812 570.878906 354.65625 C 570.667969 353.925781 570.53125 353.183594 570.46875 352.429688 C 570.40625 351.671875 570.417969 350.917969 570.503906 350.164062 C 570.589844 349.414062 570.746094 348.675781 570.976562 347.953125 C 571.207031 347.230469 571.507812 346.539062 571.875 345.875 C 572.242188 345.210938 572.671875 344.589844 573.160156 344.011719 C 573.648438 343.433594 574.191406 342.910156 574.785156 342.4375 C 575.378906 341.964844 576.011719 341.554688 576.683594 341.207031 C 577.359375 340.859375 578.058594 340.582031 578.789062 340.375 C 579.515625 340.164062 580.257812 340.027344 581.015625 339.964844 C 581.769531 339.902344 582.523438 339.914062 583.277344 340 C 584.03125 340.085938 584.769531 340.242188 585.488281 340.472656 C 586.210938 340.703125 586.90625 341.003906 587.566406 341.371094 C 588.230469 341.738281 588.851562 342.167969 589.429688 342.65625 C 610.667969 360.632812 649.921875 342.597656 612.996094 315.578125 C 531.867188 259.628906 619.203125 190.914062 662.292969 232.515625 C 676.976562 246.695312 682.039062 276.25 663.925781 276.25 C 663.167969 276.25 662.417969 276.175781 661.675781 276.03125 C 660.933594 275.882812 660.210938 275.664062 659.507812 275.371094 C 658.808594 275.082031 658.144531 274.726562 657.515625 274.304688 C 656.882812 273.886719 656.300781 273.40625 655.765625 272.871094 C 655.230469 272.335938 654.75 271.75 654.328125 271.121094 C 653.910156 270.492188 653.554688 269.824219 653.261719 269.125 C 652.972656 268.425781 652.753906 267.703125 652.605469 266.960938 C 652.457031 266.21875 652.382812 265.464844 652.382812 264.707031 C 652.382812 237.929688 614.8125 235.003906 604.128906 260.003906 C 597.988281 274.40625 615.425781 289.214844 626.367188 296.761719 C 687.796875 341.699219 622.003906 400.453125 574.515625 360.28125 Z M 574.515625 360.28125 " fill-opacity="1" fill-rule="nonzero"/></svg>